<?xml version="1.0" encoding="UTF-8"?>
<svg id="Layer_1" data-name="Layer 1" xmlns="http://www.w3.org/2000/svg" viewBox="0 0 939 939">
  <defs>
    <style>
      .cls-1 {
        fill: #8d7fef;
      }

      .cls-2 {
        opacity: .11;
      }

      .cls-2, .cls-3 {
        isolation: isolate;
      }

      .cls-3 {
        opacity: .29;
      }
    </style>
  </defs>
  <g id="i30">
    <g>
      <g>
        <polygon class="cls-1" points="200.4 547.69 169.12 563.33 169.12 594.6 200.4 610.24 231.67 594.6 231.67 563.33 200.4 547.69"/>
        <polygon class="cls-2" points="169.12 563.33 200.4 578.96 200.4 610.24 169.12 594.6 169.12 563.33"/>
        <polygon class="cls-3" points="231.67 563.33 231.67 594.6 200.4 610.24 200.4 578.96 231.67 563.33"/>
      </g>
      <g>
        <polygon class="cls-1" points="200.4 516.41 169.12 532.05 169.12 563.33 200.4 578.96 231.67 563.33 231.67 532.05 200.4 516.41"/>
        <polygon class="cls-2" points="169.12 532.05 200.4 547.69 200.4 578.96 169.12 563.33 169.12 532.05"/>
        <polygon class="cls-3" points="231.67 532.05 231.67 563.33 200.4 578.96 200.4 547.69 231.67 532.05"/>
      </g>
      <g>
        <polygon class="cls-1" points="200.4 485.14 169.12 500.78 169.12 532.05 200.4 547.69 231.67 532.05 231.67 500.78 200.4 485.14"/>
        <polygon class="cls-2" points="169.12 500.78 200.4 516.41 200.4 547.69 169.12 532.05 169.12 500.78"/>
        <polygon class="cls-3" points="231.67 500.78 231.67 532.05 200.4 547.69 200.4 516.41 231.67 500.78"/>
      </g>
      <g>
        <polygon class="cls-1" points="200.4 453.86 169.12 469.5 169.12 500.78 200.4 516.41 231.67 500.78 231.67 469.5 200.4 453.86"/>
        <polygon class="cls-2" points="169.12 469.5 200.4 485.14 200.4 516.41 169.12 500.78 169.12 469.5"/>
        <polygon class="cls-3" points="231.67 469.5 231.67 500.78 200.4 516.41 200.4 485.14 231.67 469.5"/>
      </g>
      <g>
        <polygon class="cls-1" points="200.4 422.59 169.12 438.22 169.12 469.5 200.4 485.14 231.67 469.5 231.67 438.22 200.4 422.59"/>
        <polygon class="cls-2" points="169.12 438.22 200.4 453.86 200.4 485.14 169.12 469.5 169.12 438.22"/>
        <polygon class="cls-3" points="231.67 438.22 231.67 469.5 200.4 485.14 200.4 453.86 231.67 438.22"/>
      </g>
      <g>
        <polygon class="cls-1" points="169.12 438.22 137.85 453.86 137.85 485.14 169.12 500.78 200.4 485.14 200.4 453.86 169.12 438.22"/>
        <polygon class="cls-2" points="137.85 453.86 169.12 469.5 169.12 500.78 137.85 485.14 137.85 453.86"/>
        <polygon class="cls-3" points="200.4 453.86 200.4 485.14 169.12 500.78 169.12 469.5 200.4 453.86"/>
      </g>
      <g>
        <polygon class="cls-1" points="75.3 422.59 44.02 438.22 44.02 469.5 75.3 485.14 106.57 469.5 106.57 438.22 75.3 422.59"/>
        <polygon class="cls-2" points="44.02 438.22 75.3 453.86 75.3 485.14 44.02 469.5 44.02 438.22"/>
        <polygon class="cls-3" points="106.57 438.22 106.57 469.5 75.3 485.14 75.3 453.86 106.57 438.22"/>
      </g>
      <g>
        <polygon class="cls-1" points="75.3 391.31 44.02 406.95 44.02 438.22 75.3 453.86 106.57 438.22 106.57 406.95 75.3 391.31"/>
        <polygon class="cls-2" points="44.02 406.95 75.3 422.59 75.3 453.86 44.02 438.22 44.02 406.95"/>
        <polygon class="cls-3" points="106.57 406.95 106.57 438.22 75.3 453.86 75.3 422.59 106.57 406.95"/>
      </g>
      <g>
        <polygon class="cls-1" points="75.3 360.04 44.02 375.67 44.02 406.95 75.3 422.59 106.57 406.95 106.57 375.67 75.3 360.04"/>
        <polygon class="cls-2" points="44.02 375.67 75.3 391.31 75.3 422.59 44.02 406.95 44.02 375.67"/>
        <polygon class="cls-3" points="106.57 375.67 106.57 406.95 75.3 422.59 75.3 391.31 106.57 375.67"/>
      </g>
      <g>
        <polygon class="cls-1" points="106.57 438.22 75.3 453.86 75.3 485.14 106.57 500.78 137.85 485.14 137.85 453.86 106.57 438.22"/>
        <polygon class="cls-2" points="75.3 453.86 106.57 469.5 106.57 500.78 75.3 485.14 75.3 453.86"/>
        <polygon class="cls-3" points="137.85 453.86 137.85 485.14 106.57 500.78 106.57 469.5 137.85 453.86"/>
      </g>
      <g>
        <polygon class="cls-1" points="137.85 453.86 106.57 469.5 106.57 500.78 137.85 516.41 169.12 500.78 169.12 469.5 137.85 453.86"/>
        <polygon class="cls-2" points="106.57 469.5 137.85 485.14 137.85 516.41 106.57 500.78 106.57 469.5"/>
        <polygon class="cls-3" points="169.12 469.5 169.12 500.78 137.85 516.41 137.85 485.14 169.12 469.5"/>
      </g>
      <g>
        <polygon class="cls-1" points="200.4 391.31 169.12 406.95 169.12 438.22 200.4 453.86 231.67 438.22 231.67 406.95 200.4 391.31"/>
        <polygon class="cls-2" points="169.12 406.95 200.4 422.59 200.4 453.86 169.12 438.22 169.12 406.95"/>
        <polygon class="cls-3" points="231.67 406.95 231.67 438.22 200.4 453.86 200.4 422.59 231.67 406.95"/>
      </g>
      <g>
        <polygon class="cls-1" points="200.4 360.04 169.12 375.67 169.12 406.95 200.4 422.59 231.67 406.95 231.67 375.67 200.4 360.04"/>
        <polygon class="cls-2" points="169.12 375.67 200.4 391.31 200.4 422.59 169.12 406.95 169.12 375.67"/>
        <polygon class="cls-3" points="231.67 375.67 231.67 406.95 200.4 422.59 200.4 391.31 231.67 375.67"/>
      </g>
      <g>
        <polygon class="cls-1" points="75.3 328.76 44.02 344.4 44.02 375.67 75.3 391.31 106.57 375.67 106.57 344.4 75.3 328.76"/>
        <polygon class="cls-2" points="44.02 344.4 75.3 360.04 75.3 391.31 44.02 375.67 44.02 344.4"/>
        <polygon class="cls-3" points="106.57 344.4 106.57 375.67 75.3 391.31 75.3 360.04 106.57 344.4"/>
      </g>
      <g>
        <polygon class="cls-1" points="200.4 328.76 169.12 344.4 169.12 375.67 200.4 391.31 231.67 375.67 231.67 344.4 200.4 328.76"/>
        <polygon class="cls-2" points="169.12 344.4 200.4 360.04 200.4 391.31 169.12 375.67 169.12 344.4"/>
        <polygon class="cls-3" points="231.67 344.4 231.67 375.67 200.4 391.31 200.4 360.04 231.67 344.4"/>
      </g>
    </g>
  </g>
  <g id="i31">
    <g>
      <g>
        <polygon class="cls-1" points="532.05 516.41 500.78 532.05 500.78 563.33 532.05 578.96 563.33 563.33 563.33 532.05 532.05 516.41"/>
        <polygon class="cls-2" points="500.78 532.05 532.05 547.69 532.05 578.96 500.78 563.33 500.78 532.05"/>
        <polygon class="cls-3" points="563.33 532.05 563.33 563.33 532.05 578.96 532.05 547.69 563.33 532.05"/>
      </g>
      <g>
        <polygon class="cls-1" points="469.5 328.76 438.22 344.4 438.22 375.67 469.5 391.31 500.78 375.67 500.78 344.4 469.5 328.76"/>
        <polygon class="cls-2" points="438.22 344.4 469.5 360.04 469.5 391.31 438.22 375.67 438.22 344.4"/>
        <polygon class="cls-3" points="500.78 344.4 500.78 375.67 469.5 391.31 469.5 360.04 500.78 344.4"/>
      </g>
      <g>
        <polygon class="cls-1" points="438.22 344.4 406.95 360.04 406.95 391.31 438.22 406.95 469.5 391.31 469.5 360.04 438.22 344.4"/>
        <polygon class="cls-2" points="406.95 360.04 438.22 375.67 438.22 406.95 406.95 391.31 406.95 360.04"/>
        <polygon class="cls-3" points="469.5 360.04 469.5 391.31 438.22 406.95 438.22 375.67 469.5 360.04"/>
      </g>
      <g>
        <polygon class="cls-1" points="532.05 485.14 500.78 500.78 500.78 532.05 532.05 547.69 563.33 532.05 563.33 500.78 532.05 485.14"/>
        <polygon class="cls-2" points="500.78 500.78 532.05 516.41 532.05 547.69 500.78 532.05 500.78 500.78"/>
        <polygon class="cls-3" points="563.33 500.78 563.33 532.05 532.05 547.69 532.05 516.41 563.33 500.78"/>
      </g>
      <g>
        <polygon class="cls-1" points="532.05 453.86 500.78 469.5 500.78 500.78 532.05 516.41 563.33 500.78 563.33 469.5 532.05 453.86"/>
        <polygon class="cls-2" points="500.78 469.5 532.05 485.14 532.05 516.41 500.78 500.78 500.78 469.5"/>
        <polygon class="cls-3" points="563.33 469.5 563.33 500.78 532.05 516.41 532.05 485.14 563.33 469.5"/>
      </g>
      <g>
        <polygon class="cls-1" points="532.05 422.59 500.78 438.22 500.78 469.5 532.05 485.14 563.33 469.5 563.33 438.22 532.05 422.59"/>
        <polygon class="cls-2" points="500.78 438.22 532.05 453.86 532.05 485.14 500.78 469.5 500.78 438.22"/>
        <polygon class="cls-3" points="563.33 438.22 563.33 469.5 532.05 485.14 532.05 453.86 563.33 438.22"/>
      </g>
      <g>
        <polygon class="cls-1" points="500.78 532.05 469.5 547.69 469.5 578.96 500.78 594.6 532.05 578.96 532.05 547.69 500.78 532.05"/>
        <polygon class="cls-2" points="469.5 547.69 500.78 563.33 500.78 594.6 469.5 578.96 469.5 547.69"/>
        <polygon class="cls-3" points="532.05 547.69 532.05 578.96 500.78 594.6 500.78 563.33 532.05 547.69"/>
      </g>
      <g>
        <polygon class="cls-1" points="406.95 516.41 375.67 532.05 375.67 563.33 406.95 578.96 438.22 563.33 438.22 532.05 406.95 516.41"/>
        <polygon class="cls-2" points="375.67 532.05 406.95 547.69 406.95 578.96 375.67 563.33 375.67 532.05"/>
        <polygon class="cls-3" points="438.22 532.05 438.22 563.33 406.95 578.96 406.95 547.69 438.22 532.05"/>
      </g>
      <g>
        <polygon class="cls-1" points="406.95 485.14 375.67 500.78 375.67 532.05 406.95 547.69 438.22 532.05 438.22 500.78 406.95 485.14"/>
        <polygon class="cls-2" points="375.67 500.78 406.95 516.41 406.95 547.69 375.67 532.05 375.67 500.78"/>
        <polygon class="cls-3" points="438.22 500.78 438.22 532.05 406.95 547.69 406.95 516.41 438.22 500.78"/>
      </g>
      <g>
        <polygon class="cls-1" points="406.95 453.86 375.67 469.5 375.67 500.78 406.95 516.41 438.22 500.78 438.22 469.5 406.95 453.86"/>
        <polygon class="cls-2" points="375.67 469.5 406.95 485.14 406.95 516.41 375.67 500.78 375.67 469.5"/>
        <polygon class="cls-3" points="438.22 469.5 438.22 500.78 406.95 516.41 406.95 485.14 438.22 469.5"/>
      </g>
      <g>
        <polygon class="cls-1" points="406.95 422.59 375.67 438.22 375.67 469.5 406.95 485.14 438.22 469.5 438.22 438.22 406.95 422.59"/>
        <polygon class="cls-2" points="375.67 438.22 406.95 453.86 406.95 485.14 375.67 469.5 375.67 438.22"/>
        <polygon class="cls-3" points="438.22 438.22 438.22 469.5 406.95 485.14 406.95 453.86 438.22 438.22"/>
      </g>
      <g>
        <polygon class="cls-1" points="406.95 391.31 375.67 406.95 375.67 438.22 406.95 453.86 438.22 438.22 438.22 406.95 406.95 391.31"/>
        <polygon class="cls-2" points="375.67 406.95 406.95 422.59 406.95 453.86 375.67 438.22 375.67 406.95"/>
        <polygon class="cls-3" points="438.22 406.95 438.22 438.22 406.95 453.86 406.95 422.59 438.22 406.95"/>
      </g>
      <g>
        <polygon class="cls-1" points="406.95 360.04 375.67 375.67 375.67 406.95 406.95 422.59 438.22 406.95 438.22 375.67 406.95 360.04"/>
        <polygon class="cls-2" points="375.67 375.67 406.95 391.31 406.95 422.59 375.67 406.95 375.67 375.67"/>
        <polygon class="cls-3" points="438.22 375.67 438.22 406.95 406.95 422.59 406.95 391.31 438.22 375.67"/>
      </g>
      <g>
        <polygon class="cls-1" points="438.22 532.05 406.95 547.69 406.95 578.96 438.22 594.6 469.5 578.96 469.5 547.69 438.22 532.05"/>
        <polygon class="cls-2" points="406.95 547.69 438.22 563.33 438.22 594.6 406.95 578.96 406.95 547.69"/>
        <polygon class="cls-3" points="469.5 547.69 469.5 578.96 438.22 594.6 438.22 563.33 469.5 547.69"/>
      </g>
      <g>
        <polygon class="cls-1" points="469.5 547.69 438.22 563.33 438.22 594.6 469.5 610.24 500.78 594.6 500.78 563.33 469.5 547.69"/>
        <polygon class="cls-2" points="438.22 563.33 469.5 578.96 469.5 610.24 438.22 594.6 438.22 563.33"/>
        <polygon class="cls-3" points="500.78 563.33 500.78 594.6 469.5 610.24 469.5 578.96 500.78 563.33"/>
      </g>
      <g>
        <polygon class="cls-1" points="500.78 344.4 469.5 360.04 469.5 391.31 500.78 406.95 532.05 391.31 532.05 360.04 500.78 344.4"/>
        <polygon class="cls-2" points="469.5 360.04 500.78 375.67 500.78 406.95 469.5 391.31 469.5 360.04"/>
        <polygon class="cls-3" points="532.05 360.04 532.05 391.31 500.78 406.95 500.78 375.67 532.05 360.04"/>
      </g>
      <g>
        <polygon class="cls-1" points="532.05 391.31 500.78 406.95 500.78 438.22 532.05 453.86 563.33 438.22 563.33 406.95 532.05 391.31"/>
        <polygon class="cls-2" points="500.78 406.95 532.05 422.59 532.05 453.86 500.78 438.22 500.78 406.95"/>
        <polygon class="cls-3" points="563.33 406.95 563.33 438.22 532.05 453.86 532.05 422.59 563.33 406.95"/>
      </g>
      <g>
        <polygon class="cls-1" points="532.05 360.04 500.78 375.67 500.78 406.95 532.05 422.59 563.33 406.95 563.33 375.67 532.05 360.04"/>
        <polygon class="cls-2" points="500.78 375.67 532.05 391.31 532.05 422.59 500.78 406.95 500.78 375.67"/>
        <polygon class="cls-3" points="563.33 375.67 563.33 406.95 532.05 422.59 532.05 391.31 563.33 375.67"/>
      </g>
      <g>
        <polygon class="cls-1" points="500.78 406.95 469.5 422.59 469.5 453.86 500.78 469.5 532.05 453.86 532.05 422.59 500.78 406.95"/>
        <polygon class="cls-2" points="469.5 422.59 500.78 438.22 500.78 469.5 469.5 453.86 469.5 422.59"/>
        <polygon class="cls-3" points="532.05 422.59 532.05 453.86 500.78 469.5 500.78 438.22 532.05 422.59"/>
      </g>
      <g>
        <polygon class="cls-1" points="469.5 453.86 438.22 469.5 438.22 500.78 469.5 516.41 500.78 500.78 500.78 469.5 469.5 453.86"/>
        <polygon class="cls-2" points="438.22 469.5 469.5 485.14 469.5 516.41 438.22 500.78 438.22 469.5"/>
        <polygon class="cls-3" points="500.78 469.5 500.78 500.78 469.5 516.41 469.5 485.14 500.78 469.5"/>
      </g>
      <g>
        <polygon class="cls-1" points="438.22 500.78 406.95 516.41 406.95 547.69 438.22 563.33 469.5 547.69 469.5 516.41 438.22 500.78"/>
        <polygon class="cls-2" points="406.95 516.41 438.22 532.05 438.22 563.33 406.95 547.69 406.95 516.41"/>
        <polygon class="cls-3" points="469.5 516.41 469.5 547.69 438.22 563.33 438.22 532.05 469.5 516.41"/>
      </g>
    </g>
  </g>
  <g id="i32">
    <g>
      <g>
        <polygon class="cls-1" points="863.7 547.69 832.43 563.33 832.43 594.6 863.7 610.24 894.98 594.6 894.98 563.33 863.7 547.69"/>
        <polygon class="cls-2" points="832.43 563.33 863.7 578.96 863.7 610.24 832.43 594.6 832.43 563.33"/>
        <polygon class="cls-3" points="894.98 563.33 894.98 594.6 863.7 610.24 863.7 578.96 894.98 563.33"/>
      </g>
      <g>
        <polygon class="cls-1" points="863.7 516.41 832.43 532.05 832.43 563.33 863.7 578.96 894.98 563.33 894.98 532.05 863.7 516.41"/>
        <polygon class="cls-2" points="832.43 532.05 863.7 547.69 863.7 578.96 832.43 563.33 832.43 532.05"/>
        <polygon class="cls-3" points="894.98 532.05 894.98 563.33 863.7 578.96 863.7 547.69 894.98 532.05"/>
      </g>
      <g>
        <polygon class="cls-1" points="863.7 485.14 832.43 500.78 832.43 532.05 863.7 547.69 894.98 532.05 894.98 500.78 863.7 485.14"/>
        <polygon class="cls-2" points="832.43 500.78 863.7 516.41 863.7 547.69 832.43 532.05 832.43 500.78"/>
        <polygon class="cls-3" points="894.98 500.78 894.98 532.05 863.7 547.69 863.7 516.41 894.98 500.78"/>
      </g>
      <g>
        <polygon class="cls-1" points="863.7 453.86 832.43 469.5 832.43 500.78 863.7 516.41 894.98 500.78 894.98 469.5 863.7 453.86"/>
        <polygon class="cls-2" points="832.43 469.5 863.7 485.14 863.7 516.41 832.43 500.78 832.43 469.5"/>
        <polygon class="cls-3" points="894.98 469.5 894.98 500.78 863.7 516.41 863.7 485.14 894.98 469.5"/>
      </g>
      <g>
        <polygon class="cls-1" points="863.7 422.59 832.43 438.22 832.43 469.5 863.7 485.14 894.98 469.5 894.98 438.22 863.7 422.59"/>
        <polygon class="cls-2" points="832.43 438.22 863.7 453.86 863.7 485.14 832.43 469.5 832.43 438.22"/>
        <polygon class="cls-3" points="894.98 438.22 894.98 469.5 863.7 485.14 863.7 453.86 894.98 438.22"/>
      </g>
      <g>
        <polygon class="cls-1" points="832.43 438.22 801.15 453.86 801.15 485.14 832.43 500.78 863.7 485.14 863.7 453.86 832.43 438.22"/>
        <polygon class="cls-2" points="801.15 453.86 832.43 469.5 832.43 500.78 801.15 485.14 801.15 453.86"/>
        <polygon class="cls-3" points="863.7 453.86 863.7 485.14 832.43 500.78 832.43 469.5 863.7 453.86"/>
      </g>
      <g>
        <polygon class="cls-1" points="738.6 422.59 707.33 438.22 707.33 469.5 738.6 485.14 769.88 469.5 769.88 438.22 738.6 422.59"/>
        <polygon class="cls-2" points="707.33 438.22 738.6 453.86 738.6 485.14 707.33 469.5 707.33 438.22"/>
        <polygon class="cls-3" points="769.88 438.22 769.88 469.5 738.6 485.14 738.6 453.86 769.88 438.22"/>
      </g>
      <g>
        <polygon class="cls-1" points="738.6 391.31 707.33 406.95 707.33 438.22 738.6 453.86 769.88 438.22 769.88 406.95 738.6 391.31"/>
        <polygon class="cls-2" points="707.33 406.95 738.6 422.59 738.6 453.86 707.33 438.22 707.33 406.95"/>
        <polygon class="cls-3" points="769.88 406.95 769.88 438.22 738.6 453.86 738.6 422.59 769.88 406.95"/>
      </g>
      <g>
        <polygon class="cls-1" points="738.6 360.04 707.33 375.67 707.33 406.95 738.6 422.59 769.88 406.95 769.88 375.67 738.6 360.04"/>
        <polygon class="cls-2" points="707.33 375.67 738.6 391.31 738.6 422.59 707.33 406.95 707.33 375.67"/>
        <polygon class="cls-3" points="769.88 375.67 769.88 406.95 738.6 422.59 738.6 391.31 769.88 375.67"/>
      </g>
      <g>
        <polygon class="cls-1" points="769.88 438.22 738.6 453.86 738.6 485.14 769.88 500.78 801.15 485.14 801.15 453.86 769.88 438.22"/>
        <polygon class="cls-2" points="738.6 453.86 769.88 469.5 769.88 500.78 738.6 485.14 738.6 453.86"/>
        <polygon class="cls-3" points="801.15 453.86 801.15 485.14 769.88 500.78 769.88 469.5 801.15 453.86"/>
      </g>
      <g>
        <polygon class="cls-1" points="801.15 453.86 769.88 469.5 769.88 500.78 801.15 516.41 832.43 500.78 832.43 469.5 801.15 453.86"/>
        <polygon class="cls-2" points="769.88 469.5 801.15 485.14 801.15 516.41 769.88 500.78 769.88 469.5"/>
        <polygon class="cls-3" points="832.43 469.5 832.43 500.78 801.15 516.41 801.15 485.14 832.43 469.5"/>
      </g>
      <g>
        <polygon class="cls-1" points="863.7 391.31 832.43 406.95 832.43 438.22 863.7 453.86 894.98 438.22 894.98 406.95 863.7 391.31"/>
        <polygon class="cls-2" points="832.43 406.95 863.7 422.59 863.7 453.86 832.43 438.22 832.43 406.95"/>
        <polygon class="cls-3" points="894.98 406.95 894.98 438.22 863.7 453.86 863.7 422.59 894.98 406.95"/>
      </g>
      <g>
        <polygon class="cls-1" points="863.7 360.04 832.43 375.67 832.43 406.95 863.7 422.59 894.98 406.95 894.98 375.67 863.7 360.04"/>
        <polygon class="cls-2" points="832.43 375.67 863.7 391.31 863.7 422.59 832.43 406.95 832.43 375.67"/>
        <polygon class="cls-3" points="894.98 375.67 894.98 406.95 863.7 422.59 863.7 391.31 894.98 375.67"/>
      </g>
      <g>
        <polygon class="cls-1" points="738.6 328.76 707.33 344.4 707.33 375.67 738.6 391.31 769.88 375.67 769.88 344.4 738.6 328.76"/>
        <polygon class="cls-2" points="707.33 344.4 738.6 360.04 738.6 391.31 707.33 375.67 707.33 344.4"/>
        <polygon class="cls-3" points="769.88 344.4 769.88 375.67 738.6 391.31 738.6 360.04 769.88 344.4"/>
      </g>
      <g>
        <polygon class="cls-1" points="863.7 328.76 832.43 344.4 832.43 375.67 863.7 391.31 894.98 375.67 894.98 344.4 863.7 328.76"/>
        <polygon class="cls-2" points="832.43 344.4 863.7 360.04 863.7 391.31 832.43 375.67 832.43 344.4"/>
        <polygon class="cls-3" points="894.98 344.4 894.98 375.67 863.7 391.31 863.7 360.04 894.98 344.4"/>
      </g>
    </g>
  </g>
</svg>