<svg width="440" height="283" viewBox="0 0 217 272" fill="none" xmlns="http://www.w3.org/2000/svg">
<path d="M215.73 226.521H0.34766C0.15297 226.521 0 226.369 0 226.174C0 225.979 0.15297 225.826 0.34766 225.826H215.73C215.925 225.826 216.078 225.979 216.078 226.174C216.078 226.369 215.925 226.521 215.73 226.521Z" fill="#2F1DA9"/>
<path d="M132.82 243.494C140.483 244.843 151.956 241.93 157.101 232.133C157.101 232.133 174.463 235.352 180.964 240.053C187.473 244.753 185.088 259.063 168.045 259.744C154.709 260.279 146.609 259.181 143.716 258.68C142.958 258.548 142.291 258.11 141.873 257.463L132.827 243.487L132.82 243.494Z" fill="#DDD8FB"/>
<path d="M159.618 256.65C152.122 256.65 144.682 255.447 141.456 254.849C141.268 254.814 141.143 254.633 141.178 254.445C141.212 254.258 141.4 254.126 141.581 254.167C147.387 255.245 167.002 258.311 175.506 252.638C180.595 249.244 182.042 246.227 182.355 244.287C182.382 244.099 182.563 243.967 182.751 244.002C182.939 244.029 183.071 244.21 183.036 244.398C182.702 246.47 181.186 249.682 175.888 253.215C171.959 255.836 165.764 256.643 159.611 256.643L159.618 256.65Z" fill="#2F1DA9"/>
<path d="M146.456 255.657C146.268 255.657 146.115 255.511 146.108 255.323C145.997 252.868 143.8 250.734 143.779 250.713C143.64 250.581 143.633 250.358 143.772 250.219C143.904 250.08 144.126 250.073 144.265 250.212C144.363 250.31 146.685 252.562 146.81 255.295C146.817 255.49 146.671 255.65 146.477 255.657H146.463H146.456Z" fill="#2F1DA9"/>
<path d="M157.594 243.843C157.594 243.843 157.525 243.843 157.497 243.829C157.316 243.773 157.205 243.578 157.26 243.398C159.312 236.535 165.563 230.458 165.625 230.395C165.764 230.263 165.98 230.263 166.119 230.402C166.251 230.541 166.251 230.764 166.112 230.896C166.049 230.951 159.931 236.91 157.935 243.592C157.886 243.745 157.754 243.843 157.601 243.843H157.594Z" fill="#2F1DA9"/>
<path d="M162.99 245.094C162.99 245.094 162.92 245.094 162.892 245.08C162.712 245.024 162.6 244.83 162.656 244.649C164.707 237.786 170.958 231.709 171.021 231.646C171.16 231.514 171.375 231.521 171.514 231.653C171.646 231.792 171.646 232.015 171.507 232.147C171.445 232.203 165.319 238.162 163.33 244.844C163.282 244.997 163.15 245.094 162.997 245.094H162.99Z" fill="#2F1DA9"/>
<path d="M33.013 228.727C30.6698 242.8 35.1477 268.597 58.5939 268.165C82.0401 267.734 94.1317 259.425 105.361 237.467L111.918 251.2C112.85 253.153 114.922 254.294 117.07 254.043C121.166 253.564 128.147 252.222 135.135 248.446C146.01 242.578 143.235 237.891 143.235 237.891C143.235 237.891 152.4 234.269 154.11 230.006C155.814 225.744 132.43 175.681 132.43 175.681C132.43 175.681 128.175 164.02 114.831 161.573C101.488 159.125 33.02 228.727 33.02 228.727H33.013Z" fill="white"/>
<path d="M58.0242 268.519C50.5704 268.519 44.5211 265.883 40.0293 260.675C32.6798 252.158 31.0388 238.46 32.6728 228.663C32.6867 228.593 32.7146 228.524 32.7702 228.475C35.5237 225.68 99.1663 161.154 114.123 161.154C114.401 161.154 114.651 161.175 114.894 161.217C128.279 163.671 132.716 175.429 132.757 175.547C135.149 180.658 156.148 225.847 154.437 230.123C152.866 234.059 145.398 237.361 143.702 238.071C143.868 238.543 144.056 239.468 143.716 240.706C143.194 242.59 141.31 245.511 135.309 248.744C128.453 252.443 121.632 253.847 117.12 254.376C114.818 254.647 112.607 253.423 111.613 251.337L105.355 238.237C94.0001 260.147 81.6999 268.081 58.6083 268.505C58.4136 268.505 58.2189 268.505 58.0242 268.505V268.519ZM33.3404 228.892C31.8176 238.217 33.4238 251.956 40.5578 260.224C44.9105 265.272 50.7859 267.823 58.0242 267.823C58.212 267.823 58.3997 267.823 58.5944 267.823C81.5956 267.406 93.7498 259.424 105.056 237.313C105.118 237.195 105.209 237.139 105.369 237.125C105.501 237.125 105.619 237.201 105.675 237.32L112.231 251.052C113.101 252.874 115.027 253.938 117.029 253.701C121.486 253.18 128.21 251.789 134.968 248.146C140.726 245.038 142.527 242.312 143.027 240.567C143.465 239.03 142.958 238.112 142.937 238.071C142.888 237.98 142.874 237.876 142.909 237.779C142.944 237.681 143.013 237.605 143.111 237.57C143.201 237.535 152.157 233.947 153.791 229.873C155.147 226.487 138.605 189.711 132.118 175.819C132.062 175.673 127.751 164.29 114.769 161.905C101.92 159.569 35.9965 226.195 33.3404 228.885V228.892Z" fill="#2F1DA9"/>
<path d="M113.795 184.685C115.589 193.293 109.31 195.803 100.521 198.132C91.7326 200.462 69.1347 204.592 69.1347 204.592L47.6145 231.494C47.6145 231.494 32.0115 237.056 27.7075 230.597C23.4035 224.137 30.2176 215.891 31.2953 202.443C31.2953 202.443 24.7037 201.011 26.296 186.124C27.8883 171.237 36.3156 145.775 44.3882 138.237C52.4609 130.707 67.5563 126.375 78.4798 131.229C89.4033 136.082 111.341 156.17 111.341 156.17C111.341 156.17 118.099 133.036 121.506 126.222C124.913 119.408 141.052 126.403 140.155 135.192C139.258 143.981 132.43 175.687 132.43 175.687C132.43 175.687 127.229 168.532 121.367 166.3C115.506 164.068 105.361 171.926 105.361 171.926C105.361 171.926 109.575 172.642 113.788 184.692L113.795 184.685Z" fill="#DDD8FB"/>
<path d="M121.89 74.2386C120.972 69.9971 115.535 65.7487 110.097 67.1254C104.66 68.4952 110.097 75.4901 110.097 75.4901L121.89 74.2386Z" fill="#DDD8FB"/>
<path d="M110.096 75.8316C109.992 75.8316 109.887 75.7829 109.825 75.6995C109.693 75.5257 106.585 71.4858 107.509 68.8019C107.857 67.8006 108.698 67.1192 110.013 66.7855C112.509 66.1527 115.207 66.6256 117.606 68.1135C119.997 69.5946 121.729 71.8613 122.222 74.1698C122.243 74.2671 122.222 74.3645 122.167 74.4479C122.111 74.5313 122.021 74.58 121.923 74.587L110.131 75.8316C110.131 75.8316 110.103 75.8316 110.096 75.8316ZM112.217 67.2096C111.528 67.2096 110.847 67.2931 110.18 67.4599C109.088 67.7381 108.427 68.2456 108.163 69.0244C107.454 71.0895 109.714 74.3784 110.256 75.1224L121.451 73.9403C120.894 71.9656 119.309 69.9909 117.237 68.7046C115.645 67.7172 113.913 67.2096 112.217 67.2096Z" fill="#2F1DA9"/>
<path d="M116.272 70.9935C122.266 68.6225 126.132 67.1206 130.381 68.7476C134.629 70.3747 134.594 75.4853 134.594 75.4853L116.279 70.9935H116.272Z" fill="#DDD8FB"/>
<path d="M134.586 75.8306C134.586 75.8306 134.53 75.8306 134.502 75.8237L116.187 71.3319C116.041 71.2971 115.93 71.172 115.923 71.019C115.916 70.866 116 70.727 116.146 70.6714C122.132 68.3003 126.089 66.7358 130.504 68.4255C134.919 70.1151 134.94 75.4413 134.94 75.4899C134.94 75.5942 134.892 75.6985 134.808 75.7611C134.746 75.8098 134.669 75.8376 134.593 75.8376L134.586 75.8306ZM117.411 70.9147L134.21 75.038C134.099 73.7933 133.494 70.3167 130.247 69.0721C126.332 67.5772 122.689 68.8357 117.411 70.9147Z" fill="#2F1DA9"/>
<path d="M111.335 72.843C106.28 71.3689 95.4194 70.9935 93.9244 76.7368C92.4295 82.4802 99.2297 83.4397 102.63 82.9599C106.03 82.4802 111.335 72.843 111.335 72.843Z" fill="#DDD8FB"/>
<path d="M101.029 83.4115C98.7832 83.4115 95.9394 82.8622 94.4305 81.1656C93.3875 79.9975 93.1094 78.4817 93.5822 76.646C93.9577 75.1998 94.9172 74.0316 96.4191 73.1764C100.473 70.8749 107.635 71.4033 111.431 72.5089C111.535 72.5367 111.612 72.6132 111.654 72.7105C111.695 72.8079 111.688 72.9191 111.64 73.0095C111.417 73.4128 106.209 82.8066 102.677 83.3072C102.197 83.3767 101.634 83.4185 101.029 83.4185V83.4115ZM104.186 72.2516C101.474 72.2516 98.7276 72.6688 96.7668 73.7813C95.4318 74.5392 94.5904 75.5613 94.2567 76.8199C93.8395 78.4121 94.0759 79.7194 94.952 80.6998C96.6903 82.6467 100.466 82.9109 102.58 82.6119C105.111 82.2573 109.185 75.9229 110.819 73.0512C109.039 72.5854 106.626 72.2447 104.186 72.2447V72.2516Z" fill="#2F1DA9"/>
<path d="M121.89 73.1134C126.555 72.3624 131.499 73.169 137.618 75.2619C143.737 77.3548 139.766 85.6083 134.009 84.4749C128.252 83.3485 121.89 73.1064 121.89 73.1064V73.1134Z" fill="#DDD8FB"/>
<path d="M135.1 84.9337C134.725 84.9337 134.335 84.8989 133.939 84.8155C128.105 83.6682 121.854 73.7182 121.59 73.294C121.527 73.1967 121.52 73.0715 121.569 72.9672C121.618 72.8629 121.715 72.7865 121.833 72.7656C126.346 72.0425 131.248 72.71 137.728 74.928C140.836 75.9919 141.386 78.4603 140.857 80.4211C140.218 82.7991 137.972 84.9337 135.1 84.9337ZM122.473 73.3844C123.773 75.3591 129.211 83.1885 134.078 84.141C137.054 84.7251 139.571 82.5766 140.19 80.2472C140.767 78.1057 139.759 76.3674 137.506 75.5955C131.394 73.5026 126.721 72.8073 122.473 73.3844Z" fill="#2F1DA9"/>
<path d="M122.759 86.8452C127.007 91.6777 136.352 94.1391 138.355 90.433C140.357 86.727 135.108 82.2978 132.118 80.2675C129.128 78.2371 125.874 76.7422 125.874 76.7422L118.643 78.2371L122.759 86.8521V86.8452Z" fill="#DDD8FB"/>
<path d="M134.295 92.5762C130.373 92.5762 125.291 90.2538 122.502 87.0762C122.482 87.0553 122.461 87.0275 122.447 86.9997L118.33 78.3847C118.282 78.2873 118.282 78.1761 118.33 78.0788C118.379 77.9814 118.47 77.9119 118.574 77.891L125.805 76.3961C125.875 76.3822 125.951 76.3961 126.021 76.4239C126.055 76.4378 129.337 77.9605 132.313 79.977C134.385 81.3885 140.977 86.3183 138.662 90.6015C138.078 91.6792 136.916 92.3398 135.296 92.5275C134.969 92.5623 134.636 92.5831 134.295 92.5831V92.5762ZM123.052 86.6521C125.916 89.8853 131.472 92.2494 135.22 91.8252C136.186 91.714 137.459 91.3594 138.05 90.2608C140.087 86.4921 133.871 81.8752 131.917 80.5471C129.282 78.7602 126.396 77.3695 125.826 77.0984L119.144 78.482L123.052 86.6521Z" fill="#2F1DA9"/>
<path d="M110.098 75.4902C103.792 77.611 96.0458 84.731 99.5432 89.0976C103.041 93.4643 110.029 85.8505 112.775 84.4807C115.522 83.1109 118.644 78.2367 118.644 78.2367L110.098 75.4902Z" fill="#DDD8FB"/>
<path d="M102.225 90.7739C101.127 90.7739 100.105 90.3567 99.2701 89.3137C98.3245 88.1317 98.0811 86.7132 98.554 85.1071C99.7847 80.9212 105.445 76.6867 109.985 75.157C110.055 75.1362 110.131 75.1292 110.201 75.157L118.746 77.9035C118.85 77.9383 118.927 78.0148 118.969 78.1191C119.003 78.2234 118.989 78.3346 118.934 78.425C118.802 78.6267 115.728 83.3896 112.926 84.7872C112.287 85.1071 111.383 85.8024 110.333 86.602C108.024 88.3681 104.881 90.7739 102.225 90.7739ZM110.096 75.8523C105.723 77.3612 100.341 81.4914 99.2215 85.3017C98.8182 86.6785 99.0198 87.8814 99.8125 88.8757C102.246 91.9142 106.675 88.5211 109.915 86.0457C110.993 85.2253 111.918 84.5091 112.62 84.1614C114.811 83.0628 117.314 79.5793 118.099 78.4181L110.103 75.8454L110.096 75.8523Z" fill="#2F1DA9"/>
<path d="M125.909 121.988C126.458 116.356 128.802 110.87 131.875 107.65L147.186 122.106C147.186 122.106 141.095 134.518 130.985 130.387C127.633 129.018 125.561 125.59 125.909 121.988Z" fill="white"/>
<path d="M135.032 131.57C133.725 131.57 132.327 131.313 130.853 130.708C127.376 129.282 125.2 125.688 125.562 121.954C126.111 116.329 128.433 110.752 131.618 107.408C131.75 107.269 131.972 107.262 132.111 107.394L147.422 121.849C147.534 121.954 147.562 122.121 147.499 122.253C147.443 122.364 142.826 131.563 135.039 131.563L135.032 131.57ZM126.257 122.023C125.923 125.451 127.919 128.761 131.117 130.068C140.059 133.725 145.865 123.824 146.755 122.183L131.889 108.145C128.927 111.406 126.778 116.683 126.257 122.023Z" fill="#2F1DA9"/>
<path d="M131.874 107.65C127.904 97.9364 117.05 82.5489 117.05 82.5489L120.067 81.0957C120.067 81.0957 125.387 87.298 134.586 105.946C143.785 124.595 147.185 139.572 147.185 139.572H143.715C143.715 139.572 142.804 129.358 131.874 107.65Z" fill="white"/>
<path d="M147.185 139.912H143.715C143.535 139.912 143.389 139.773 143.368 139.592C143.361 139.488 142.325 129.169 131.561 107.795C131.561 107.788 131.554 107.781 131.547 107.767C127.64 98.1997 116.869 82.8887 116.765 82.7358C116.709 82.6523 116.688 82.548 116.709 82.4507C116.737 82.3533 116.799 82.2699 116.897 82.2212L119.915 80.768C120.054 80.6985 120.227 80.7332 120.332 80.8514C120.387 80.914 125.783 87.304 134.892 105.772C144 124.239 147.484 139.328 147.519 139.474C147.54 139.578 147.519 139.682 147.449 139.766C147.387 139.849 147.282 139.898 147.178 139.898L147.185 139.912ZM144.021 139.217H146.74C146.107 136.644 142.492 122.758 134.273 106.092C126.103 89.5221 120.944 82.7427 119.97 81.519L117.564 82.6801C119.171 84.9886 128.564 98.6586 132.187 107.503C141.977 126.937 143.764 137.325 144.021 139.217Z" fill="#2F1DA9"/>
<path d="M39.8429 88.8344C39.8429 88.8344 34.169 79.3989 23.8018 80.581C13.4346 81.763 2.95611 98.3464 8.21273 113.553C13.4624 128.76 16.9877 130.929 19.0319 127.953C21.0762 124.977 21.5837 121.619 22.6406 122.286C23.6975 122.954 26.1798 126.138 27.2576 121.946C28.3353 117.753 28.1615 108.978 31.9788 105.884C35.803 102.79 36.853 90.5727 40.26 91.3863C43.6671 92.1998 39.8359 88.8275 39.8359 88.8275L39.8429 88.8344Z" fill="white"/>
<path d="M17.2713 129.447C17.1809 129.447 17.0836 129.447 16.9862 129.426C14.4344 129.078 11.368 123.78 7.87752 113.67C5.21444 105.952 6.36868 96.9893 10.9647 89.6954C14.3649 84.2997 19.1487 80.7606 23.7586 80.2391C33.8477 79.0849 39.6398 87.8737 40.1056 88.6107C40.9748 89.3825 42.3306 90.7454 41.9482 91.4824C41.677 92.0109 40.8566 91.8927 40.1821 91.7327C38.6663 91.3712 37.4843 94.7574 36.3439 98.0323C35.2106 101.293 34.0424 104.666 32.1998 106.161C29.5646 108.295 28.8832 113.455 28.3338 117.592C28.1113 119.26 27.9028 120.832 27.5968 122.035C27.2561 123.37 26.7416 124.121 26.0254 124.35C24.9824 124.684 23.8907 123.759 23.0911 123.078C22.8478 122.876 22.6253 122.681 22.4584 122.577C22.3958 122.535 22.368 122.542 22.361 122.549C22.0829 122.633 21.6518 123.599 21.2763 124.455C20.7966 125.525 20.2055 126.867 19.3225 128.147C18.7315 129.009 18.0431 129.447 17.2783 129.447H17.2713ZM25.5526 80.8301C24.9963 80.8301 24.4261 80.8579 23.8351 80.9274C19.4337 81.4281 14.8377 84.8421 11.5488 90.064C7.06399 97.1771 5.93758 105.917 8.53112 113.441C12.9881 126.346 15.7972 128.564 17.0766 128.738C17.6885 128.828 18.2239 128.501 18.7384 127.757C19.5798 126.527 20.1638 125.226 20.6297 124.176C21.1929 122.904 21.5684 122.063 22.1524 121.889C22.3054 121.84 22.5488 121.826 22.82 121.993C23.0285 122.125 23.258 122.32 23.5292 122.549C24.2036 123.119 25.1284 123.905 25.8029 123.69C26.2618 123.544 26.6442 122.911 26.9154 121.861C27.2144 120.7 27.416 119.149 27.6385 117.501C28.2017 113.239 28.904 107.927 31.7548 105.618C33.4445 104.248 34.6334 100.828 35.6834 97.8029C37.0323 93.9091 38.2004 90.5368 40.3351 91.0513C41.1625 91.246 41.3433 91.1348 41.3433 91.1348C41.3502 90.9053 40.5367 89.9179 39.605 89.0905C39.5772 89.0697 39.5563 89.0418 39.5355 89.0071C39.4798 88.9236 34.4944 80.8232 25.5526 80.8232V80.8301Z" fill="#2F1DA9"/>
<path d="M43.2704 85.7756C39.0846 84.8508 35.2395 91.8109 36.3728 93.7856C37.5062 95.7604 41.5252 95.6282 41.5252 95.6282L43.2635 85.7756H43.2704Z" fill="#8D7FEF"/>
<path d="M41.3722 95.976C40.5587 95.976 37.1724 95.8579 36.0738 93.9527C35.3507 92.6941 36.3311 90.1423 37.6175 88.3901C39.314 86.0817 41.4 85.0039 43.3469 85.435C43.5277 85.4767 43.6459 85.6505 43.6111 85.8383L41.8728 95.691C41.845 95.8509 41.7059 95.976 41.5391 95.976C41.5182 95.976 41.4626 95.976 41.3652 95.976H41.3722ZM42.5195 86.0399C41.0523 86.0399 39.474 87.0273 38.1737 88.8004C36.8526 90.5943 36.1781 92.7567 36.6718 93.605C37.5271 95.086 40.3292 95.2599 41.2331 95.2738L42.8602 86.0538C42.742 86.0399 42.6307 86.033 42.5125 86.033L42.5195 86.0399Z" fill="#2F1DA9"/>
<path d="M81.9084 85.2059C81.9084 85.2059 85.6631 74.4284 81.2131 71.1187C76.763 67.8089 57.1898 69.6098 45.5223 80.5542C33.8548 91.5055 37.6582 111.774 40.2031 117.497C49.6803 138.815 67.4458 125.458 67.4458 125.458L81.9154 85.2059H81.9084Z" fill="white"/>
<path d="M55.4721 129.942C54.2692 129.942 53.0315 129.803 51.78 129.476C46.8015 128.183 42.7964 124.199 39.883 117.635C37.2895 111.801 33.5834 91.2752 45.2857 80.2961C56.8906 69.4074 76.6377 67.2797 81.4215 70.8328C86.0245 74.2538 82.3949 84.8644 82.242 85.3163L67.7723 125.568C67.7515 125.631 67.7098 125.687 67.6541 125.728C67.383 125.93 61.9734 129.935 55.4791 129.935L55.4721 129.942ZM74.1415 70.0332C66.3122 70.0332 54.1023 72.9674 45.7515 80.8037C34.3205 91.5255 37.9709 111.634 40.5088 117.35C43.3388 123.712 47.1839 127.564 51.9468 128.802C59.1921 130.686 66.2983 125.833 67.1396 125.235L81.5744 85.0799C81.637 84.9061 85.1832 74.4971 80.9973 71.3891C79.8361 70.5269 77.3608 70.0332 74.1345 70.0332H74.1415Z" fill="#2F1DA9"/>
<path d="M72.6251 126.417C72.6251 126.417 72.9241 130.61 73.7793 134.886C74.4051 138.029 71.9645 140.943 68.7591 140.824L64.2952 140.657C59.7964 140.491 56.3198 136.638 56.6119 132.14L57.5088 118.352L72.6251 126.417Z" fill="white"/>
<path d="M68.9485 141.171C68.8789 141.171 68.8163 141.171 68.7468 141.171L64.2829 141.004C62.0092 140.921 59.9232 139.94 58.4004 138.251C56.8777 136.561 56.1198 134.385 56.2658 132.118L57.1628 118.33C57.1697 118.211 57.2393 118.107 57.3436 118.051C57.4479 117.996 57.573 117.996 57.6773 118.051L72.7936 126.117C72.8979 126.173 72.9674 126.277 72.9744 126.402C72.9744 126.444 73.2803 130.623 74.1216 134.83C74.4415 136.443 74.0173 138.091 72.9535 139.335C71.9453 140.517 70.4921 141.185 68.9485 141.185V141.171ZM57.8164 118.914L56.9542 132.166C56.8221 134.245 57.5104 136.241 58.908 137.792C60.3056 139.342 62.2178 140.232 64.3037 140.309L68.7677 140.476C70.1931 140.552 71.5072 139.947 72.4181 138.869C73.3429 137.785 73.7114 136.352 73.4333 134.948C72.6893 131.214 72.3625 127.501 72.2929 126.632L57.8164 118.914Z" fill="#2F1DA9"/>
<path d="M79.0449 81.0879C79.0449 81.0879 96.5879 94.7231 94.488 112.92C92.3812 131.116 63.8591 132.263 56.9198 119.108C56.9198 119.108 50.5994 122.48 48.6664 117.474C47.1367 113.511 49.1253 110.222 52.3794 110.34C53.8674 110.396 55.2093 111.244 56.0785 112.447L58.7555 116.146L58.1992 105.368C58.1992 105.368 67.1828 100.008 69.9501 92.5676C69.9501 92.5676 76.9173 89.091 79.038 81.0948L79.0449 81.0879Z" fill="white"/>
<path d="M74.3717 128.314C65.9931 128.314 59.4501 124.309 56.7731 119.567C55.8623 119.991 53.1296 121.097 50.8838 120.263C49.7087 119.825 48.8534 118.928 48.3389 117.6C47.4906 115.402 47.6227 113.275 48.7074 111.759C49.5418 110.584 50.8768 109.944 52.3926 110C53.9015 110.055 55.3825 110.897 56.3629 112.246L58.3515 114.992L57.8578 105.39C57.8578 105.265 57.9135 105.139 58.0247 105.07C58.1151 105.014 66.9387 99.6812 69.6296 92.4499C69.6574 92.3664 69.72 92.2969 69.8034 92.2621C69.873 92.2273 76.6593 88.7577 78.7105 81.0118C78.7383 80.9006 78.8217 80.8102 78.933 80.7685C79.0442 80.7337 79.1624 80.7546 79.2598 80.8241C79.4336 80.9632 96.9348 94.7861 94.835 112.969C93.945 120.645 88.2016 126.208 79.4753 127.842C77.7162 128.168 76.0126 128.321 74.3786 128.321L74.3717 128.314ZM56.9192 118.754C56.9192 118.754 56.9887 118.754 57.0234 118.768C57.1138 118.796 57.1834 118.858 57.232 118.935C60.1732 124.518 68.7187 129.128 79.3432 127.139C87.7566 125.568 93.2914 120.228 94.1396 112.871C96.017 96.6148 81.8394 83.8765 79.232 81.6863C77.1112 88.8064 71.1663 92.2899 70.2345 92.7975C67.5993 99.709 59.8812 104.722 58.5601 105.543L59.1025 116.112C59.1094 116.265 59.019 116.404 58.873 116.459C58.727 116.515 58.5671 116.459 58.4767 116.334L55.7997 112.635C54.9444 111.453 53.6581 110.723 52.3648 110.674C51.0576 110.632 49.9799 111.147 49.2706 112.141C48.3389 113.442 48.2346 115.388 48.9855 117.328C49.4236 118.462 50.1398 119.227 51.1202 119.588C53.5051 120.478 56.7175 118.796 56.7523 118.782C56.8009 118.754 56.8566 118.74 56.9192 118.74V118.754Z" fill="#2F1DA9"/>
<path d="M78.439 95.2866C75.4978 95.4812 72.6678 96.406 70.0186 97.6854C69.664 97.8592 69.3442 97.3447 69.6501 97.1013C71.4441 95.5508 73.7803 94.6608 76.1305 94.48C76.9232 94.4174 77.7019 94.4383 78.5085 94.5982C78.6963 94.6329 78.8214 94.8207 78.7866 95.0084C78.7519 95.1753 78.6059 95.2935 78.439 95.2935V95.2866Z" fill="#2F1DA9"/>
<path d="M89.6201 91.059C87.3742 91.3371 85.33 92.2132 83.4596 93.5135C83.1467 93.736 82.7434 93.3049 82.9867 93.0059C84.0923 91.4692 85.921 90.5166 87.7914 90.3011C88.4172 90.2246 89.036 90.2316 89.6827 90.3637C89.8704 90.4054 89.9956 90.5862 89.9538 90.7739C89.9191 90.9408 89.78 91.0451 89.6201 91.052V91.059Z" fill="#2F1DA9"/>
<path d="M85.1553 95.084C87.3455 99.2211 89.6818 102.051 89.6818 102.051C89.6818 102.051 93.1028 99.6175 94.3752 102.162C95.891 105.201 91.2532 106.821 89.5636 104.471" fill="white"/>
<path d="M91.8736 105.94C90.9002 105.94 89.9128 105.557 89.2801 104.674C89.1688 104.521 89.2036 104.299 89.3566 104.187C89.5095 104.076 89.732 104.111 89.8433 104.264C90.6777 105.432 92.3325 105.467 93.3894 104.834C93.8344 104.563 94.794 103.784 94.0639 102.31C93.8136 101.809 93.4659 101.51 93.0001 101.392C91.6859 101.058 89.8989 102.31 89.8781 102.324C89.732 102.428 89.5235 102.4 89.4053 102.261C89.3844 102.234 87.0203 99.3549 84.8439 95.2386C84.7535 95.0718 84.8161 94.8562 84.99 94.7658C85.1568 94.6754 85.3724 94.738 85.4628 94.9118C87.2498 98.2841 89.1549 100.808 89.7529 101.573C90.3648 101.198 91.8736 100.391 93.1669 100.718C93.8344 100.885 94.342 101.316 94.6827 101.997C95.4893 103.617 94.7314 104.834 93.744 105.425C93.2086 105.752 92.5411 105.933 91.8736 105.933V105.94Z" fill="#2F1DA9"/>
<path d="M75.8599 101.663C76.3258 102.782 77.334 103.415 78.0989 103.095C78.8776 102.768 79.121 101.614 78.6482 100.495C78.5091 100.161 78.3144 99.8687 78.0919 99.6323L77.0629 100.905L77.0072 99.0065C76.7986 98.9718 76.6039 98.9926 76.4092 99.0691C75.6444 99.389 75.3871 100.55 75.853 101.663H75.8599Z" fill="#2F1DA9"/>
<path d="M88.2576 97.4634C88.6122 98.3048 89.3631 98.7846 89.9472 98.5412C90.5313 98.2978 90.712 97.4217 90.3644 96.5804C90.2601 96.3301 90.1141 96.1076 89.9472 95.9268L89.1754 96.8863L89.1337 95.4609C88.9737 95.4331 88.8277 95.447 88.6817 95.5096C88.1046 95.753 87.9169 96.6291 88.2645 97.4634H88.2576Z" fill="#2F1DA9"/>
<path d="M82.0687 114.61C79.19 114.61 76.7217 111.807 76.6174 111.682C76.4922 111.536 76.5061 111.321 76.6521 111.189C76.7981 111.063 77.0137 111.077 77.1458 111.223C77.1736 111.251 79.5516 113.998 82.1869 113.907C83.3759 113.873 84.4467 113.24 85.3645 112.037C85.4827 111.884 85.6982 111.856 85.8512 111.974C86.0042 112.093 86.032 112.308 85.9138 112.461C84.8569 113.838 83.6123 114.561 82.2008 114.603C82.1521 114.603 82.1104 114.603 82.0617 114.603L82.0687 114.61Z" fill="#2F1DA9"/>
<path d="M55.2786 114.742C55.2786 114.742 53.735 111.738 50.9746 112.809Z" fill="white"/>
<path d="M55.2782 115.089C55.153 115.089 55.0279 115.019 54.9722 114.901C54.9166 114.79 53.5329 112.196 51.1063 113.128C50.9324 113.198 50.7238 113.107 50.6543 112.927C50.5848 112.746 50.6752 112.544 50.856 112.475C53.2687 111.536 55.007 113.441 55.5911 114.574C55.6815 114.748 55.6119 114.957 55.4381 115.04C55.3894 115.068 55.3338 115.082 55.2782 115.082V115.089Z" fill="#2F1DA9"/>
<path d="M51.7806 117.705C51.7806 117.705 50.376 114.576 52.5872 112.615Z" fill="white"/>
<path d="M51.7803 118.052C51.6482 118.052 51.5231 117.976 51.4605 117.851C51.4466 117.816 49.9794 114.465 52.3505 112.358C52.4965 112.233 52.7121 112.24 52.8442 112.386C52.9693 112.532 52.9624 112.747 52.8164 112.879C50.8277 114.652 52.0446 117.454 52.1002 117.573C52.1767 117.746 52.1002 117.955 51.9263 118.032C51.8777 118.052 51.829 118.059 51.7873 118.059L51.7803 118.052Z" fill="#2F1DA9"/>
<path d="M102.886 175.832C109.443 173.225 108.678 172.328 111.014 169.832C113.351 167.335 113.921 166.292 115.339 167.064C116.758 167.836 114.832 171.528 114.832 171.528C114.832 171.528 119.407 169.192 122.974 169.213C126.548 169.234 137.36 171.765 137.36 171.765C137.36 171.765 138.097 173.433 135.747 173.67C133.397 173.906 126.798 173.906 126.798 173.906C126.798 173.906 135.17 177.73 136.262 178.516C137.353 179.302 136.143 181.749 133.543 180.581C130.949 179.413 124.49 178.224 124.49 178.224C124.49 178.224 130.449 182.055 132.041 183.314C133.633 184.572 132.868 187.131 130.4 185.845C127.932 184.558 124.086 182.897 124.086 182.897L129.023 190.1C129.023 190.1 128.147 192.283 125.526 189.773C122.904 187.263 121.166 185.803 121.166 185.803C121.166 185.803 117.808 188.529 112.697 187.576C107.586 186.617 106.613 186.373 106.613 186.373C106.613 186.373 104.437 185.247 103.31 181.52C102.177 177.793 102.886 175.839 102.886 175.839V175.832Z" fill="white"/>
<path d="M127.751 191.331C127.028 191.331 126.2 190.893 125.296 190.024C123.231 188.042 121.702 186.707 121.166 186.242C120.304 186.846 117.147 188.752 112.649 187.91C107.587 186.965 106.578 186.714 106.544 186.707C106.516 186.707 106.495 186.693 106.467 186.68C106.377 186.631 104.152 185.442 102.99 181.618C101.836 177.821 102.539 175.798 102.573 175.714C102.608 175.624 102.678 175.547 102.775 175.513C107.677 173.566 108.386 172.62 109.464 171.188C109.812 170.729 110.201 170.207 110.771 169.596C111.119 169.22 111.432 168.879 111.71 168.566C113.33 166.786 114.074 165.973 115.513 166.759C116.737 167.426 116.076 169.561 115.555 170.805C117.064 170.124 120.241 168.865 122.932 168.865H122.981C126.548 168.886 136.999 171.327 137.444 171.424C137.548 171.452 137.638 171.522 137.68 171.626C137.694 171.661 138.021 172.412 137.617 173.093C137.311 173.615 136.693 173.927 135.782 174.018C134.134 174.185 130.477 174.233 128.37 174.247C130.824 175.381 135.629 177.633 136.463 178.238C137.054 178.663 137.179 179.49 136.762 180.206C136.255 181.075 135.024 181.632 133.397 180.901C131.707 180.144 128.293 179.365 126.2 178.927C128.085 180.151 131.158 182.181 132.257 183.043C133.306 183.87 133.439 185.122 132.959 185.859C132.556 186.478 131.638 186.881 130.24 186.151C128.627 185.31 126.388 184.295 125.06 183.704L129.308 189.906C129.371 190.003 129.385 190.121 129.343 190.233C129.329 190.267 128.982 191.102 128.099 191.29C127.98 191.317 127.862 191.324 127.737 191.324L127.751 191.331ZM121.173 185.449C121.25 185.449 121.333 185.477 121.396 185.532C121.416 185.546 123.176 187.027 125.769 189.523C126.638 190.358 127.396 190.733 127.952 190.615C128.293 190.546 128.509 190.295 128.62 190.121L123.808 183.092C123.718 182.967 123.725 182.793 123.829 182.675C123.927 182.556 124.093 182.515 124.233 182.577C124.274 182.591 128.119 184.26 130.567 185.539C131.401 185.97 132.076 185.956 132.382 185.484C132.681 185.018 132.556 184.163 131.832 183.592C130.268 182.362 124.365 178.558 124.302 178.523C124.163 178.433 124.107 178.259 124.17 178.106C124.233 177.953 124.392 177.863 124.559 177.891C124.824 177.939 131.088 179.101 133.689 180.269C135.003 180.86 135.844 180.415 136.164 179.858C136.359 179.525 136.408 179.052 136.053 178.802C135.212 178.197 129.531 175.541 126.645 174.226C126.499 174.157 126.416 173.997 126.451 173.837C126.485 173.677 126.624 173.566 126.791 173.566C126.854 173.566 133.397 173.566 135.705 173.329C136.373 173.26 136.825 173.058 137.013 172.752C137.152 172.516 137.124 172.231 137.089 172.064C135.622 171.723 126.207 169.582 122.974 169.568H122.932C119.49 169.568 115.033 171.828 114.992 171.848C114.86 171.918 114.693 171.89 114.588 171.786C114.484 171.675 114.456 171.515 114.526 171.383C115.103 170.277 116.021 167.843 115.173 167.384C114.248 166.877 113.865 167.238 112.217 169.046C111.932 169.359 111.619 169.7 111.272 170.082C110.722 170.666 110.347 171.174 110.006 171.619C108.908 173.072 108.115 174.129 103.178 176.111C103.053 176.611 102.74 178.433 103.651 181.43C104.645 184.705 106.481 185.901 106.752 186.061C106.996 186.116 108.31 186.408 112.774 187.25C117.655 188.168 120.93 185.574 120.958 185.553C121.02 185.504 121.097 185.477 121.173 185.477V185.449Z" fill="#2F1DA9"/>
<path d="M126.799 174.255C126.75 174.255 126.701 174.248 126.66 174.227L123.746 172.947C123.573 172.871 123.489 172.662 123.566 172.489C123.642 172.315 123.851 172.231 124.024 172.308L126.938 173.587C127.112 173.664 127.195 173.872 127.119 174.046C127.063 174.178 126.931 174.255 126.799 174.255Z" fill="#2F1DA9"/>
<path d="M124.498 178.58C124.435 178.58 124.373 178.566 124.317 178.524L122.565 177.44C122.405 177.335 122.349 177.127 122.454 176.96C122.558 176.793 122.773 176.751 122.933 176.849L124.686 177.933C124.845 178.038 124.901 178.246 124.797 178.413C124.734 178.517 124.616 178.58 124.505 178.58H124.498Z" fill="#2F1DA9"/>
<path d="M124.094 183.245C123.989 183.245 123.892 183.203 123.823 183.112L122.397 181.318C122.279 181.166 122.3 180.95 122.453 180.832C122.606 180.714 122.821 180.734 122.94 180.887L124.365 182.681C124.483 182.834 124.462 183.05 124.309 183.168C124.247 183.217 124.17 183.245 124.094 183.245Z" fill="#2F1DA9"/>
<path d="M109.319 173.976C109.159 173.976 109.02 173.865 108.978 173.705C108.937 173.517 109.048 173.33 109.236 173.288C109.243 173.288 110.32 173.017 114.694 171.209C114.868 171.133 115.076 171.223 115.146 171.397C115.222 171.571 115.132 171.779 114.958 171.849C110.487 173.705 109.43 173.956 109.389 173.963C109.361 173.963 109.333 173.969 109.312 173.969L109.319 173.976Z" fill="#2F1DA9"/>
<path d="M134.586 105.938C139.272 102.461 140.552 100.473 141.831 101.787C143.111 103.101 140.009 108.093 136.874 111.278L134.586 105.938Z" fill="white"/>
<path d="M136.875 111.627C136.875 111.627 136.833 111.627 136.812 111.627C136.701 111.607 136.604 111.53 136.555 111.426L134.267 106.086C134.205 105.94 134.254 105.766 134.379 105.668C135.707 104.681 136.764 103.812 137.619 103.117C139.83 101.302 140.943 100.391 142.083 101.559C143.64 103.158 140.136 108.478 137.125 111.537C137.063 111.607 136.972 111.641 136.875 111.641V111.627ZM135.018 106.058L136.993 110.668C140.219 107.254 142.514 102.991 141.589 102.039C140.929 101.357 140.261 101.844 138.064 103.652C137.25 104.32 136.256 105.133 135.018 106.065V106.058Z" fill="#2F1DA9"/>
<path d="M148.569 118.74C147.936 118.302 147.164 118.253 146.49 118.475C144.898 119.004 141.254 120.339 139.314 122.028C136.783 124.233 138.563 126.499 143.785 124.594C148.263 122.96 150.467 120.061 148.569 118.747V118.74Z" fill="white"/>
<path d="M140.399 125.651C139.127 125.651 138.362 125.227 138.035 124.677C137.548 123.85 137.945 122.765 139.092 121.764C141.095 120.019 144.863 118.656 146.386 118.148C147.22 117.87 148.089 117.981 148.778 118.454C149.39 118.878 149.682 119.497 149.591 120.193C149.376 121.854 147.095 123.746 143.911 124.914C142.471 125.442 141.31 125.651 140.406 125.651H140.399ZM147.29 118.691C147.06 118.691 146.831 118.725 146.601 118.802C145.113 119.296 141.456 120.624 139.544 122.286C138.682 123.036 138.334 123.815 138.633 124.323C139.05 125.025 140.802 125.31 143.667 124.26C147.053 123.023 148.75 121.236 148.896 120.102C148.952 119.657 148.785 119.303 148.375 119.024C148.055 118.802 147.679 118.691 147.29 118.691Z" fill="#2F1DA9"/>
<path d="M148.437 114.255C147.756 113.838 146.907 113.81 146.15 114.06C144.37 114.651 140.309 116.132 138.112 117.906C135.247 120.221 137.124 122.46 142.951 120.339C147.944 118.524 150.481 115.514 148.437 114.248V114.255Z" fill="white"/>
<path d="M138.96 121.542C137.799 121.542 136.979 121.222 136.617 120.582C136.151 119.762 136.631 118.656 137.896 117.634C140.156 115.806 144.342 114.297 146.039 113.726C146.949 113.421 147.888 113.504 148.618 113.956C149.418 114.45 149.529 115.117 149.487 115.583C149.314 117.293 146.734 119.338 143.076 120.666C141.477 121.25 140.073 121.535 138.967 121.535L138.96 121.542ZM147.123 114.248C146.838 114.248 146.546 114.297 146.254 114.394C144.592 114.95 140.497 116.424 138.327 118.183C137.368 118.962 136.937 119.755 137.222 120.249C137.632 120.972 139.565 121.215 142.833 120.026C146.581 118.663 148.667 116.73 148.792 115.52C148.834 115.124 148.653 114.804 148.25 114.554C147.923 114.352 147.533 114.248 147.123 114.248Z" fill="#2F1DA9"/>
<path d="M147.88 109.918C147.17 109.507 146.267 109.501 145.46 109.772C143.562 110.404 139.216 111.983 136.852 113.818C133.758 116.217 135.712 118.428 141.935 116.169C147.268 114.236 150.028 111.148 147.887 109.918H147.88Z" fill="white"/>
<path d="M137.548 117.461C136.373 117.461 135.553 117.148 135.205 116.515C134.753 115.695 135.282 114.582 136.624 113.546C139.057 111.662 143.528 110.049 145.336 109.444C146.303 109.124 147.283 109.187 148.041 109.618C148.854 110.084 148.98 110.723 148.938 111.182C148.785 112.92 146.011 115.055 142.033 116.501C140.267 117.141 138.724 117.461 137.542 117.461H137.548ZM146.56 109.938C146.24 109.938 145.906 109.993 145.566 110.104C143.786 110.695 139.405 112.274 137.055 114.096C136.04 114.881 135.553 115.702 135.817 116.181C136.22 116.919 138.272 117.127 141.811 115.841C145.906 114.36 148.152 112.343 148.256 111.12C148.291 110.744 148.11 110.452 147.707 110.223C147.373 110.035 146.984 109.938 146.56 109.938Z" fill="#2F1DA9"/>
<path d="M147.686 105.459C146.928 105.07 145.955 105.084 145.072 105.383C143 106.078 138.251 107.788 135.636 109.714C132.222 112.224 134.266 114.401 141.074 111.946C146.907 109.84 149.981 106.648 147.693 105.466L147.686 105.459Z" fill="white"/>
<path d="M136.129 113.359C134.947 113.359 134.127 113.053 133.8 112.441C133.355 111.607 133.946 110.508 135.427 109.431C138.104 107.47 142.985 105.718 144.96 105.05C146.003 104.703 147.053 104.737 147.846 105.148C148.68 105.579 148.819 106.191 148.791 106.629C148.68 108.374 145.551 110.689 141.191 112.261C139.168 112.991 137.43 113.359 136.136 113.359H136.129ZM146.358 105.509C145.982 105.509 145.579 105.579 145.176 105.711C143.229 106.364 138.431 108.082 135.837 109.994C134.725 110.814 134.162 111.649 134.412 112.122C134.746 112.747 136.762 113.13 140.948 111.621C145.481 109.987 148.012 107.811 148.096 106.594C148.103 106.469 148.131 106.086 147.526 105.773C147.192 105.6 146.789 105.516 146.365 105.516L146.358 105.509Z" fill="#2F1DA9"/>
<path d="M113.025 78.4796C112.774 84.4732 112.899 87.8455 111.773 91.4612C110.647 95.0769 111.363 100.841 117.808 100.333C124.254 99.8259 128.502 83.3468 124.379 77.6035C120.263 71.8601 113.018 78.4796 113.018 78.4796H113.025Z" fill="#DDD8FB"/>
<path d="M117.022 100.717C114.964 100.717 113.393 100.049 112.329 98.7211C110.639 96.6074 110.799 93.4367 111.439 91.3577C112.336 88.4652 112.426 85.7395 112.558 81.6093C112.593 80.6428 112.621 79.5998 112.67 78.4664C112.67 78.3761 112.711 78.2857 112.781 78.2231C112.948 78.0701 116.855 74.5448 120.673 74.9481C122.265 75.115 123.607 75.9424 124.657 77.4096C127.445 81.2964 126.493 89.4734 124.01 94.8134C122.335 98.4221 120.137 100.508 117.829 100.689C117.551 100.71 117.28 100.724 117.015 100.724L117.022 100.717ZM113.365 78.6472C113.323 79.725 113.288 80.7123 113.261 81.6371C113.122 85.8229 113.031 88.5903 112.106 91.5732C111.515 93.4854 111.355 96.3988 112.871 98.297C113.914 99.5972 115.562 100.174 117.78 100.001C119.831 99.8406 121.82 97.8937 123.391 94.5283C125.804 89.3413 126.66 81.3937 124.101 77.8198C123.169 76.5265 121.994 75.7964 120.61 75.6504C117.44 75.3166 114.005 78.1049 113.365 78.6542V78.6472Z" fill="#2F1DA9"/>
<path d="M126.555 72.3699C131.394 76.5558 124.851 80.7416 117.265 80.2201C111.146 79.796 107.746 77.5918 107.427 74.6228C107.287 73.3573 107.997 72.1544 109.144 71.6051C112.134 70.1797 119.421 67.6418 126.555 72.3699Z" fill="#2F1DA9"/>
<path d="M118.525 80.609C118.101 80.609 117.669 80.5951 117.238 80.5673C111.231 80.1501 107.434 77.946 107.08 74.6571C106.927 73.2665 107.699 71.9106 108.999 71.2917C111.891 69.908 119.415 67.2241 126.75 72.0775C126.764 72.0844 126.771 72.0914 126.785 72.1053C128.822 73.8644 128.753 75.4428 128.336 76.458C127.334 78.8916 123.163 80.609 118.532 80.609H118.525ZM117.544 69.9915C113.922 69.9915 110.883 71.1596 109.291 71.9175C108.262 72.4112 107.643 73.482 107.768 74.5806C108.088 77.501 111.641 79.4826 117.287 79.872C122.133 80.2058 126.702 78.5856 127.689 76.1937C128.162 75.0465 127.696 73.8227 126.347 72.6476C123.329 70.652 120.27 69.9915 117.551 69.9915H117.544Z" fill="#2F1DA9"/>
<path d="M49.2289 206.108C43.7985 206.108 38.2985 205.767 34.21 204.731C34.0222 204.683 33.911 204.495 33.9597 204.307C34.0083 204.119 34.1891 204.001 34.3838 204.057C45.8914 206.977 68.8647 204.272 69.0942 204.245C69.2819 204.217 69.4558 204.356 69.4836 204.55C69.5044 204.738 69.3723 204.912 69.1776 204.94C69.0247 204.961 59.2554 206.108 49.2289 206.108Z" fill="#2F1DA9"/>
<path d="M59.1995 183.245C59.1161 183.245 59.0396 183.217 58.9701 183.161C58.8797 183.085 58.838 182.967 58.8519 182.848C58.8866 182.584 62.2729 156.558 55.0832 151.9C54.9233 151.795 54.8746 151.58 54.9789 151.42C55.0832 151.26 55.2988 151.218 55.4587 151.316C62.5093 155.884 60.0756 178.538 59.6028 182.41C62.989 181.416 82.3259 175.756 91.073 173.566L92.2968 173.26C101.322 171 105.438 169.964 107.74 173.434C107.844 173.594 107.802 173.809 107.642 173.914C107.483 174.018 107.267 173.976 107.163 173.816C105.139 170.764 101.169 171.758 92.4706 173.934L91.2468 174.24C81.7001 176.625 59.5194 183.161 59.2969 183.224C59.2621 183.231 59.2343 183.238 59.1995 183.238V183.245Z" fill="#2F1DA9"/>
<path d="M105.362 172.259C105.202 172.259 105.056 172.14 105.022 171.973C104.994 171.827 102.15 157.281 94.3763 146.434C94.265 146.281 94.2998 146.059 94.4597 145.948C94.6127 145.836 94.8352 145.871 94.9465 146.031C102.811 157.01 105.682 171.695 105.71 171.848C105.745 172.036 105.62 172.217 105.432 172.252C105.411 172.252 105.39 172.252 105.369 172.252L105.362 172.259Z" fill="#2F1DA9"/>
<path d="M115.472 159.422C115.403 159.422 115.333 159.401 115.271 159.36L111.134 156.453C110.974 156.342 110.939 156.126 111.05 155.967C111.161 155.807 111.377 155.772 111.537 155.883L115.674 158.79C115.834 158.901 115.869 159.116 115.757 159.276C115.688 159.374 115.584 159.422 115.472 159.422Z" fill="#2F1DA9"/>
<path d="M143.243 238.239C143.111 238.239 142.979 238.162 142.923 238.03L120.861 185.937C120.784 185.763 120.867 185.554 121.041 185.478C121.215 185.401 121.424 185.485 121.5 185.658L143.563 237.752C143.639 237.926 143.556 238.134 143.382 238.211C143.34 238.232 143.292 238.239 143.243 238.239Z" fill="#2F1DA9"/>
<path d="M105.361 237.813C105.236 237.813 105.111 237.743 105.048 237.625L98.1509 223.983C98.0674 223.809 98.13 223.601 98.3038 223.517C98.4777 223.434 98.6863 223.496 98.7697 223.67L105.667 237.312C105.751 237.486 105.688 237.695 105.514 237.778C105.466 237.806 105.41 237.813 105.354 237.813H105.361Z" fill="#2F1DA9"/>
<path d="M121.611 254.877C129.274 256.226 140.747 253.313 145.892 243.516C145.892 243.516 163.254 246.735 169.755 251.435C176.264 256.136 173.879 270.445 156.836 271.127C143.5 271.662 135.4 270.564 132.507 270.063C131.749 269.931 131.082 269.493 130.664 268.846L121.618 254.87L121.611 254.877Z" fill="#DDD8FB"/>
<path d="M172.127 263.145C172.078 263.145 172.029 263.138 171.981 263.117C171.807 263.041 171.73 262.832 171.807 262.658C173.636 258.591 172.69 253.995 169.547 251.728C163.602 247.431 148.222 244.33 146.073 243.912C142.937 249.718 137.931 252.555 134.26 253.925C134.086 253.995 133.877 253.897 133.815 253.723C133.745 253.543 133.842 253.341 134.016 253.278C137.618 251.936 142.555 249.127 145.579 243.37C145.649 243.238 145.802 243.161 145.948 243.189C146.657 243.321 163.456 246.478 169.95 251.172C173.357 253.633 174.4 258.584 172.433 262.95C172.377 263.082 172.245 263.152 172.113 263.152L172.127 263.145Z" fill="#2F1DA9"/>
<path d="M148.41 268.038C140.914 268.038 133.474 266.835 130.248 266.237C130.06 266.203 129.935 266.022 129.97 265.834C130.004 265.646 130.185 265.514 130.373 265.556C136.179 266.634 155.794 269.7 164.298 264.026C169.387 260.633 170.834 257.615 171.147 255.675C171.174 255.488 171.362 255.356 171.543 255.39C171.731 255.418 171.863 255.599 171.828 255.787C171.494 257.859 169.978 261.071 164.68 264.603C160.752 267.225 154.556 268.031 148.403 268.031L148.41 268.038Z" fill="#2F1DA9"/>
<path d="M135.254 267.045C135.066 267.045 134.913 266.899 134.906 266.711C134.795 264.257 132.597 262.122 132.577 262.102C132.438 261.969 132.431 261.747 132.57 261.608C132.702 261.469 132.924 261.462 133.063 261.601C133.161 261.698 135.483 263.951 135.608 266.684C135.615 266.878 135.469 267.038 135.274 267.045C135.274 267.045 135.267 267.045 135.261 267.045H135.254Z" fill="#2F1DA9"/>
<path d="M146.386 255.224C146.386 255.224 146.317 255.224 146.289 255.21C146.108 255.154 145.997 254.959 146.052 254.779C148.104 247.916 154.355 241.839 154.417 241.783C154.556 241.651 154.772 241.658 154.911 241.79C155.043 241.929 155.043 242.152 154.904 242.284C154.841 242.339 148.716 248.298 146.727 254.98C146.678 255.133 146.546 255.231 146.393 255.231L146.386 255.224Z" fill="#2F1DA9"/>
<path d="M151.782 256.483C151.782 256.483 151.712 256.483 151.684 256.47C151.504 256.414 151.392 256.219 151.448 256.038C153.499 249.176 159.75 243.099 159.813 243.043C159.952 242.911 160.167 242.918 160.306 243.05C160.438 243.189 160.438 243.411 160.299 243.544C160.237 243.599 154.111 249.558 152.122 256.24C152.074 256.393 151.942 256.49 151.789 256.49L151.782 256.483Z" fill="#2F1DA9"/>
<path d="M161.725 47.2962C169.006 47.2962 174.909 41.3939 174.909 34.113C174.909 26.832 169.006 20.9297 161.725 20.9297C154.444 20.9297 148.542 26.832 148.542 34.113C148.542 41.3939 154.444 47.2962 161.725 47.2962Z" fill="white"/>
<path d="M161.725 47.6439C154.264 47.6439 148.194 41.5738 148.194 34.113C148.194 26.6522 154.264 20.582 161.725 20.582C169.186 20.582 175.256 26.6522 175.256 34.113C175.256 41.5738 169.186 47.6439 161.725 47.6439ZM161.725 21.2774C154.647 21.2774 148.89 27.0346 148.89 34.113C148.89 41.1913 154.647 46.9486 161.725 46.9486C168.804 46.9486 174.561 41.1913 174.561 34.113C174.561 27.0346 168.804 21.2774 161.725 21.2774Z" fill="#2F1DA9"/>
<path d="M161.725 68.2247C161.53 68.2247 161.377 68.0717 161.377 67.877V53.3379C161.377 53.1432 161.53 52.9902 161.725 52.9902C161.919 52.9902 162.072 53.1432 162.072 53.3379V67.877C162.072 68.0717 161.919 68.2247 161.725 68.2247Z" fill="#2F1DA9"/>
<path d="M161.725 15.2345C161.53 15.2345 161.377 15.0815 161.377 14.8868V0.34766C161.377 0.15297 161.53 0 161.725 0C161.919 0 162.072 0.15297 162.072 0.34766V14.8868C162.072 15.0815 161.919 15.2345 161.725 15.2345Z" fill="#2F1DA9"/>
<path d="M137.854 58.3376C137.763 58.3376 137.673 58.3029 137.61 58.2333C137.471 58.0943 137.471 57.8787 137.61 57.7396L147.894 47.4559C148.033 47.3168 148.249 47.3168 148.388 47.4559C148.527 47.5949 148.527 47.8105 148.388 47.9495L138.104 58.2333C138.034 58.3029 137.944 58.3376 137.86 58.3376H137.854Z" fill="#2F1DA9"/>
<path d="M175.325 20.865C175.235 20.865 175.144 20.8302 175.082 20.7607C174.943 20.6216 174.943 20.4061 175.082 20.267L185.366 9.9832C185.505 9.84414 185.72 9.84414 185.859 9.9832C185.998 10.1223 185.998 10.3378 185.859 10.4769L175.576 20.7607C175.506 20.8302 175.416 20.865 175.332 20.865H175.325Z" fill="#2F1DA9"/>
<path d="M185.602 58.3376C185.512 58.3376 185.421 58.3029 185.359 58.2333L175.075 47.9495C174.936 47.8105 174.936 47.5949 175.075 47.4559C175.214 47.3168 175.43 47.3168 175.569 47.4559L185.852 57.7396C185.992 57.8787 185.992 58.0943 185.852 58.2333C185.783 58.3029 185.693 58.3376 185.609 58.3376H185.602Z" fill="#2F1DA9"/>
<path d="M148.131 20.865C148.041 20.865 147.951 20.8302 147.888 20.7607L137.604 10.4769C137.465 10.3378 137.465 10.1223 137.604 9.9832C137.743 9.84414 137.959 9.84414 138.098 9.9832L148.382 20.267C148.521 20.4061 148.521 20.6216 148.382 20.7607C148.312 20.8302 148.222 20.865 148.138 20.865H148.131Z" fill="#2F1DA9"/>
<path d="M142.499 34.459H127.96C127.765 34.459 127.612 34.306 127.612 34.1113C127.612 33.9166 127.765 33.7637 127.96 33.7637H142.499C142.694 33.7637 142.847 33.9166 142.847 34.1113C142.847 34.306 142.694 34.459 142.499 34.459Z" fill="#2F1DA9"/>
<path d="M195.497 34.459H180.958C180.763 34.459 180.61 34.306 180.61 34.1113C180.61 33.9166 180.763 33.7637 180.958 33.7637H195.497C195.692 33.7637 195.845 33.9166 195.845 34.1113C195.845 34.306 195.692 34.459 195.497 34.459Z" fill="#2F1DA9"/>
</svg>
