<svg width="500" height="500" viewBox="0 0 500 500" fill="none" xmlns="http://www.w3.org/2000/svg">
<path d="M382.87 292.49C384.25 307.73 382.87 319.16 382.87 319.16C382.87 319.16 402.31 323.99 413.64 317.13C413.64 317.13 409.89 299.86 410.92 289.7C411.95 279.54 382.87 292.49 382.87 292.49Z" fill="white"/>
<path d="M397.29 321.34C389.7 321.34 383.22 319.77 382.75 319.65C382.5 319.59 382.34 319.36 382.37 319.1C382.38 318.99 383.73 307.54 382.37 292.54C382.35 292.33 382.47 292.12 382.66 292.04C383.55 291.64 404.59 282.35 410.07 286.31C411.12 287.07 411.57 288.23 411.42 289.75C410.41 299.71 414.09 316.85 414.13 317.03C414.18 317.24 414.08 317.45 413.9 317.56C409.07 320.48 402.88 321.34 397.28 321.34H397.29ZM383.42 318.77C386.29 319.41 402.95 322.75 413.08 316.88C412.56 314.36 409.48 298.96 410.43 289.64C410.55 288.48 410.24 287.65 409.49 287.11C405.4 284.15 389.59 290.08 383.4 292.79C384.57 306.07 383.65 316.51 383.41 318.76L383.42 318.77Z" fill="#2F1DA9"/>
<path d="M371.91 290.42C366.48 290.53 361.09 289.74 355.73 288.95C354.42 288.76 353.11 288.56 351.8 288.37C345.66 287.46 338.86 286.2 335.23 281.57C334.65 280.84 334.18 280.03 333.56 279.32C332.43 278.01 330.88 277.06 329.47 276C318.99 268.17 315.97 253.12 322.73 242.38C323.41 241.29 324.2 240.22 324.44 238.98C324.66 237.87 324.41 236.72 324.19 235.61C323.41 231.72 322.98 227.35 325.5 224.15C326.51 222.87 327.93 221.87 328.79 220.5C329.64 219.15 329.87 217.56 330.18 216.03C331.2 211.04 333.45 205.95 337.95 202.99C340.99 200.99 344.77 200.15 347.97 198.36C352.64 195.75 356.14 191.1 361.5 190.11C364.11 189.63 366.86 190.11 369.43 189.47C372.47 188.71 374.78 186.5 377.49 185.03C382.2 182.49 388.32 182.31 393.19 184.58C393.95 184.94 394.71 185.35 395.56 185.46C396.64 185.6 397.7 185.22 398.74 184.93C403.53 183.6 408.91 184.2 413.21 186.55C414.62 187.32 415.92 188.27 417.45 188.8C419.08 189.37 420.87 189.42 422.58 189.74C425.06 190.21 427.41 191.25 429.34 192.75C430.44 193.61 431.45 194.63 432.8 195.12C434.13 195.6 435.61 195.49 437.04 195.55C444.34 195.9 450.82 201.8 451.25 208.49C451.3 209.31 451.29 210.18 451.78 210.86C452.35 211.66 453.43 211.97 454.26 212.55C456.41 214.04 456.53 216.88 457.41 219.22C458.32 221.64 460.16 223.66 461.44 225.94C463.49 229.59 464.03 233.77 464.32 237.87C464.68 242.79 464.73 247.74 464.09 252.64C462.84 262.25 458.81 271.68 451.81 278.93C447.76 283.12 442.35 286.68 436.25 286.89C435.17 286.93 434.08 286.86 433 286.98C431.95 287.1 430.93 287.39 429.91 287.66C423.26 289.45 416.35 290.4 409.42 290.5L371.45 292.95" fill="white"/>
<path d="M371.91 289.92C367.26 290 362.64 289.45 358.05 288.78C354.1 288.21 350.1 287.74 346.21 286.86C342.91 286.11 339.49 284.98 336.94 282.66C335.51 281.36 334.66 279.6 333.26 278.28C331.86 276.96 330.19 276 328.72 274.77C323.76 270.61 320.53 264.54 319.79 258.11C319.43 254.94 319.64 251.71 320.5 248.64C320.92 247.14 321.48 245.69 322.19 244.31C323.01 242.72 324.27 241.29 324.8 239.56C325.38 237.65 324.64 235.62 324.35 233.72C324.06 231.82 323.92 229.89 324.3 228.02C324.7 226.03 325.7 224.52 327.13 223.12C328.46 221.8 329.57 220.53 330.1 218.69C330.63 216.85 330.85 215.04 331.4 213.26C331.95 211.48 332.66 209.82 333.62 208.26C334.58 206.7 335.78 205.28 337.22 204.13C338.82 202.86 340.7 202.02 342.58 201.26C344.33 200.56 346.12 199.91 347.8 199.03C349.36 198.21 350.77 197.16 352.16 196.08C354.93 193.92 357.7 191.47 361.22 190.69C363.32 190.22 365.49 190.47 367.61 190.27C369.58 190.09 371.36 189.45 373.05 188.44C374.74 187.43 376.23 186.26 377.94 185.36C379.65 184.46 381.61 183.88 383.55 183.63C385.49 183.38 387.47 183.45 389.38 183.85C390.28 184.04 391.16 184.29 392.01 184.62C392.86 184.95 393.67 185.42 394.53 185.72C396.47 186.4 398.35 185.46 400.25 185.08C402.15 184.7 404.27 184.63 406.27 184.87C408.27 185.11 410.29 185.67 412.12 186.55C413.95 187.43 415.45 188.63 417.32 189.28C419.28 189.96 421.4 189.93 423.4 190.43C425.4 190.93 427.27 191.81 428.9 193.04C430.53 194.27 431.82 195.58 433.88 195.89C435.78 196.17 437.68 195.97 439.57 196.41C442.84 197.18 445.82 199.05 447.94 201.65C448.98 202.93 449.81 204.42 450.29 206C450.52 206.75 450.68 207.52 450.74 208.3C450.81 209.18 450.78 210.13 451.23 210.92C451.62 211.6 452.28 212.01 452.95 212.37C453.78 212.82 454.52 213.26 455.06 214.06C456 215.46 456.23 217.21 456.74 218.79C457.31 220.54 458.3 222.07 459.34 223.58C460.52 225.3 461.6 227.03 462.29 229.01C463.7 233.07 463.91 237.51 464.05 241.77C464.34 250.15 463.26 258.51 459.79 266.2C456.67 273.12 451.71 279.83 445.06 283.68C443.4 284.64 441.62 285.41 439.75 285.88C437.68 286.4 435.66 286.29 433.56 286.42C431.46 286.55 429.45 287.29 427.42 287.77C425.21 288.29 422.98 288.73 420.73 289.07C416.27 289.75 411.8 289.84 407.31 290.13C403.72 290.36 400.14 290.59 396.55 290.82C388.68 291.33 380.81 291.83 372.94 292.34C372.45 292.37 371.95 292.4 371.46 292.44C370.82 292.48 370.82 293.48 371.46 293.44C373.46 293.31 375.45 293.18 377.45 293.05C381.83 292.77 386.21 292.49 390.59 292.2C394.97 291.91 399.3 291.64 403.66 291.36C405.76 291.22 407.87 291.02 409.98 290.98C414.58 290.89 419.17 290.42 423.69 289.58C425.96 289.16 428.21 288.63 430.44 288.03C431.56 287.73 432.67 287.46 433.83 287.41C434.91 287.36 435.99 287.42 437.08 287.34C444.82 286.7 451.19 281.16 455.67 275.2C460.42 268.88 463.39 261.27 464.51 253.46C465.17 248.9 465.22 244.28 464.97 239.68C464.74 235.52 464.39 231.24 462.73 227.36C461.93 225.49 460.74 223.87 459.62 222.18C458.5 220.49 457.81 218.88 457.29 216.97C456.87 215.42 456.39 213.78 455.19 212.64C454.58 212.06 453.83 211.73 453.12 211.31C452.73 211.08 452.35 210.82 452.12 210.42C451.83 209.91 451.83 209.29 451.79 208.71C451.38 201.96 445.64 196.49 439.16 195.29C438.3 195.13 437.44 195.05 436.56 195.03C435.44 195 434.28 195.05 433.2 194.71C431.3 194.11 429.93 192.39 428.25 191.37C426.57 190.35 424.6 189.59 422.61 189.23C420.4 188.83 418.21 188.75 416.19 187.68C414.42 186.74 412.8 185.65 410.91 184.96C409.02 184.27 407.16 183.9 405.23 183.78C403.3 183.66 401.24 183.82 399.31 184.28C398.25 184.53 397.17 185.01 396.07 185C394.97 184.99 394.1 184.44 393.15 184.02C389.69 182.5 385.78 182.14 382.08 182.88C380.21 183.25 378.4 183.94 376.75 184.89C375.1 185.84 373.5 187.11 371.76 188.03C369.73 189.11 367.63 189.33 365.36 189.37C363.31 189.4 361.29 189.48 359.35 190.21C356.03 191.46 353.42 193.92 350.63 196.01C349.11 197.15 347.52 198.13 345.79 198.9C343.91 199.73 341.97 200.39 340.1 201.25C336.69 202.84 334.01 205.37 332.23 208.69C331.37 210.28 330.72 211.98 330.23 213.72C329.71 215.56 329.57 217.55 328.84 219.32C328.06 221.21 326.29 222.33 325.07 223.9C323.96 225.34 323.38 227.07 323.17 228.87C322.96 230.67 323.15 232.61 323.46 234.44C323.64 235.48 323.92 236.51 324 237.56C324.1 238.76 323.74 239.78 323.14 240.8C322.24 242.32 321.3 243.75 320.6 245.38C319.98 246.82 319.5 248.32 319.18 249.86C317.85 256.14 318.98 262.85 322.15 268.42C323.79 271.3 325.97 273.87 328.57 275.93C330.13 277.16 331.91 278.16 333.22 279.68C333.89 280.46 334.42 281.36 335.08 282.16C335.61 282.8 336.21 283.37 336.85 283.89C339.58 286.08 343 287.19 346.38 287.92C350.41 288.8 354.54 289.29 358.62 289.87C363.03 290.49 367.47 291 371.93 290.93C372.57 290.92 372.57 289.92 371.93 289.93L371.91 289.92Z" fill="#2F1DA9"/>
<path d="M439.09 252.62C439.09 252.62 443.3 243.95 451.71 247.85C460.12 251.76 455.55 279.19 438.43 271.48C438.43 271.48 435.17 300.63 401.46 302.17C367.03 303.74 356.74 272.6 356.74 272.6C356.74 272.6 347.11 278.11 342.09 272.52C337.08 266.93 337.83 249.99 354.62 257.32L356.31 261.79C356.31 261.79 360.76 255.81 361.44 245.93C361.44 245.93 365.82 242.76 369.86 232.83C369.86 232.83 379.75 233.7 392.58 218.59C392.58 218.59 403.69 235.01 433.34 238.45C433.34 238.45 437.16 255.31 439.08 252.61L439.09 252.62Z" fill="white"/>
<path d="M398.99 302.73C369.02 302.73 358.05 277.41 356.47 273.31C354.34 274.4 346.32 277.98 341.72 272.85C338.73 269.52 337.63 262.36 340.69 258.13C342.22 256.02 346.08 253.05 354.82 256.86C354.94 256.91 355.04 257.02 355.09 257.14L356.44 260.69C357.62 258.77 360.43 253.47 360.95 245.89C360.96 245.74 361.04 245.61 361.15 245.52C361.19 245.49 365.47 242.28 369.4 232.64C369.48 232.44 369.69 232.32 369.91 232.33C370.01 232.33 379.73 232.96 392.2 218.26C392.3 218.14 392.46 218.07 392.61 218.08C392.77 218.08 392.91 218.17 393 218.3C393.11 218.46 404.35 234.58 433.41 237.94C433.62 237.96 433.79 238.12 433.84 238.33C435.32 244.89 437.59 252.07 438.63 252.39C438.63 252.39 438.65 252.37 438.67 252.34C439.03 251.64 443.5 243.47 451.93 247.39C456.11 249.33 458.13 257.81 454.46 265.83C451.37 272.59 445.56 274.94 438.83 272.19C438.07 276.57 432.39 301.26 401.48 302.67C400.64 302.71 399.8 302.73 398.99 302.73ZM356.74 272.1C356.8 272.1 356.86 272.11 356.92 272.13C357.06 272.18 357.17 272.3 357.22 272.44C357.32 272.75 367.8 303.19 401.44 301.67C418.65 300.88 427.65 292.7 432.18 285.97C437.08 278.68 437.93 271.5 437.94 271.42C437.96 271.26 438.05 271.12 438.19 271.04C438.33 270.96 438.5 270.95 438.64 271.02C447.88 275.18 452.14 268.49 453.55 265.42C456.63 258.69 455.62 250.21 451.51 248.3C448.21 246.77 445.2 247.05 442.57 249.16C440.58 250.75 439.56 252.82 439.55 252.84C439.54 252.86 439.52 252.89 439.51 252.91C439.13 253.44 438.69 253.44 438.46 253.39C436.36 252.97 433.8 242.63 432.95 238.91C417.72 237.08 407.49 231.79 401.57 227.65C396.36 224 393.53 220.66 392.56 219.4C381.14 232.63 372.1 233.35 370.21 233.35C366.62 242.01 362.83 245.46 361.94 246.19C361.21 255.97 356.91 261.84 356.73 262.09C356.62 262.24 356.44 262.31 356.26 262.29C356.08 262.26 355.93 262.14 355.86 261.97L354.24 257.7C348.25 255.13 343.85 255.48 341.51 258.72C338.76 262.52 339.79 269.2 342.47 272.19C347.15 277.41 356.4 272.22 356.5 272.17C356.58 272.13 356.66 272.1 356.75 272.1H356.74Z" fill="#2F1DA9"/>
<path d="M352.43 261.64C347.9 258.32 343.77 260.24 342.82 264.48L352.43 261.64Z" fill="white"/>
<path d="M342.82 264.98C342.82 264.98 342.75 264.98 342.71 264.97C342.44 264.91 342.27 264.64 342.33 264.37C342.83 262.15 344.16 260.49 345.99 259.8C348.02 259.03 350.42 259.55 352.73 261.24C352.95 261.4 353 261.72 352.84 261.94C352.68 262.16 352.36 262.21 352.14 262.05C350.11 260.57 348.05 260.1 346.34 260.74C344.83 261.31 343.73 262.71 343.31 264.59C343.26 264.82 343.05 264.98 342.82 264.98Z" fill="#2F1DA9"/>
<path d="M348.56 269.62C344.2 267.62 345.5 260.59 345.5 260.59L348.56 269.62Z" fill="white"/>
<path d="M348.56 270.12C348.49 270.12 348.42 270.11 348.35 270.08C343.69 267.95 344.95 260.81 345 260.51C345.05 260.24 345.31 260.05 345.58 260.11C345.85 260.16 346.03 260.42 345.98 260.69C345.97 260.76 344.81 267.37 348.76 269.17C349.01 269.29 349.12 269.58 349.01 269.83C348.93 270.01 348.74 270.12 348.56 270.12Z" fill="#2F1DA9"/>
<path d="M441.9 256.52C444.38 250.91 450.91 251.61 452.93 254.5L441.9 256.52Z" fill="white"/>
<path d="M441.9 257.02C441.83 257.02 441.76 257.01 441.7 256.98C441.45 256.87 441.33 256.57 441.44 256.32C442.59 253.72 444.76 252.09 447.4 251.84C449.8 251.6 452.19 252.57 453.34 254.22C453.5 254.45 453.44 254.76 453.22 254.92C452.99 255.08 452.68 255.02 452.52 254.8C451.58 253.45 449.52 252.65 447.5 252.84C446.17 252.97 443.73 253.64 442.36 256.73C442.28 256.92 442.09 257.03 441.9 257.03V257.02Z" fill="#2F1DA9"/>
<path d="M445.75 267.17C450.55 265.95 451.74 256.93 448.94 252.36L445.75 267.17Z" fill="white"/>
<path d="M445.75 267.67C445.53 267.67 445.32 267.52 445.27 267.29C445.2 267.02 445.36 266.75 445.63 266.68C447.48 266.21 448.52 264.51 449.06 263.17C450.41 259.86 450.17 255.32 448.51 252.61C448.37 252.37 448.44 252.07 448.68 251.92C448.92 251.78 449.22 251.85 449.37 252.09C451.18 255.05 451.45 259.97 449.99 263.55C449.08 265.78 447.66 267.2 445.88 267.65C445.84 267.66 445.8 267.67 445.76 267.67H445.75Z" fill="#2F1DA9"/>
<path d="M379.48 280.15C379.26 280.15 379.07 280.01 379 279.79L372.25 257.39C372.2 257.22 372.25 257.04 372.36 256.91L395.26 231.54C395.44 231.33 395.76 231.32 395.97 231.5L422.82 255.71C422.95 255.83 423.01 256.01 422.97 256.19L418.19 278.26C418.14 278.48 417.95 278.65 417.72 278.65L379.5 280.13H379.48V280.15ZM373.29 257.37L379.85 279.13L417.29 277.68L421.92 256.27L395.66 232.58L373.29 257.37Z" fill="#2F1DA9"/>
<path d="M399.42 293.17C399.33 293.17 399.23 293.14 399.15 293.09L379.22 280.08C379.04 279.96 378.95 279.74 379.01 279.53C379.07 279.32 379.26 279.17 379.47 279.16L417.69 277.68C417.9 277.68 418.1 277.8 418.18 278.01C418.25 278.21 418.19 278.44 418.02 278.58L399.73 293.08C399.64 293.15 399.53 293.19 399.42 293.19V293.17ZM381.07 280.09L399.39 292.05L416.19 278.73L381.07 280.09Z" fill="#2F1DA9"/>
<path d="M372.73 257.75C372.46 257.75 372.24 257.53 372.23 257.26C372.23 256.98 372.44 256.76 372.72 256.75L422.47 255.6C422.74 255.57 422.98 255.81 422.98 256.09C422.98 256.37 422.77 256.59 422.49 256.6L372.74 257.75H372.73Z" fill="#2F1DA9"/>
<path d="M379.48 280.15C379.38 280.15 379.29 280.12 379.2 280.06C378.97 279.9 378.91 279.59 379.07 279.37L395.05 255.81C395.13 255.69 395.27 255.61 395.42 255.59C395.57 255.58 395.71 255.63 395.82 255.73L418.06 277.8C418.26 277.99 418.26 278.31 418.06 278.51C417.86 278.71 417.55 278.71 417.35 278.51L395.54 256.86L379.9 279.92C379.8 280.06 379.65 280.14 379.49 280.14L379.48 280.15Z" fill="#2F1DA9"/>
<path d="M395.46 258.23C396.642 258.23 397.6 257.272 397.6 256.09C397.6 254.908 396.642 253.95 395.46 253.95C394.278 253.95 393.32 254.908 393.32 256.09C393.32 257.272 394.278 258.23 395.46 258.23Z" fill="#2F1DA9"/>
<path d="M395.46 258.74C394 258.74 392.82 257.56 392.82 256.1C392.82 254.64 394.01 253.46 395.46 253.46C396.91 253.46 398.1 254.64 398.1 256.1C398.1 257.56 396.91 258.74 395.46 258.74ZM395.46 254.45C394.55 254.45 393.82 255.19 393.82 256.09C393.82 256.99 394.56 257.73 395.46 257.73C396.36 257.73 397.1 256.99 397.1 256.09C397.1 255.19 396.36 254.45 395.46 254.45Z" fill="#2F1DA9"/>
<path d="M395.46 234.65C396.642 234.65 397.6 233.692 397.6 232.51C397.6 231.328 396.642 230.37 395.46 230.37C394.278 230.37 393.32 231.328 393.32 232.51C393.32 233.692 394.278 234.65 395.46 234.65Z" fill="#2F1DA9"/>
<path d="M395.46 235.15C394 235.15 392.82 233.97 392.82 232.51C392.82 231.05 394.01 229.87 395.46 229.87C396.91 229.87 398.1 231.05 398.1 232.51C398.1 233.97 396.91 235.15 395.46 235.15ZM395.46 230.87C394.55 230.87 393.82 231.61 393.82 232.51C393.82 233.41 394.56 234.15 395.46 234.15C396.36 234.15 397.1 233.41 397.1 232.51C397.1 231.61 396.36 230.87 395.46 230.87Z" fill="#2F1DA9"/>
<path d="M421.87 258.81C423.052 258.81 424.01 257.852 424.01 256.67C424.01 255.488 423.052 254.53 421.87 254.53C420.688 254.53 419.73 255.488 419.73 256.67C419.73 257.852 420.688 258.81 421.87 258.81Z" fill="#2F1DA9"/>
<path d="M421.87 259.31C420.41 259.31 419.23 258.13 419.23 256.67C419.23 255.21 420.41 254.03 421.87 254.03C423.33 254.03 424.51 255.21 424.51 256.67C424.51 258.13 423.32 259.31 421.87 259.31ZM421.87 255.03C420.96 255.03 420.23 255.77 420.23 256.67C420.23 257.57 420.97 258.31 421.87 258.31C422.77 258.31 423.51 257.57 423.51 256.67C423.51 255.77 422.77 255.03 421.87 255.03Z" fill="#2F1DA9"/>
<path d="M373.33 259.39C374.512 259.39 375.47 258.432 375.47 257.25C375.47 256.068 374.512 255.11 373.33 255.11C372.148 255.11 371.19 256.068 371.19 257.25C371.19 258.432 372.148 259.39 373.33 259.39Z" fill="#2F1DA9"/>
<path d="M373.33 259.89C371.87 259.89 370.69 258.71 370.69 257.25C370.69 255.79 371.88 254.61 373.33 254.61C374.78 254.61 375.97 255.79 375.97 257.25C375.97 258.71 374.78 259.89 373.33 259.89ZM373.33 255.61C372.42 255.61 371.69 256.35 371.69 257.25C371.69 258.15 372.43 258.89 373.33 258.89C374.23 258.89 374.97 258.15 374.97 257.25C374.97 256.35 374.23 255.61 373.33 255.61Z" fill="#2F1DA9"/>
<path d="M379.48 281.79C380.662 281.79 381.62 280.832 381.62 279.65C381.62 278.468 380.662 277.51 379.48 277.51C378.298 277.51 377.34 278.468 377.34 279.65C377.34 280.832 378.298 281.79 379.48 281.79Z" fill="#2F1DA9"/>
<path d="M379.48 282.29C378.02 282.29 376.84 281.11 376.84 279.65C376.84 278.19 378.03 277.01 379.48 277.01C380.93 277.01 382.12 278.19 382.12 279.65C382.12 281.11 380.94 282.29 379.48 282.29ZM379.48 278.01C378.57 278.01 377.84 278.75 377.84 279.65C377.84 280.55 378.58 281.29 379.48 281.29C380.38 281.29 381.12 280.55 381.12 279.65C381.12 278.75 380.38 278.01 379.48 278.01Z" fill="#2F1DA9"/>
<path d="M417.7 280.31C418.882 280.31 419.84 279.352 419.84 278.17C419.84 276.988 418.882 276.03 417.7 276.03C416.518 276.03 415.56 276.988 415.56 278.17C415.56 279.352 416.518 280.31 417.7 280.31Z" fill="#2F1DA9"/>
<path d="M417.7 280.81C416.24 280.81 415.06 279.63 415.06 278.17C415.06 276.71 416.24 275.53 417.7 275.53C419.16 275.53 420.34 276.71 420.34 278.17C420.34 279.63 419.15 280.81 417.7 280.81ZM417.7 276.53C416.79 276.53 416.06 277.27 416.06 278.17C416.06 279.07 416.8 279.81 417.7 279.81C418.6 279.81 419.34 279.07 419.34 278.17C419.34 277.27 418.6 276.53 417.7 276.53Z" fill="#2F1DA9"/>
<path d="M399.46 294.81C400.642 294.81 401.6 293.852 401.6 292.67C401.6 291.488 400.642 290.53 399.46 290.53C398.278 290.53 397.32 291.488 397.32 292.67C397.32 293.852 398.278 294.81 399.46 294.81Z" fill="#2F1DA9"/>
<path d="M399.46 295.31C398 295.31 396.82 294.13 396.82 292.67C396.82 291.21 398.01 290.03 399.46 290.03C400.91 290.03 402.1 291.21 402.1 292.67C402.1 294.13 400.91 295.31 399.46 295.31ZM399.46 291.02C398.55 291.02 397.82 291.76 397.82 292.66C397.82 293.56 398.56 294.3 399.46 294.3C400.36 294.3 401.1 293.56 401.1 292.66C401.1 291.76 400.36 291.02 399.46 291.02Z" fill="#2F1DA9"/>
<path d="M287.58 389.74V131.99C287.58 124.78 281.73 118.93 274.52 118.93H70.11C62.9 118.93 57.05 124.78 57.05 131.99V389.74" fill="white"/>
<path d="M287.58 390.24C287.3 390.24 287.08 390.02 287.08 389.74V131.99C287.08 125.07 281.45 119.43 274.52 119.43H70.11C63.19 119.43 57.55 125.06 57.55 131.99V389.74C57.55 390.02 57.33 390.24 57.05 390.24C56.77 390.24 56.55 390.02 56.55 389.74V131.99C56.55 124.51 62.63 118.43 70.11 118.43H274.52C282 118.43 288.08 124.51 288.08 131.99V389.74C288.08 390.02 287.86 390.24 287.58 390.24Z" fill="#2F1DA9"/>
<path d="M86.84 389.74C86.84 389.74 92.95 333.34 107.05 306.55C121.15 279.76 175.94 277.88 175.94 277.88C175.94 277.88 229.73 274.59 245.71 308.9C261.69 343.21 273.44 389.74 273.44 389.74" fill="#DDD8FB"/>
<path d="M273.44 390.24C273.22 390.24 273.01 390.09 272.96 389.86C272.84 389.4 261.04 342.98 245.26 309.11C229.61 275.5 176.51 278.34 175.98 278.38C175.42 278.4 121.31 280.56 107.51 306.78C93.61 333.18 87.42 389.23 87.35 389.79C87.32 390.06 87.07 390.26 86.8 390.23C86.53 390.2 86.33 389.95 86.36 389.68C86.42 389.11 92.64 332.88 106.63 306.31C120.7 279.57 175.39 277.39 175.94 277.37C176.06 277.37 189.62 276.58 204.96 280.03C219.16 283.22 237.84 290.78 246.18 308.68C262 342.64 273.82 389.14 273.94 389.61C274.01 389.88 273.85 390.15 273.58 390.22C273.54 390.23 273.5 390.24 273.46 390.24H273.44Z" fill="#2F1DA9"/>
<path d="M163.72 264.55C164.86 277.12 163.72 286.55 163.72 286.55C163.72 286.55 179.76 290.53 189.11 284.87C189.11 284.87 186.02 270.62 186.87 262.24C187.72 253.86 163.72 264.55 163.72 264.55Z" fill="white"/>
<path d="M175.61 288.43C169.34 288.43 163.98 287.13 163.6 287.04C163.35 286.98 163.19 286.75 163.22 286.49C163.23 286.4 164.34 276.96 163.22 264.59C163.2 264.38 163.32 264.17 163.51 264.09C164.25 263.76 181.64 256.07 186.21 259.38C187.1 260.02 187.49 261.01 187.36 262.3C186.53 270.51 189.56 284.63 189.59 284.77C189.64 284.98 189.54 285.19 189.36 285.3C185.36 287.72 180.23 288.43 175.6 288.43H175.61ZM164.26 286.17C166.81 286.73 180.28 289.37 188.54 284.63C188.06 282.33 185.58 269.92 186.36 262.2C186.45 261.28 186.21 260.62 185.62 260.19C182.29 257.78 169.37 262.62 164.24 264.86C165.19 275.64 164.46 284.16 164.25 286.16L164.26 286.17Z" fill="#2F1DA9"/>
<path d="M154.68 262.84C150.2 262.93 145.75 262.28 141.33 261.62C140.25 261.46 139.17 261.3 138.09 261.14C133.02 260.39 127.42 259.35 124.42 255.53C123.94 254.92 123.55 254.26 123.05 253.68C122.12 252.6 120.84 251.81 119.67 250.94C111.02 244.48 108.53 232.06 114.11 223.2C114.67 222.3 115.32 221.41 115.52 220.4C115.7 219.48 115.5 218.54 115.31 217.62C114.66 214.41 114.31 210.81 116.39 208.16C117.22 207.1 118.39 206.28 119.1 205.15C119.8 204.04 119.99 202.73 120.25 201.46C121.09 197.34 122.95 193.14 126.66 190.7C129.17 189.05 132.29 188.36 134.93 186.88C138.78 184.72 141.67 180.89 146.1 180.08C148.25 179.69 150.52 180.08 152.64 179.55C155.15 178.92 157.05 177.1 159.29 175.89C163.17 173.79 168.23 173.64 172.25 175.52C172.88 175.81 173.5 176.16 174.2 176.25C175.09 176.36 175.96 176.05 176.82 175.81C180.77 174.71 185.21 175.21 188.76 177.14C189.92 177.77 191 178.56 192.26 179C193.61 179.47 195.08 179.51 196.49 179.78C198.54 180.16 200.47 181.03 202.06 182.26C202.97 182.97 203.8 183.81 204.92 184.21C206.02 184.6 207.24 184.51 208.41 184.57C214.43 184.86 219.78 189.73 220.14 195.25C220.18 195.92 220.17 196.64 220.58 197.21C221.05 197.87 221.94 198.13 222.63 198.6C224.41 199.83 224.51 202.18 225.23 204.1C225.98 206.1 227.5 207.76 228.56 209.64C230.25 212.65 230.69 216.1 230.94 219.48C231.23 223.54 231.28 227.63 230.75 231.67C229.72 239.6 226.39 247.38 220.62 253.36C217.28 256.82 212.81 259.75 207.78 259.92C206.89 259.95 205.99 259.89 205.1 259.99C204.23 260.09 203.39 260.33 202.55 260.55C197.06 262.02 191.36 262.81 185.64 262.89L154.31 264.91" fill="white"/>
<path d="M154.68 262.34C150.81 262.41 146.97 261.94 143.16 261.39C139.95 260.92 136.7 260.54 133.53 259.83C130.8 259.21 127.96 258.28 125.85 256.35C124.63 255.23 123.91 253.71 122.68 252.61C121.54 251.59 120.22 250.81 119.05 249.83C114.98 246.39 112.33 241.37 111.76 236.07C111.48 233.47 111.67 230.82 112.39 228.3C112.75 227.04 113.24 225.82 113.85 224.66C114.54 223.37 115.59 222.19 115.95 220.75C116.35 219.16 115.74 217.51 115.51 215.94C115.28 214.37 115.18 212.75 115.53 211.2C115.9 209.54 116.81 208.37 118 207.2C119.19 206.03 119.98 204.9 120.38 203.31C120.75 201.84 120.98 200.35 121.45 198.9C121.92 197.45 122.51 196.16 123.29 194.92C124.07 193.68 125.09 192.52 126.28 191.61C127.61 190.6 129.15 189.93 130.68 189.32C132.21 188.71 133.75 188.15 135.18 187.35C136.42 186.66 137.55 185.8 138.66 184.92C140.9 183.16 143.17 181.21 146.04 180.63C147.77 180.28 149.55 180.49 151.3 180.31C152.9 180.15 154.34 179.6 155.71 178.77C157.08 177.94 158.31 176.99 159.71 176.26C161.11 175.53 162.7 175.06 164.28 174.85C165.86 174.64 167.47 174.7 169.03 175.02C169.76 175.17 170.48 175.37 171.17 175.64C171.94 175.93 172.66 176.37 173.44 176.62C175.04 177.13 176.6 176.33 178.16 176.03C179.85 175.7 181.61 175.67 183.32 175.91C184.92 176.14 186.5 176.6 187.95 177.31C189.4 178.02 190.75 179.07 192.33 179.57C193.91 180.07 195.73 180.06 197.4 180.52C199.07 180.98 200.55 181.72 201.87 182.76C203.11 183.75 204.21 184.73 205.85 184.96C207.49 185.19 209.03 185.02 210.61 185.41C213.27 186.07 215.71 187.62 217.42 189.77C218.24 190.81 218.89 192 219.27 193.26C219.45 193.86 219.58 194.47 219.63 195.09C219.69 195.83 219.66 196.62 220.04 197.29C220.73 198.52 222.35 198.68 223.16 199.82C223.97 200.96 224.16 202.44 224.58 203.75C225.06 205.23 225.89 206.51 226.76 207.78C227.71 209.17 228.58 210.56 229.14 212.16C230.28 215.42 230.46 218.99 230.6 222.41C230.86 229.33 230.03 236.25 227.2 242.62C224.66 248.35 220.58 253.92 215.1 257.15C213.76 257.94 212.33 258.57 210.82 258.97C209.15 259.41 207.53 259.38 205.82 259.45C204.01 259.52 202.29 260.14 200.55 260.55C198.81 260.96 196.94 261.33 195.12 261.61C191.39 262.19 187.65 262.27 183.9 262.51C180.96 262.7 178.01 262.89 175.07 263.08C168.56 263.5 162.06 263.92 155.55 264.34C155.14 264.37 154.73 264.39 154.32 264.42C153.68 264.46 153.68 265.46 154.32 265.42C159.62 265.08 164.93 264.74 170.23 264.39C175.53 264.04 181.15 263.53 186.61 263.38C190.35 263.28 194.09 262.87 197.76 262.17C199.65 261.81 201.51 261.35 203.37 260.86C204.27 260.62 205.14 260.46 206.07 260.44C207.05 260.42 208.02 260.44 208.99 260.33C215.34 259.56 220.52 254.9 224.15 249.92C227.98 244.67 230.33 238.42 231.21 232C231.72 228.26 231.74 224.47 231.52 220.7C231.32 217.26 231 213.74 229.58 210.56C228.91 209.06 227.94 207.76 227.04 206.4C226.14 205.04 225.59 203.68 225.16 202.13C224.81 200.85 224.4 199.5 223.4 198.58C222.92 198.13 222.35 197.87 221.78 197.55C221.44 197.36 221.1 197.14 220.91 196.79C220.66 196.33 220.69 195.77 220.65 195.26C220.26 189.74 215.47 185.27 210.18 184.29C208.63 184 207 184.26 205.48 183.87C203.84 183.45 202.69 181.99 201.3 181.12C199.91 180.25 198.28 179.62 196.64 179.31C194.82 178.97 193 178.93 191.31 178.05C189.87 177.3 188.55 176.4 187.03 175.82C185.51 175.24 183.86 174.9 182.22 174.79C180.58 174.68 178.91 174.81 177.3 175.19C176.49 175.38 175.7 175.71 174.87 175.78C173.86 175.86 173.03 175.33 172.14 174.95C169.27 173.71 166.01 173.44 162.96 174.07C161.4 174.39 159.9 174.98 158.52 175.79C157.14 176.6 155.87 177.61 154.44 178.35C152.84 179.19 151.17 179.37 149.39 179.4C147.74 179.43 146.1 179.47 144.53 180.01C141.71 180.99 139.51 183.06 137.17 184.82C135.95 185.74 134.67 186.56 133.27 187.19C131.75 187.88 130.16 188.41 128.64 189.1C125.76 190.4 123.49 192.46 121.96 195.22C121.24 196.52 120.69 197.92 120.27 199.35C119.85 200.78 119.7 202.41 119.18 203.86C118.58 205.54 117.11 206.48 116.04 207.82C115.1 209 114.59 210.42 114.4 211.92C114.21 213.42 114.36 215.06 114.61 216.6C114.74 217.41 114.96 218.21 115.05 219.03C115.16 220.01 114.95 220.86 114.47 221.71C113.74 222.99 112.92 224.18 112.33 225.54C111.8 226.77 111.38 228.04 111.11 229.35C110 234.56 110.93 240.12 113.56 244.74C114.89 247.09 116.66 249.19 118.77 250.88C120.03 251.89 121.48 252.7 122.57 253.9C123.16 254.54 123.59 255.3 124.14 255.97C124.6 256.54 125.12 257.06 125.7 257.52C127.93 259.31 130.72 260.23 133.47 260.85C136.81 261.59 140.25 262 143.64 262.48C147.31 263 151 263.43 154.71 263.36C155.35 263.35 155.35 262.35 154.71 262.36L154.68 262.34Z" fill="#2F1DA9"/>
<path d="M210.1 231.65C210.1 231.65 213.58 224.49 220.51 227.72C227.45 230.94 223.68 253.57 209.55 247.22C209.55 247.22 206.86 271.27 179.05 272.54C150.64 273.83 142.16 248.14 142.16 248.14C142.16 248.14 134.21 252.69 130.08 248.08C125.94 243.47 126.57 229.49 140.42 235.54L141.82 239.23C141.82 239.23 145.49 234.3 146.05 226.15C146.05 226.15 149.66 223.53 153 215.35C153 215.35 161.16 216.07 171.74 203.6C171.74 203.6 180.91 217.15 205.37 219.98C205.37 219.98 208.52 233.89 210.11 231.66L210.1 231.65Z" fill="white"/>
<path d="M177.02 273.09C152.45 273.09 143.32 252.52 141.89 248.85C140 249.8 133.48 252.62 129.7 248.41C127.21 245.64 126.3 239.68 128.85 236.15C130.12 234.39 133.35 231.9 140.62 235.08C140.74 235.13 140.84 235.24 140.89 235.36L141.94 238.12C142.95 236.43 145.14 232.15 145.55 226.1C145.56 225.95 145.64 225.82 145.75 225.73C145.79 225.7 149.3 223.06 152.53 215.14C152.61 214.94 152.82 214.81 153.04 214.83C153.12 214.83 161.11 215.33 171.36 203.26C171.46 203.14 171.61 203.06 171.77 203.08C171.93 203.08 172.07 203.17 172.16 203.3C172.25 203.43 181.51 216.69 205.43 219.47C205.64 219.49 205.81 219.65 205.86 219.86C207.03 225.01 208.8 230.76 209.7 231.36C210.11 230.59 213.82 224.05 220.74 227.26C224.99 229.23 225.37 237.12 222.87 242.59C220.31 248.18 215.52 250.14 209.96 247.92C209.26 251.83 204.41 271.88 179.08 273.03C178.38 273.06 177.69 273.08 177.02 273.08V273.09ZM142.16 247.64C142.22 247.64 142.28 247.65 142.34 247.67C142.48 247.72 142.59 247.84 142.64 247.98C142.72 248.23 151.35 273.27 179.04 272.04C193.18 271.39 200.59 264.68 204.31 259.16C208.36 253.16 209.07 247.22 209.07 247.16C209.09 247 209.18 246.86 209.32 246.78C209.46 246.7 209.63 246.69 209.77 246.76C217.33 250.16 220.81 244.69 221.95 242.18C224.42 236.77 223.6 229.7 220.31 228.17C213.91 225.19 210.69 231.6 210.56 231.87C210.55 231.9 210.53 231.92 210.52 231.94C210.18 232.42 209.78 232.42 209.56 232.37C207.82 232.02 205.82 224.16 204.96 220.42C192.41 218.9 183.98 214.54 179.09 211.12C174.89 208.19 172.57 205.49 171.71 204.38C162.42 215.1 155.06 215.83 153.33 215.84C150.41 222.87 147.32 225.74 146.53 226.39C145.92 234.46 142.37 239.31 142.22 239.52C142.11 239.67 141.93 239.74 141.75 239.72C141.57 239.69 141.42 239.57 141.35 239.4L140.03 235.91C135.15 233.83 131.56 234.11 129.67 236.74C127.43 239.84 128.27 245.3 130.46 247.74C134.28 252 141.85 247.74 141.92 247.7C142 247.66 142.08 247.63 142.17 247.63L142.16 247.64ZM209.67 231.41C209.67 231.41 209.66 231.41 209.65 231.41H209.67Z" fill="#2F1DA9"/>
<path d="M199.38 222.01C194.1 221.46 189 221.72 183.87 222.99C183.68 223.04 183.48 222.92 183.44 222.72C183.41 222.58 183.47 222.45 183.58 222.37C188.17 219.17 194.59 219.04 199.6 221.36C199.95 221.53 199.77 222.08 199.39 222.01H199.38Z" fill="#2F1DA9"/>
<path d="M155.77 223.76C160.45 220.84 166.84 220.21 171.79 222.81C172.13 222.98 171.95 223.52 171.58 223.46C166.33 222.84 161.24 223.17 156.06 224.38C155.69 224.49 155.44 223.96 155.77 223.76Z" fill="#2F1DA9"/>
<path d="M186.87 247.85C184.25 247.85 181.36 246.28 180.85 243.48C180.8 243.21 180.98 242.95 181.25 242.9C181.52 242.86 181.78 243.03 181.83 243.3C182.26 245.67 185.04 247.03 187.36 246.82C188.31 246.73 190.53 246.23 190.52 243.48C190.52 242.59 190.22 241.9 189.61 241.38C187.72 239.76 183.59 240.34 183.55 240.35C183.3 240.39 183.07 240.24 183 240C182.91 239.68 180.7 232.24 180.18 228.42C180.14 228.15 180.34 227.89 180.61 227.86C180.88 227.82 181.14 228.02 181.17 228.29C181.61 231.53 183.36 237.69 183.83 239.32C185.03 239.2 188.4 239.04 190.25 240.63C191.08 241.34 191.5 242.3 191.51 243.49C191.52 245.93 189.96 247.6 187.44 247.83C187.25 247.85 187.05 247.86 186.86 247.86L186.87 247.85Z" fill="#2F1DA9"/>
<path d="M190.75 232.86C190.38 235.13 191.48 237.15 193.18 237.38C194.9 237.61 196.57 235.97 196.94 233.7C197.05 233.03 197.02 232.35 196.88 231.75L193.7 232.81L195.63 229.68C195.3 229.42 194.93 229.26 194.5 229.2C192.8 228.97 191.11 230.61 190.74 232.86H190.75Z" fill="#2F1DA9"/>
<path d="M161.12 233.73C160.75 236 161.85 238.02 163.55 238.25C165.25 238.48 166.94 236.84 167.31 234.57C167.42 233.9 167.39 233.22 167.25 232.62L164.07 233.68L166 230.55C165.67 230.29 165.3 230.13 164.87 230.07C163.17 229.84 161.48 231.48 161.11 233.73H161.12Z" fill="#2F1DA9"/>
<path d="M181.64 254.57C181.64 254.57 181.62 254.57 181.61 254.57C172.93 254.06 169.95 250.21 169.83 250.04C169.66 249.82 169.71 249.51 169.93 249.34C170.15 249.17 170.46 249.22 170.63 249.44C170.66 249.47 173.49 253.09 181.66 253.57C181.94 253.59 182.15 253.82 182.13 254.1C182.11 254.37 181.89 254.57 181.63 254.57H181.64Z" fill="#2F1DA9"/>
<path d="M138.61 239.1C134.87 236.36 131.46 237.95 130.68 241.44L138.61 239.1Z" fill="white"/>
<path d="M130.67 241.94C130.67 241.94 130.6 241.94 130.56 241.93C130.29 241.87 130.12 241.6 130.18 241.33C130.6 239.47 131.72 238.08 133.25 237.5C134.96 236.86 136.96 237.28 138.89 238.7C139.11 238.86 139.16 239.18 139 239.4C138.84 239.62 138.52 239.67 138.3 239.51C136.65 238.3 134.98 237.92 133.6 238.44C132.39 238.9 131.49 240.03 131.15 241.55C131.1 241.78 130.89 241.94 130.66 241.94H130.67Z" fill="#2F1DA9"/>
<path d="M135.41 245.68C131.82 244.03 132.88 238.23 132.88 238.23L135.41 245.68Z" fill="white"/>
<path d="M135.41 246.18C135.34 246.18 135.27 246.17 135.2 246.13C131.3 244.34 132.34 238.39 132.39 238.14C132.44 237.87 132.7 237.68 132.97 237.74C133.24 237.79 133.42 238.05 133.37 238.32C133.36 238.37 132.42 243.76 135.61 245.23C135.86 245.34 135.97 245.64 135.86 245.89C135.78 246.07 135.59 246.18 135.41 246.18Z" fill="#2F1DA9"/>
<path d="M212.42 234.87C214.47 230.24 219.86 230.82 221.52 233.21L212.42 234.87Z" fill="white"/>
<path d="M212.42 235.37C212.35 235.37 212.28 235.36 212.22 235.33C211.97 235.22 211.85 234.92 211.96 234.67C212.92 232.5 214.74 231.13 216.95 230.92C218.96 230.72 220.96 231.53 221.93 232.92C222.09 233.15 222.03 233.46 221.81 233.62C221.58 233.78 221.27 233.72 221.11 233.5C220.35 232.41 218.68 231.76 217.05 231.92C215.97 232.02 213.99 232.57 212.88 235.08C212.8 235.27 212.61 235.38 212.42 235.38V235.37Z" fill="#2F1DA9"/>
<path d="M215.6 243.66C219.56 242.65 220.54 235.22 218.23 231.44L215.6 243.66Z" fill="white"/>
<path d="M215.6 244.16C215.38 244.16 215.17 244.01 215.12 243.78C215.05 243.51 215.21 243.24 215.48 243.17C216.97 242.79 217.81 241.41 218.25 240.33C219.35 237.62 219.16 233.91 217.8 231.7C217.66 231.46 217.73 231.16 217.97 231.01C218.21 230.87 218.51 230.94 218.66 231.18C220.19 233.68 220.41 237.69 219.18 240.71C218.42 242.58 217.23 243.76 215.73 244.15C215.69 244.16 215.65 244.17 215.61 244.17L215.6 244.16Z" fill="#2F1DA9"/>
<path d="M233.02 390.24C232.75 390.24 232.53 390.02 232.52 389.75C232.51 389.18 231.05 332.09 225.95 301.93C225.9 301.66 226.09 301.4 226.36 301.35C226.63 301.3 226.89 301.49 226.94 301.76C232.06 332 233.51 389.15 233.53 389.72C233.53 390 233.32 390.23 233.04 390.23H233.03L233.02 390.24Z" fill="#2F1DA9"/>
<path d="M121.26 390.24H121.25C120.97 390.24 120.76 390 120.76 389.73C120.77 389.16 122.23 332 127.35 301.77C127.4 301.5 127.66 301.32 127.93 301.36C128.2 301.41 128.39 301.66 128.34 301.94C123.24 332.11 121.78 389.19 121.77 389.76C121.77 390.03 121.54 390.25 121.27 390.25L121.26 390.24Z" fill="#2F1DA9"/>
<path d="M110.06 180.83C109.78 180.83 109.56 180.61 109.56 180.33V160.45C109.56 160.17 109.78 159.95 110.06 159.95H129.76C130.04 159.95 130.26 160.17 130.26 160.45C130.26 160.73 130.04 160.95 129.76 160.95H110.56V180.33C110.56 180.61 110.34 180.83 110.06 180.83Z" fill="#2F1DA9"/>
<path d="M238.63 180.83C238.35 180.83 238.13 180.61 238.13 180.33V160.95H218.93C218.65 160.95 218.43 160.73 218.43 160.45C218.43 160.17 218.65 159.95 218.93 159.95H238.63C238.91 159.95 239.13 160.17 239.13 160.45V180.33C239.13 180.61 238.91 180.83 238.63 180.83Z" fill="#2F1DA9"/>
<path d="M238.63 279.17H218.93C218.65 279.17 218.43 278.95 218.43 278.67C218.43 278.39 218.65 278.17 218.93 278.17H238.13V258.79C238.13 258.51 238.35 258.29 238.63 258.29C238.91 258.29 239.13 258.51 239.13 258.79V278.67C239.13 278.95 238.91 279.17 238.63 279.17Z" fill="#2F1DA9"/>
<path d="M129.76 279.17H110.06C109.78 279.17 109.56 278.95 109.56 278.67V258.79C109.56 258.51 109.78 258.29 110.06 258.29C110.34 258.29 110.56 258.51 110.56 258.79V278.17H129.76C130.04 278.17 130.26 278.39 130.26 278.67C130.26 278.95 130.04 279.17 129.76 279.17Z" fill="#2F1DA9"/>
<path d="M110.06 180.83C109.78 180.83 109.56 180.61 109.56 180.33V160.45C109.56 160.17 109.78 159.95 110.06 159.95H129.76C130.04 159.95 130.26 160.17 130.26 160.45C130.26 160.73 130.04 160.95 129.76 160.95H110.56V180.33C110.56 180.61 110.34 180.83 110.06 180.83Z" stroke="#2F1DA9" stroke-linecap="round" stroke-linejoin="round"/>
<path d="M238.63 180.83C238.35 180.83 238.13 180.61 238.13 180.33V160.95H218.93C218.65 160.95 218.43 160.73 218.43 160.45C218.43 160.17 218.65 159.95 218.93 159.95H238.63C238.91 159.95 239.13 160.17 239.13 160.45V180.33C239.13 180.61 238.91 180.83 238.63 180.83Z" stroke="#2F1DA9" stroke-linecap="round" stroke-linejoin="round"/>
<path d="M238.63 279.17H218.93C218.65 279.17 218.43 278.95 218.43 278.67C218.43 278.39 218.65 278.17 218.93 278.17H238.13V258.79C238.13 258.51 238.35 258.29 238.63 258.29C238.91 258.29 239.13 258.51 239.13 258.79V278.67C239.13 278.95 238.91 279.17 238.63 279.17Z" stroke="#2F1DA9" stroke-linecap="round" stroke-linejoin="round"/>
<path d="M129.76 279.17H110.06C109.78 279.17 109.56 278.95 109.56 278.67V258.79C109.56 258.51 109.78 258.29 110.06 258.29C110.34 258.29 110.56 258.51 110.56 258.79V278.17H129.76C130.04 278.17 130.26 278.39 130.26 278.67C130.26 278.95 130.04 279.17 129.76 279.17Z" stroke="#2F1DA9" stroke-linecap="round" stroke-linejoin="round"/>
<path d="M313.11 244.16H238.63C238.35 244.16 238.13 243.94 238.13 243.66C238.13 243.38 238.35 243.16 238.63 243.16H313.11C313.39 243.16 313.61 243.38 313.61 243.66C313.61 243.94 313.39 244.16 313.11 244.16Z" fill="#2F1DA9"/>
<path d="M313.11 248.91C316.009 248.91 318.36 246.559 318.36 243.66C318.36 240.761 316.009 238.41 313.11 238.41C310.21 238.41 307.86 240.761 307.86 243.66C307.86 246.559 310.21 248.91 313.11 248.91Z" fill="#2F1DA9"/>
<path d="M313.11 249.41C309.94 249.41 307.36 246.83 307.36 243.66C307.36 240.49 309.94 237.91 313.11 237.91C316.28 237.91 318.86 240.49 318.86 243.66C318.86 246.83 316.28 249.41 313.11 249.41ZM313.11 238.91C310.49 238.91 308.36 241.04 308.36 243.66C308.36 246.28 310.49 248.41 313.11 248.41C315.73 248.41 317.86 246.28 317.86 243.66C317.86 241.04 315.73 238.91 313.11 238.91Z" fill="#2F1DA9"/>
<path d="M336.348 430.068C336.078 430.337 335.741 430.54 335.404 430.742C333.92 431.551 332.167 431.281 330.953 430.135L292.716 393.719L297.639 388.459L330.009 418.603L336.213 424.605C337.764 425.954 337.831 428.449 336.348 430.068C336.348 430 336.348 430 336.348 430.068Z" fill="#DDD8FB"/>
<path d="M333.582 431.551C332.503 431.551 331.492 431.146 330.683 430.404L292.445 393.921C292.311 393.786 292.311 393.583 292.445 393.449L297.368 388.188C297.503 388.054 297.706 388.054 297.84 388.188L330.211 418.333L336.415 424.335C338.101 425.953 338.168 428.583 336.617 430.269L336.55 430.337C336.28 430.674 335.875 430.876 335.538 431.079C334.931 431.348 334.257 431.551 333.582 431.551ZM293.187 393.651L331.155 429.865C332.234 430.876 333.852 431.146 335.201 430.404C335.538 430.202 335.808 430 336.078 429.73C337.426 428.381 337.426 426.156 336.01 424.74L335.943 424.672L329.806 418.67L297.638 388.795L293.187 393.651Z" fill="#2F1DA9"/>
<path d="M355.838 449.353C355.366 449.825 354.894 450.229 354.287 450.499C351.859 451.78 348.824 451.308 346.868 449.42L300.404 404.17C299.662 403.428 299.662 402.281 300.337 401.539L305.866 395.538C306.541 394.796 307.755 394.728 308.564 395.403L345.182 429.796L355.635 440.046C358.198 442.542 358.333 446.723 355.838 449.353Z" fill="white"/>
<path d="M351.386 451.646C349.632 451.646 347.947 450.972 346.665 449.69L300.133 404.44C299.257 403.63 299.189 402.214 300.066 401.338L305.596 395.336C306.405 394.391 307.889 394.391 308.765 395.201L345.384 429.594L355.837 439.844C357.185 441.126 357.995 442.947 357.995 444.835C358.062 446.656 357.388 448.342 356.106 449.623C355.634 450.095 355.095 450.5 354.488 450.837C353.476 451.309 352.465 451.579 351.386 451.646ZM307.214 395.268C306.742 395.268 306.338 395.47 306.068 395.808L300.538 401.81C299.931 402.417 299.998 403.428 300.605 403.968L347.07 449.218C349.43 451.579 353.207 451.511 355.5 449.218C356.646 448.072 357.32 446.453 357.253 444.835C357.253 443.149 356.511 441.53 355.297 440.384L344.844 430.133L308.226 395.74C308.024 395.403 307.619 395.268 307.214 395.268Z" fill="#2F1DA9"/>
<path d="M288.265 325.808C267.359 314.951 241.666 323.111 230.808 343.949C219.951 364.787 228.111 390.548 248.949 401.406C263.515 408.959 281.049 407.542 294.199 397.697C294.739 397.292 295.211 396.887 295.683 396.483C297.571 394.932 299.325 393.246 300.876 391.425C301.213 391.02 301.618 390.616 301.955 390.144C306.945 383.804 310.047 376.251 310.924 368.294C312.88 350.828 303.843 333.968 288.265 325.808ZM295.144 383.872C292.986 386.704 290.356 389.199 287.388 391.223C286.377 391.897 285.365 392.504 284.286 393.111C268.034 401.743 247.87 395.606 239.238 379.421C230.606 363.169 236.743 343.005 252.928 334.373C269.18 325.741 289.344 331.878 297.976 348.063C304.113 359.527 302.966 373.487 295.144 383.872Z" fill="white" stroke="#2F1DA9" stroke-linecap="round" stroke-linejoin="round"/>
<path d="M268.573 397.023C287.009 397.023 301.954 382.077 301.954 363.641C301.954 345.205 287.009 330.259 268.573 330.259C250.136 330.259 235.191 345.205 235.191 363.641C235.191 382.077 250.136 397.023 268.573 397.023Z" fill="#DDD8FB"/>
<path d="M268.505 397.36C249.893 397.293 234.787 382.187 234.854 363.574C234.921 344.961 250.027 329.855 268.64 329.923C284.825 329.99 298.717 341.522 301.685 357.437C305.124 375.713 292.985 393.314 274.71 396.753C272.687 397.158 270.596 397.36 268.505 397.36ZM268.64 330.597C266.617 330.597 264.527 330.799 262.503 331.136C244.565 334.441 232.696 351.705 236.068 369.643C239.372 387.582 256.636 399.451 274.575 396.079C292.513 392.774 304.382 375.51 301.01 357.572C298.11 341.994 284.488 330.664 268.64 330.597Z" fill="#2F1DA9"/>
<path d="M291.501 348.804C291.366 348.804 291.299 348.737 291.231 348.669C282.936 336.126 266.077 332.687 253.601 340.981C252.724 341.588 251.848 342.195 251.039 342.937C250.904 343.072 250.701 343.072 250.566 342.87C250.432 342.735 250.432 342.532 250.634 342.398C262.368 332.484 279.902 333.9 289.883 345.635C290.624 346.444 291.231 347.321 291.838 348.265C291.973 348.4 291.906 348.602 291.771 348.737C291.636 348.804 291.569 348.804 291.501 348.804Z" fill="white"/>
</svg>
