<svg width="41" height="40" viewBox="0 0 41 40" fill="none" xmlns="http://www.w3.org/2000/svg">
<path d="M0.5 20C0.5 8.95431 9.45431 0 20.5 0C31.5457 0 40.5 8.95431 40.5 20C40.5 31.0457 31.5457 40 20.5 40C9.45431 40 0.5 31.0457 0.5 20Z" fill="#F5F5F5"/>
<path d="M12.1665 22.0835L20.2017 26.1011C20.311 26.1557 20.3657 26.1831 20.423 26.1938C20.4738 26.2033 20.5259 26.2033 20.5767 26.1938C20.634 26.1831 20.6887 26.1557 20.798 26.1011L28.8332 22.0835M12.1665 17.9168L20.2017 13.8992C20.311 13.8445 20.3657 13.8172 20.423 13.8065C20.4738 13.7969 20.5259 13.7969 20.5767 13.8065C20.634 13.8172 20.6887 13.8445 20.798 13.8992L28.8332 17.9168L20.798 21.9344C20.6887 21.9891 20.634 22.0164 20.5767 22.0271C20.5259 22.0367 20.4738 22.0367 20.423 22.0271C20.3657 22.0164 20.311 21.9891 20.2017 21.9344L12.1665 17.9168Z" stroke="#717680" stroke-width="1.66667" stroke-linecap="round" stroke-linejoin="round"/>
</svg>
