<svg width="52" height="53" viewBox="0 0 52 53" fill="none" xmlns="http://www.w3.org/2000/svg">
<g filter="url(#filter0_d_1097_10481)">
<path d="M2.5 11.5C2.5 6.25329 6.75329 2 12 2H40C45.2467 2 49.5 6.25329 49.5 11.5V39.5C49.5 44.7467 45.2467 49 40 49H12C6.75329 49 2.5 44.7467 2.5 39.5V11.5Z" stroke="#EAECF0" shape-rendering="crispEdges"/>
<path d="M28.0914 20.2222H34.0451C34.5173 20.2222 34.7534 20.2222 34.8914 20.3215C35.0119 20.4081 35.0903 20.5414 35.1075 20.6888C35.1272 20.8577 35.0126 21.064 34.7833 21.4768L33.3624 24.0343C33.2793 24.184 33.2377 24.2589 33.2214 24.3381C33.207 24.4083 33.207 24.4806 33.2214 24.5508C33.2377 24.63 33.2793 24.7049 33.3624 24.8545L34.7833 27.4121C35.0126 27.8248 35.1272 28.0312 35.1075 28.2001C35.0903 28.3475 35.0119 28.4808 34.8914 28.5674C34.7534 28.6667 34.5173 28.6667 34.0451 28.6667H26.6136C26.0224 28.6667 25.7269 28.6667 25.5011 28.5516C25.3024 28.4504 25.141 28.2889 25.0398 28.0903C24.9247 27.8645 24.9247 27.5689 24.9247 26.9778V24.4444M21.2303 35L17.0081 18.1111M18.5914 24.4444H26.4025C26.9937 24.4444 27.2892 24.4444 27.515 24.3294C27.7137 24.2282 27.8751 24.0667 27.9763 23.8681C28.0914 23.6423 28.0914 23.3467 28.0914 22.7556V17.6889C28.0914 17.0977 28.0914 16.8021 27.9763 16.5763C27.8751 16.3777 27.7137 16.2162 27.515 16.115C27.2892 16 26.9937 16 26.4025 16H18.6433C17.906 16 17.5374 16 17.2852 16.1528C17.0642 16.2867 16.9 16.497 16.8237 16.7439C16.7366 17.0256 16.8261 17.3832 17.0049 18.0985L18.5914 24.4444Z" stroke="#344054" stroke-width="2" stroke-linecap="round" stroke-linejoin="round"/>
</g>
<defs>
<filter id="filter0_d_1097_10481" x="0" y="0.5" width="52" height="52" filterUnits="userSpaceOnUse" color-interpolation-filters="sRGB">
<feFlood flood-opacity="0" result="BackgroundImageFix"/>
<feColorMatrix in="SourceAlpha" type="matrix" values="0 0 0 0 0 0 0 0 0 0 0 0 0 0 0 0 0 0 127 0" result="hardAlpha"/>
<feOffset dy="1"/>
<feGaussianBlur stdDeviation="1"/>
<feComposite in2="hardAlpha" operator="out"/>
<feColorMatrix type="matrix" values="0 0 0 0 0.0627451 0 0 0 0 0.0941176 0 0 0 0 0.156863 0 0 0 0.05 0"/>
<feBlend mode="normal" in2="BackgroundImageFix" result="effect1_dropShadow_1097_10481"/>
<feBlend mode="normal" in="SourceGraphic" in2="effect1_dropShadow_1097_10481" result="shape"/>
</filter>
</defs>
</svg>
