<svg width="289" height="327" viewBox="0 0 289 327" fill="none" xmlns="http://www.w3.org/2000/svg">
<g clip-path="url(#clip0_1060_86290)">
<path d="M278.645 94.6437C276.155 108.12 260.808 108.682 260.808 108.682C255.505 126.49 235.418 128.095 235.418 128.095C229.793 137.801 211.956 135.234 211.956 135.234C207.697 139.726 201.43 141.812 195.323 140.689C195.404 134.512 195.805 130.501 196.529 128.416C198.618 121.838 230.677 92.8789 233.57 90.3119C232.445 89.2691 231.48 87.9855 230.838 86.6218C230.838 86.6218 225.374 88.9482 220.473 86.6218L189.377 113.014L187.851 70.0969C180.619 72.9847 171.701 69.776 171.701 69.776C169.692 72.0221 167.281 73.7869 164.63 75.1506V133.87C161.014 128.496 157.077 123.362 152.738 118.549C147.114 112.372 144.382 110.126 143.659 109.564C138.758 112.853 132.089 113.014 132.089 113.014C130.883 114.377 129.517 115.5 127.991 116.383C130.321 118.148 148.962 132.667 157.077 144.299C150.247 148.39 143.498 143.737 143.498 143.737C143.498 143.737 141.65 145.101 132.41 146.144C123.17 147.187 118.59 141.09 118.59 141.09C105.332 142.694 98.6633 127.934 98.6633 127.934C78.9778 126.972 81.9507 103.789 81.9507 103.789C72.1481 90.6328 84.8433 71.7012 84.8433 71.7012C83.3166 48.3577 108.948 42.2611 108.948 42.2611C110.234 27.2603 130.241 22.8483 130.241 22.8483C143.739 2.15198 171.942 6.80464 171.942 6.80464C179.254 3.27503 187.208 1.10914 195.404 0.547612C208.822 -0.415008 220.714 9.2914 220.714 9.2914C220.714 9.2914 241.765 7.44639 251.005 14.5858C256.63 19.1583 261.049 25.0142 263.7 31.7525C263.7 31.7525 271.816 31.4317 276.878 36.4052C281.94 41.3787 280.333 59.1872 280.333 59.1872C280.333 59.1872 285.957 61.9948 287.886 74.8298C289.814 87.6647 278.645 94.6437 278.645 94.6437Z" fill="white"/>
<path d="M130.321 146.465C125.822 146.545 121.483 144.7 118.43 141.331C117.787 141.411 117.224 141.411 116.582 141.411C105.333 141.411 99.3064 129.86 98.4226 128.095C93.1999 127.774 89.0217 125.929 86.1292 122.48C80.4244 115.661 81.3886 105.233 81.5493 103.709C72.3091 91.034 83.3973 73.0651 84.4418 71.4608C83.0759 49.4809 105.815 42.5822 108.547 41.78C109.993 27.5813 128.071 22.8485 130 22.3672C143.016 2.63345 169.692 6.08284 171.862 6.32349C179.254 2.79389 187.208 0.70821 195.324 0.0664633C208.019 -0.815938 219.509 7.76742 220.794 8.81026C222.883 8.64982 242.248 7.28611 251.166 14.1849C256.791 18.6771 261.21 24.6133 263.861 31.2714H263.942C265.629 31.2714 272.459 31.5923 277.039 36.0845C281.86 40.8976 280.815 56.7006 280.654 58.9467C281.779 59.6687 286.44 63.1983 288.127 74.7497C289.895 86.8627 280.333 93.8417 279.047 94.7241C276.637 107.158 263.299 108.762 261.13 108.923C255.987 125.608 237.909 128.095 235.739 128.336C230.195 137.48 214.286 135.796 212.197 135.475C207.858 139.967 201.511 142.053 195.324 140.85C195.163 140.769 195.002 140.609 195.002 140.449C195.083 134.432 195.484 130.261 196.207 128.015C198.216 121.677 226.499 95.9273 233.007 89.9912C232.043 89.0286 231.32 87.9857 230.677 86.7824C229.392 87.2638 224.812 88.6275 220.553 86.7022L189.699 112.853C189.619 112.934 189.458 113.014 189.297 112.934C189.137 112.853 189.056 112.773 189.056 112.613L187.61 70.2575C181.022 72.5838 173.469 70.3377 171.942 69.8564C170.014 71.9421 167.684 73.7069 165.112 75.0706V133.55C165.112 133.71 165.032 133.871 164.791 133.951C164.63 134.031 164.47 133.951 164.309 133.79C160.774 128.416 156.756 123.362 152.498 118.549C149.766 115.42 146.793 112.452 143.659 109.725C139.16 112.613 133.374 113.014 132.33 113.014C131.285 114.137 130.08 115.18 128.714 116.062C133.053 119.431 149.766 132.828 157.399 143.737C157.479 143.818 157.479 143.978 157.479 144.058C157.479 144.139 157.399 144.219 157.319 144.299C150.971 148.069 144.704 144.62 143.498 143.818C142.775 144.219 140.043 145.262 132.491 146.144C131.767 146.465 131.044 146.465 130.321 146.465ZM118.59 140.529C118.751 140.529 118.831 140.609 118.912 140.689C118.992 140.769 123.492 146.545 132.33 145.582C141.168 144.62 143.257 143.256 143.257 143.256C143.418 143.176 143.579 143.176 143.74 143.256C143.82 143.256 150.087 147.588 156.515 144.058C148.56 132.828 131.205 119.191 127.75 116.543C127.67 116.463 127.589 116.303 127.589 116.223C127.589 116.062 127.67 115.982 127.75 115.902C129.277 115.019 130.562 113.896 131.767 112.613C131.848 112.533 131.928 112.452 132.089 112.452C132.169 112.452 138.678 112.292 143.418 109.083C143.579 109.003 143.74 109.003 143.9 109.083C144.864 109.885 147.677 112.292 153.06 118.148C157.077 122.64 160.854 127.373 164.229 132.346V74.9904C164.229 74.8299 164.309 74.6695 164.47 74.6695C167.121 73.3058 169.451 71.541 171.46 69.3751C171.54 69.2949 171.701 69.2146 171.862 69.2949C171.942 69.2949 180.78 72.4234 187.771 69.6157C187.851 69.5355 188.012 69.5355 188.173 69.6157C188.253 69.696 188.333 69.7762 188.333 69.9366L189.78 112.051L220.152 86.2209C220.232 86.1407 220.473 86.0605 220.553 86.1407C225.214 88.3868 230.597 86.1407 230.597 86.1407C230.758 86.0605 230.999 86.1407 231.079 86.3011C231.722 87.6649 232.606 88.8681 233.65 89.8307C233.731 89.911 233.811 89.9912 233.811 90.1516C233.811 90.2318 233.731 90.3923 233.65 90.4725C230.115 93.6812 198.698 121.998 196.77 128.416C196.127 130.501 195.725 134.432 195.645 140.288C201.511 141.251 207.456 139.245 211.554 134.913C211.635 134.833 211.795 134.753 211.876 134.833C212.036 134.833 229.552 137.24 234.936 127.934C235.016 127.854 235.096 127.774 235.257 127.774C235.418 127.774 255.103 126.009 260.246 108.682C260.326 108.522 260.406 108.361 260.647 108.361C260.808 108.361 275.673 107.559 278.083 94.6438C278.083 94.5636 278.164 94.4032 278.244 94.4032C278.324 94.323 288.93 87.5846 287.163 75.1508C285.395 62.717 279.931 59.8291 279.851 59.8291C279.69 59.7489 279.61 59.5884 279.61 59.428C279.61 59.2676 281.137 41.78 276.316 36.9669C271.495 32.1538 263.54 32.3944 263.46 32.3944C263.299 32.3944 263.138 32.3142 263.058 32.1538C260.406 25.4957 256.068 19.6397 250.523 15.1475C241.524 8.16851 220.794 9.93332 220.553 9.93332C220.473 9.93332 220.312 9.93332 220.232 9.8531C220.152 9.77288 208.26 0.226901 195.163 1.18952C187.048 1.75105 179.173 3.91694 171.862 7.36633C171.781 7.44655 171.701 7.44655 171.621 7.36633C171.299 7.36633 143.579 2.95433 130.402 23.0891C130.321 23.1693 130.241 23.2496 130.16 23.2496C130 23.2496 110.395 27.7418 109.189 42.2613C109.189 42.4217 109.029 42.5822 108.868 42.5822C108.627 42.6624 83.558 48.8392 85.0846 71.6212C85.0846 71.7014 85.0846 71.7816 85.0043 71.8618C84.8436 72.0223 72.6305 90.6329 82.1117 103.468C82.1921 103.548 82.1921 103.628 82.1921 103.789C82.1921 103.869 80.7458 115.18 86.5309 122.078C89.3431 125.367 93.3606 127.212 98.4226 127.453C98.5833 127.453 98.744 127.533 98.744 127.694C99.1457 127.854 105.734 142.133 118.59 140.529Z" fill="#3118D3"/>
<path d="M200.064 219.544C205.206 275.616 215.973 299.602 224.731 313.399L158.765 315.485C158.765 315.485 164.469 298.96 164.71 286.446C164.952 273.932 163.746 163.471 160.613 151.037C159.89 148.551 158.684 146.224 157.158 144.219C149.042 132.587 130.401 118.068 128.071 116.303C129.598 115.34 130.964 114.217 132.169 112.853C132.169 112.853 138.838 112.773 143.739 109.404C144.463 109.966 147.194 112.292 152.819 118.388C157.158 123.202 161.095 128.336 164.71 133.71V74.9903C167.362 73.6266 169.772 71.7816 171.781 69.6157C171.781 69.6157 180.7 72.8245 187.931 69.9366L189.458 112.853L220.553 86.5418C225.454 88.8681 230.918 86.5418 230.918 86.5418C231.561 87.9055 232.445 89.189 233.65 90.2318C230.838 92.7988 198.698 121.758 196.609 128.336C195.966 130.421 195.565 134.432 195.404 140.609C195.163 154.888 196.448 180.397 200.064 219.544Z" fill="#533DE9"/>
<path d="M158.764 315.806C158.604 315.806 158.523 315.726 158.443 315.645C158.363 315.565 158.363 315.405 158.363 315.244C158.443 315.084 163.987 298.639 164.228 286.366C164.469 274.814 163.344 163.551 160.211 151.118C159.487 148.711 158.282 146.385 156.756 144.379C148.881 133.069 131.205 119.191 127.75 116.544C127.669 116.463 127.589 116.303 127.589 116.223C127.589 116.062 127.669 115.982 127.75 115.902C129.276 115.019 130.562 113.896 131.767 112.613C131.847 112.533 131.928 112.452 132.088 112.452C132.169 112.452 138.677 112.292 143.418 109.083C143.578 109.003 143.739 109.003 143.9 109.083C144.864 109.885 147.676 112.292 153.06 118.148C157.077 122.64 160.853 127.373 164.228 132.347V74.9904C164.228 74.83 164.308 74.6696 164.469 74.6696C167.121 73.3059 169.451 71.5411 171.459 69.3752C171.54 69.295 171.701 69.2147 171.861 69.2949C171.942 69.2949 180.78 72.4235 187.77 69.6158C187.851 69.5356 188.011 69.5356 188.172 69.6158C188.252 69.696 188.333 69.7763 188.333 69.9367L189.779 112.051L220.151 86.221C220.231 86.1408 220.472 86.0606 220.553 86.1408C225.213 88.3869 230.596 86.1408 230.596 86.1408C230.757 86.0606 230.998 86.1408 231.079 86.3012C231.721 87.6649 232.605 88.8682 233.65 89.8308C233.73 89.9111 233.81 89.9913 233.81 90.1517C233.81 90.2319 233.73 90.3924 233.65 90.4726C230.114 93.6813 198.698 121.998 196.769 128.416C196.127 130.502 195.725 134.593 195.645 140.609C195.404 155.931 197.011 183.205 200.305 219.464C205.608 276.98 216.857 300.484 224.892 313.078C224.972 313.239 224.972 313.319 224.892 313.479C224.811 313.64 224.731 313.72 224.57 313.72L158.764 315.806ZM128.794 116.303C133.133 119.672 149.846 133.069 157.479 143.978C159.086 146.064 160.291 148.47 161.014 150.957C164.148 163.471 165.273 274.894 165.112 286.446C164.871 297.596 160.371 312.036 159.327 315.004L224.008 312.998C215.973 300.163 204.885 276.419 199.662 219.624C196.287 183.285 194.68 156.011 195.002 140.689C195.082 134.673 195.484 130.502 196.207 128.255C198.216 121.918 226.499 96.1681 233.007 90.2319C232.043 89.2693 231.32 88.2265 230.677 87.0232C229.391 87.5045 224.811 88.8682 220.553 86.943L189.699 113.094C189.618 113.174 189.458 113.255 189.297 113.174C189.136 113.094 189.056 113.014 189.056 112.853L187.61 70.4982C181.021 72.8246 173.468 70.5784 171.942 70.0971C170.013 72.1828 167.683 73.9476 165.112 75.3113V133.79C165.112 133.951 165.032 134.111 164.791 134.192C164.63 134.272 164.469 134.192 164.308 134.031C160.773 128.656 156.756 123.603 152.497 118.79C149.765 115.661 146.792 112.693 143.659 109.966C139.159 112.853 133.374 113.255 132.329 113.255C131.285 114.378 130.08 115.42 128.794 116.303Z" fill="#3118D3"/>
<path d="M128.071 116.624C127.991 116.624 127.911 116.624 127.83 116.543C127.75 116.463 127.67 116.463 127.589 116.383C127.429 116.222 127.429 115.982 127.589 115.821C127.75 115.661 127.911 115.661 128.071 115.741L128.312 115.902C128.473 116.062 128.553 116.303 128.393 116.463C128.312 116.543 128.152 116.624 128.071 116.624Z" fill="#3118D3"/>
<path d="M233.57 90.6329C233.329 90.6329 233.168 90.4725 233.168 90.2319C233.168 90.1516 233.248 89.9912 233.329 89.911L233.489 89.7505C233.65 89.5901 233.891 89.6703 234.052 89.8308C234.132 89.9912 234.132 90.1516 234.052 90.3121L233.891 90.4725C233.811 90.5527 233.73 90.6329 233.57 90.6329Z" fill="#3118D3"/>
<path d="M187.931 70.3376C187.69 70.3376 187.529 70.1771 187.529 69.9365V69.5354C187.529 69.2947 187.69 69.1343 187.931 69.1343C188.172 69.1343 188.333 69.2947 188.333 69.5354V69.9365C188.333 70.0969 188.172 70.3376 187.931 70.3376C188.011 70.3376 188.011 70.3376 187.931 70.3376Z" fill="#3118D3"/>
<path d="M220.553 86.9426C220.312 86.9426 220.151 86.7822 220.151 86.5416C220.151 86.4613 220.232 86.3009 220.312 86.2207L220.553 85.98C220.714 85.8196 220.955 85.8998 221.116 86.0603C221.196 86.2207 221.196 86.4613 221.035 86.5416L220.794 86.7822C220.714 86.8624 220.633 86.8624 220.553 86.9426Z" fill="#3118D3"/>
<path d="M143.74 109.805C143.66 109.805 143.579 109.805 143.499 109.725L143.258 109.565C143.097 109.404 143.017 109.164 143.177 109.003C143.338 108.843 143.579 108.762 143.74 108.923L143.901 109.083C144.061 109.244 144.142 109.484 143.981 109.645C143.981 109.805 143.82 109.805 143.74 109.805Z" fill="#3118D3"/>
<path d="M164.71 75.3913C164.469 75.3913 164.309 75.2308 164.309 74.9902V74.5891C164.309 74.3484 164.469 74.188 164.71 74.188C164.951 74.188 165.112 74.3484 165.112 74.5891V74.9902C165.112 75.2308 164.951 75.3913 164.71 75.3913Z" fill="#3118D3"/>
<path d="M151.534 90.6327C151.293 90.6327 151.132 90.4723 151.132 90.2316C151.132 89.991 151.293 89.8305 151.534 89.8305C151.614 89.8305 161.095 89.5097 164.55 88.0657C164.791 87.9855 164.952 88.0657 165.113 88.3064C165.193 88.547 165.113 88.7075 164.872 88.8679C161.256 90.3118 151.935 90.6327 151.534 90.6327Z" fill="#3118D3"/>
<path d="M143.74 109.805C143.499 109.805 143.338 109.645 143.338 109.404C143.338 109.244 143.418 109.163 143.499 109.083C145.748 107.639 147.355 105.393 147.998 102.826C147.998 102.666 148.078 102.585 148.239 102.585C148.32 102.505 159.167 97.7723 159.327 89.5901C159.327 89.3494 159.488 89.189 159.649 89.189C159.649 89.189 159.649 89.189 159.729 89.189C159.97 89.189 160.131 89.3494 160.131 89.5901C159.97 97.8525 150.248 102.585 148.721 103.227C147.998 105.874 146.311 108.201 143.981 109.725C143.9 109.805 143.82 109.805 143.74 109.805Z" fill="#3118D3"/>
<path d="M122.126 118.308C118.188 118.308 114.412 116.303 112.162 113.094C112.082 112.933 112.082 112.693 112.323 112.532C112.484 112.452 112.725 112.452 112.885 112.693C116.26 117.506 122.849 118.87 127.911 115.902C128.152 115.821 128.312 115.902 128.473 116.062C128.554 116.222 128.473 116.463 128.312 116.543C126.384 117.666 124.295 118.308 122.126 118.308Z" fill="#3118D3"/>
<path d="M109.029 113.576C107.984 113.576 106.859 113.495 105.815 113.255C105.574 113.174 105.493 113.014 105.493 112.773C105.574 112.533 105.734 112.452 105.975 112.452C109.993 113.335 114.251 112.452 117.465 109.885C117.626 109.725 117.867 109.725 118.028 109.885C118.188 110.046 118.188 110.287 118.028 110.447C115.537 112.533 112.323 113.656 109.029 113.576Z" fill="#3118D3"/>
<path d="M187.932 70.3375C187.691 70.3375 187.53 70.2572 187.45 70.0166C187.369 69.7759 187.53 69.6155 187.771 69.5353C189.619 68.8133 191.226 67.6903 192.512 66.1661C192.672 66.0057 192.913 66.0057 193.074 66.0859C193.235 66.2463 193.235 66.487 193.154 66.6474C191.788 68.2518 190.021 69.4551 188.092 70.177C188.092 70.3375 188.012 70.3375 187.932 70.3375Z" fill="#3118D3"/>
<path d="M155.712 77.5575C152.417 77.5575 149.123 76.8355 146.23 75.3916C146.07 75.3114 145.989 75.0707 146.07 74.8301C146.15 74.6697 146.391 74.5894 146.632 74.6697C152.256 77.3971 158.925 77.3971 164.55 74.6697C164.711 74.5894 164.952 74.6697 165.112 74.8301C165.193 74.9905 165.112 75.2312 164.952 75.3916C162.059 76.7553 158.845 77.5575 155.712 77.5575Z" fill="#3118D3"/>
<path d="M220.554 86.9427C220.473 86.9427 220.473 86.9427 220.393 86.9427C218.866 86.2207 217.5 85.0976 216.456 83.7339C216.295 83.5735 216.375 83.3328 216.536 83.1724C216.697 83.012 216.938 83.0922 217.099 83.2526C218.063 84.5361 219.268 85.4987 220.714 86.2207C220.875 86.3009 220.955 86.5416 220.875 86.7822C220.875 86.7822 220.714 86.9427 220.554 86.9427Z" fill="#3118D3"/>
<path d="M238.873 92.3976C236.864 92.4778 234.855 91.8361 233.329 90.4723C233.168 90.3119 233.168 90.0713 233.329 89.9108C233.489 89.7504 233.73 89.7504 233.891 89.9108C235.578 91.3548 237.908 91.9163 240.881 91.435C244.015 90.7932 246.988 89.6702 249.639 88.0658C250.282 87.6647 250.684 87.424 250.684 87.424C250.845 87.3438 251.086 87.424 251.246 87.5845C251.327 87.7449 251.327 87.9856 251.166 88.0658C251.166 88.0658 250.764 88.3867 250.041 88.7878C247.229 90.4723 244.176 91.6756 240.962 92.3174C240.319 92.3976 239.596 92.3976 238.873 92.3976Z" fill="#3118D3"/>
<path d="M226.419 129.699C230.147 129.699 233.169 126.682 233.169 122.961C233.169 119.24 230.147 116.223 226.419 116.223C222.692 116.223 219.67 119.24 219.67 122.961C219.67 126.682 222.692 129.699 226.419 129.699Z" fill="#DDD8FB"/>
<path d="M226.419 130.1C222.482 130.1 219.268 126.891 219.268 122.961C219.268 119.03 222.482 115.821 226.419 115.821C230.356 115.821 233.57 119.03 233.57 122.961C233.57 126.891 230.356 130.1 226.419 130.1ZM226.419 116.623C222.883 116.623 220.071 119.431 220.071 122.961C220.071 126.49 222.883 129.298 226.419 129.298C229.954 129.298 232.766 126.49 232.766 122.961C232.766 119.431 229.954 116.623 226.419 116.623Z" fill="#3118D3"/>
<path d="M256.389 93.3605C260.117 93.3605 263.138 90.3436 263.138 86.6221C263.138 82.9006 260.117 79.8838 256.389 79.8838C252.661 79.8838 249.64 82.9006 249.64 86.6221C249.64 90.3436 252.661 93.3605 256.389 93.3605Z" fill="#DDD8FB"/>
<path d="M256.389 93.7613C252.452 93.7613 249.238 90.5525 249.238 86.6218C249.238 82.6911 252.452 79.4824 256.389 79.4824C260.326 79.4824 263.54 82.6911 263.54 86.6218C263.54 90.5525 260.326 93.7613 256.389 93.7613ZM256.389 80.2846C252.854 80.2846 250.042 83.0922 250.042 86.6218C250.042 90.1515 252.854 92.9591 256.389 92.9591C259.925 92.9591 262.737 90.1515 262.737 86.6218C262.737 83.0922 259.844 80.2846 256.389 80.2846Z" fill="#3118D3"/>
<path d="M101.235 118.469C104.962 118.469 107.984 115.452 107.984 111.731C107.984 108.009 104.962 104.992 101.235 104.992C97.5071 104.992 94.4854 108.009 94.4854 111.731C94.4854 115.452 97.5071 118.469 101.235 118.469Z" fill="#DDD8FB"/>
<path d="M101.235 118.79C97.2979 118.79 94.084 115.581 94.084 111.65C94.084 107.719 97.2979 104.511 101.235 104.511C105.172 104.511 108.386 107.719 108.386 111.65C108.386 115.661 105.172 118.79 101.235 118.79ZM101.235 105.313C97.6997 105.313 94.8875 108.121 94.8875 111.65C94.8875 115.18 97.6997 117.987 101.235 117.987C104.77 117.987 107.583 115.18 107.583 111.65C107.583 108.201 104.77 105.313 101.235 105.313Z" fill="#3118D3"/>
<path d="M117.786 88.4669C121.514 88.4669 124.536 85.45 124.536 81.7286C124.536 78.0071 121.514 74.9902 117.786 74.9902C114.059 74.9902 111.037 78.0071 111.037 81.7286C111.037 85.45 114.059 88.4669 117.786 88.4669Z" fill="#DDD8FB"/>
<path d="M117.787 88.8682C113.85 88.8682 110.636 85.6595 110.636 81.7288C110.636 77.7981 113.85 74.5894 117.787 74.5894C121.724 74.5894 124.938 77.7981 124.938 81.7288C124.938 85.6595 121.724 88.8682 117.787 88.8682ZM117.787 75.3915C114.251 75.3915 111.439 78.1992 111.439 81.7288C111.439 85.2584 114.251 88.066 117.787 88.066C121.322 88.066 124.134 85.2584 124.134 81.7288C124.134 78.1992 121.242 75.3915 117.787 75.3915Z" fill="#3118D3"/>
<path d="M163.024 48.5987C166.751 48.5987 169.773 45.5819 169.773 41.8604C169.773 38.1389 166.751 35.1221 163.024 35.1221C159.296 35.1221 156.274 38.1389 156.274 41.8604C156.274 45.5819 159.296 48.5987 163.024 48.5987Z" fill="#DDD8FB"/>
<path d="M163.023 48.9996C159.086 48.9996 155.872 45.7908 155.872 41.8601C155.872 37.9294 159.086 34.7207 163.023 34.7207C166.96 34.7207 170.174 37.9294 170.174 41.8601C170.174 45.7908 166.96 48.9996 163.023 48.9996ZM163.023 35.5229C159.488 35.5229 156.676 38.3305 156.676 41.8601C156.676 45.3897 159.488 48.1974 163.023 48.1974C166.559 48.1974 169.371 45.3897 169.371 41.8601C169.371 38.3305 166.559 35.5229 163.023 35.5229Z" fill="#3118D3"/>
<path d="M197.574 67.9313C201.301 67.9313 204.323 64.9144 204.323 61.1929C204.323 57.4714 201.301 54.4546 197.574 54.4546C193.846 54.4546 190.824 57.4714 190.824 61.1929C190.824 64.9144 193.846 67.9313 197.574 67.9313Z" fill="#DDD8FB"/>
<path d="M197.573 68.3321C193.636 68.3321 190.422 65.1234 190.422 61.1927C190.422 57.262 193.636 54.0532 197.573 54.0532C201.51 54.0532 204.724 57.262 204.724 61.1927C204.724 65.1234 201.51 68.3321 197.573 68.3321ZM197.573 54.8554C194.038 54.8554 191.225 57.663 191.225 61.1927C191.225 64.7223 194.038 67.5299 197.573 67.5299C201.108 67.5299 203.921 64.7223 203.921 61.1927C203.921 57.663 201.108 54.8554 197.573 54.8554Z" fill="#3118D3"/>
<path d="M238.551 47.3151C242.279 47.3151 245.3 44.2982 245.3 40.5767C245.3 36.8552 242.279 33.8384 238.551 33.8384C234.824 33.8384 231.802 36.8552 231.802 40.5767C231.802 44.2982 234.824 47.3151 238.551 47.3151Z" fill="#DDD8FB"/>
<path d="M238.551 47.7164C234.614 47.7164 231.4 44.5076 231.4 40.5769C231.4 36.6462 234.614 33.4375 238.551 33.4375C242.489 33.4375 245.703 36.6462 245.703 40.5769C245.703 44.5076 242.489 47.7164 238.551 47.7164ZM238.551 34.2397C235.016 34.2397 232.204 37.0473 232.204 40.5769C232.204 44.1065 235.016 46.9142 238.551 46.9142C242.087 46.9142 244.899 44.1065 244.899 40.5769C244.899 37.0473 242.006 34.2397 238.551 34.2397Z" fill="#3118D3"/>
<path d="M214.527 316.608C214.527 316.608 216.697 298.078 230.597 288.853C230.597 288.853 227.946 301.928 228.106 310.431C228.106 310.431 231.802 300.484 242.248 296.794C242.248 296.794 239.195 305.939 239.998 310.431C242.569 307.944 245.783 306.099 249.238 305.057C249.238 305.057 246.747 310.832 247.631 315.405" fill="white"/>
<path d="M214.527 317.009C214.286 317.009 214.125 316.768 214.125 316.528C214.125 316.367 216.455 297.676 230.356 288.531C230.516 288.451 230.677 288.451 230.838 288.531C230.998 288.612 231.079 288.772 230.998 288.932C230.998 289.013 228.668 300.323 228.507 308.666C230.114 305.618 234.212 299.281 242.167 296.473C242.328 296.393 242.488 296.473 242.569 296.553C242.649 296.633 242.729 296.794 242.649 296.954C242.649 297.034 239.917 305.137 240.319 309.629C242.89 307.302 245.863 305.618 249.157 304.655C249.318 304.655 249.479 304.655 249.559 304.816C249.639 304.896 249.72 305.056 249.639 305.217C249.639 305.297 247.229 310.992 248.032 315.404C248.032 315.645 247.952 315.806 247.711 315.886C247.47 315.886 247.309 315.806 247.229 315.565C246.586 311.875 247.952 307.463 248.595 305.698C245.542 306.741 242.649 308.506 240.319 310.752C240.158 310.912 239.917 310.912 239.756 310.752C239.676 310.672 239.676 310.591 239.676 310.511C238.953 306.741 240.962 299.842 241.685 297.516C232.123 301.286 228.588 310.511 228.507 310.591C228.427 310.752 228.266 310.912 228.106 310.832C227.945 310.832 227.784 310.672 227.784 310.431C227.624 303.292 229.472 292.943 230.034 289.735C217.098 298.88 214.928 316.447 214.928 316.608C214.928 316.848 214.687 317.009 214.527 317.009Z" fill="#3118D3"/>
<path d="M169.853 316.608C163.264 304.816 149.765 296.072 149.765 296.072C149.765 296.072 154.988 304.255 156.274 312.036C152.738 309.95 148.801 308.586 144.703 308.105C144.703 308.105 148.399 312.517 149.203 317.33C149.203 317.33 144.462 316.047 141.168 315.485C141.168 315.485 143.257 318.533 143.257 321.181" fill="white"/>
<path d="M143.177 321.581C142.936 321.581 142.775 321.421 142.775 321.18C142.775 318.613 140.847 315.725 140.766 315.645C140.686 315.485 140.686 315.324 140.766 315.164C140.847 315.003 141.007 315.003 141.168 315.003C143.739 315.405 147.194 316.287 148.56 316.688C147.596 312.276 144.302 308.265 144.302 308.265C144.221 308.105 144.221 307.944 144.302 307.864C144.382 307.704 144.543 307.623 144.703 307.623C148.56 308.105 152.337 309.308 155.711 311.153C154.185 303.773 149.444 296.313 149.444 296.232C149.364 296.072 149.364 295.831 149.524 295.751C149.685 295.591 149.846 295.591 150.006 295.671C150.167 295.751 163.666 304.655 170.254 316.367C170.335 316.528 170.254 316.768 170.094 316.929C169.933 317.009 169.692 316.929 169.531 316.768C164.389 307.543 154.747 300.003 151.051 297.355C152.658 300.163 155.711 306.099 156.675 311.875C156.675 312.116 156.595 312.276 156.354 312.356C156.274 312.356 156.193 312.356 156.113 312.276C152.899 310.351 149.364 309.067 145.668 308.506C146.793 310.03 149.042 313.479 149.605 317.169C149.605 317.33 149.605 317.41 149.444 317.57C149.364 317.651 149.203 317.731 149.042 317.651C149.042 317.651 145.105 316.608 141.972 315.966C142.936 317.57 143.498 319.335 143.579 321.18C143.659 321.341 143.498 321.581 143.177 321.581C143.257 321.581 143.257 321.581 143.177 321.581Z" fill="#3118D3"/>
<path d="M50.2935 214.57C50.2935 214.57 40.0088 250.989 37.9197 253.717C36.152 256.043 19.0377 277.221 14.1364 283.317C13.2525 284.36 13.0918 285.884 13.6543 287.168C16.1451 292.222 21.8499 296.553 25.2245 298.719C26.6708 299.682 28.5992 299.441 29.8848 298.238C36.152 291.821 54.793 272.648 57.9266 269.279C61.703 265.188 73.5144 243.69 73.5144 243.69L82.5938 259.894L76.8087 300.324C76.5676 301.928 77.4515 303.452 78.8978 304.174C84.2812 306.5 92.7982 306.18 97.137 305.779C98.744 305.618 100.11 304.415 100.431 302.891C102.119 294.067 107.582 265.75 107.582 261.819C107.582 257.246 101.717 229.411 101.717 229.411L50.2935 214.57Z" fill="white"/>
<path d="M90.9504 306.34C86.7722 306.34 82.1119 305.939 78.6569 304.415C77.0499 303.693 76.0858 301.928 76.3268 300.163L82.1119 259.893L73.4342 244.411C71.4255 248.101 61.6229 265.749 58.1679 269.439C55.0343 272.889 35.9112 292.462 30.1261 298.398C28.7601 299.762 26.5907 300.003 24.9837 298.96C21.6894 296.794 15.7436 292.382 13.2528 287.248C12.61 285.884 12.7707 284.2 13.8152 282.996C18.9575 276.659 35.9112 255.722 37.5985 253.396C39.2055 251.31 46.3566 227.004 49.892 214.41C49.892 214.329 49.9723 214.249 50.0527 214.169C50.133 214.169 50.2937 214.169 50.374 214.169L101.717 228.929C101.878 228.929 101.958 229.09 102.039 229.25C102.28 230.373 107.904 257.086 107.904 261.738C107.904 265.669 102.44 294.227 100.753 302.81C100.351 304.575 98.9049 305.858 97.1372 306.019C95.4499 306.179 93.2805 306.34 90.9504 306.34ZM73.4342 243.208C73.5949 243.208 73.6753 243.288 73.7556 243.449L82.8351 259.653C82.9155 259.733 82.9154 259.813 82.9154 259.893L77.1303 300.323C76.8893 301.767 77.6927 303.131 78.9783 303.693C84.201 305.939 92.5573 305.618 97.0569 305.297C98.5032 305.137 99.7084 304.094 99.9495 302.65C101.637 293.986 107.101 265.509 107.101 261.658C107.101 257.407 101.878 232.298 101.315 229.571L50.6151 215.051C49.4099 219.142 40.2501 251.23 38.3217 253.877C36.554 256.203 19.6807 277.14 14.458 283.478C13.6545 284.44 13.4938 285.724 14.0562 286.847C16.4667 291.82 22.2519 296.152 25.5462 298.238C26.8318 299.12 28.5994 298.879 29.644 297.837C35.4291 291.9 54.5522 272.327 57.6858 268.878C61.3819 264.867 73.0325 243.529 73.1932 243.368C73.1932 243.288 73.2735 243.208 73.4342 243.208Z" fill="#3118D3"/>
<path d="M118.59 194.837C120.277 193.794 122.366 193.553 124.214 194.195C127.107 195.398 131.928 199.168 131.928 199.168C132.892 200.291 133.133 201.816 132.571 203.179L124.455 202.778L118.59 194.837Z" fill="#DDD8FB"/>
<path d="M132.571 203.58L124.456 203.179C124.295 203.179 124.215 203.099 124.134 203.019L118.269 195.077C118.188 194.997 118.188 194.836 118.188 194.756C118.188 194.676 118.269 194.596 118.349 194.516C120.117 193.393 122.367 193.152 124.295 193.874C127.188 195.077 131.928 198.687 132.089 198.847C133.214 200.051 133.535 201.815 132.892 203.34C132.892 203.5 132.732 203.58 132.571 203.58ZM124.616 202.377L132.25 202.778C132.651 201.655 132.41 200.372 131.607 199.489C131.607 199.489 126.786 195.799 124.054 194.676C122.447 194.114 120.679 194.275 119.233 195.077L124.616 202.377Z" fill="#3118D3"/>
<path d="M91.0304 224.999C92.8785 226.844 95.771 229.25 95.771 229.25C95.771 229.25 79.0584 229.972 67.1668 226.122C60.2567 223.956 53.8288 220.587 48.0437 216.175L49.6506 210.319C49.6506 210.319 44.1869 205.826 45.8742 197.323C47.5616 188.82 60.8192 165.637 65.9615 162.107C71.1039 158.578 79.7816 156.973 88.9414 158.257C99.7885 161.065 108.306 167.241 111.439 175.905C113.528 181.921 115.135 188.098 116.34 194.355L91.1911 218.902C89.5842 220.426 89.3431 222.913 90.709 224.678C90.8697 224.758 90.9501 224.918 91.0304 224.999Z" fill="#DDD8FB"/>
<path d="M134.579 205.024C134.579 206.148 118.992 237.352 118.992 237.352C118.992 237.352 117.465 239.759 113.206 238.155C108.948 236.55 100.511 233.502 95.7706 229.25C95.7706 229.25 92.8781 226.844 91.03 224.999C90.9497 224.919 90.789 224.758 90.7086 224.678C89.423 222.913 89.5837 220.426 91.1907 218.902L116.34 194.275C117.947 193.393 134.579 203.901 134.579 205.024Z" fill="white"/>
<path d="M115.938 239.117C114.974 239.117 114.01 238.877 113.046 238.556L112.322 238.315C107.743 236.55 100.029 233.662 95.4491 229.571C95.4491 229.571 92.4762 227.084 90.7085 225.32C90.5478 225.239 90.4675 225.079 90.3871 224.919C88.9409 222.993 89.1819 220.266 90.9496 218.662L116.099 194.034L116.179 193.954C116.501 193.794 117.384 193.313 124.777 197.644C124.857 197.725 135.061 203.741 135.061 205.024C135.061 206.228 122.045 232.299 119.393 237.513C118.59 238.636 117.304 239.197 115.938 239.117ZM116.581 194.596L91.512 219.143C90.0657 220.507 89.8247 222.753 91.0299 224.357L91.3513 224.678C93.119 226.443 96.0116 228.849 96.0919 228.929C100.511 232.94 108.144 235.748 112.724 237.513L113.447 237.753C117.304 239.197 118.67 237.192 118.75 237.112C124.777 224.999 133.856 206.629 134.258 205.024C133.133 203.26 118.108 194.355 116.581 194.596Z" fill="#3118D3"/>
<path d="M132.651 209.516C132.651 209.516 129.678 207.27 130.643 205.826C131.607 204.383 134.339 207.27 135.303 208.955C136.267 210.64 135.062 212.003 133.214 210.399C133.214 210.399 134.66 212.645 133.053 213.608C133.053 213.608 133.214 214.971 131.928 215.212C131.928 215.212 131.928 216.736 130.643 216.897C129.357 217.057 125.581 214.33 125.741 212.485C125.741 211.763 126.304 211.121 127.027 211.121C127.188 211.121 127.348 211.121 127.509 211.201C127.509 211.201 127.509 208.795 128.875 209.516C128.875 209.516 128.473 208.073 129.357 207.671C130.241 207.27 132.651 209.516 132.651 209.516Z" fill="white"/>
<path d="M130.482 217.298C129.518 217.298 127.911 216.335 126.866 215.292C126.223 214.651 125.179 213.528 125.259 212.404C125.259 211.843 125.581 211.281 125.982 210.961C126.304 210.72 126.625 210.64 127.027 210.64C127.027 209.998 127.268 209.436 127.75 209.035C127.911 208.955 128.071 208.875 128.313 208.875C128.232 208.233 128.473 207.511 129.036 207.19C129.437 207.03 129.839 207.11 130.161 207.271C129.92 206.709 129.92 206.067 130.241 205.586C130.482 205.185 130.884 205.024 131.366 205.024C132.892 205.105 134.901 207.511 135.544 208.714C136.106 209.677 136.026 210.72 135.464 211.201C135.062 211.522 134.419 211.602 133.937 211.362C134.098 211.763 134.098 212.244 134.017 212.645C133.937 213.046 133.696 213.447 133.294 213.688C133.294 214.41 132.892 215.132 132.169 215.373C132.089 216.255 131.446 216.977 130.562 217.137L130.482 217.298ZM127.027 211.522C126.866 211.522 126.706 211.602 126.545 211.683C126.304 211.923 126.143 212.244 126.143 212.565C126.063 213.126 126.625 213.929 127.429 214.731C128.634 215.854 130.08 216.576 130.562 216.496C131.526 216.335 131.526 215.212 131.526 215.212C131.526 215.052 131.687 214.811 131.848 214.811C132.732 214.651 132.651 213.688 132.651 213.608C132.651 213.447 132.732 213.287 132.812 213.207C133.053 213.046 133.294 212.806 133.294 212.565C133.375 211.843 133.214 211.201 132.812 210.64C132.732 210.479 132.732 210.239 132.892 210.158C133.053 209.998 133.294 209.998 133.375 210.158C134.178 210.88 134.74 210.88 134.982 210.72C135.223 210.559 135.303 209.918 134.901 209.276C134.098 207.832 132.33 206.067 131.366 205.987C131.205 205.987 131.044 206.067 130.964 206.228C130.562 206.869 131.285 207.832 132.009 208.554C132.41 208.875 132.732 209.196 132.973 209.356C133.133 209.517 133.133 209.757 133.053 209.918C132.892 210.078 132.651 210.078 132.491 209.998C132.169 209.757 131.848 209.517 131.526 209.196C130.562 208.394 129.759 207.992 129.518 208.073C128.955 208.313 129.277 209.517 129.277 209.517C129.357 209.757 129.196 209.918 128.955 209.998C128.875 209.998 128.795 209.998 128.714 209.998C128.473 209.837 128.313 209.918 128.313 209.918C128.071 210.078 127.911 210.88 127.911 211.362C127.911 211.522 127.83 211.602 127.75 211.683C127.67 211.763 127.509 211.763 127.429 211.763C127.268 211.522 127.107 211.522 127.027 211.522Z" fill="#3118D3"/>
<path d="M133.053 213.929C132.892 213.929 132.812 213.848 132.731 213.768C131.607 212.244 130.16 210.88 128.634 209.757C128.473 209.677 128.393 209.436 128.473 209.196C128.553 209.035 128.794 208.955 129.035 209.035C130.723 210.239 132.169 211.602 133.374 213.287C133.535 213.447 133.455 213.688 133.294 213.848C133.214 213.929 133.133 214.009 133.053 213.929Z" fill="#3118D3"/>
<path d="M131.928 215.533C131.848 215.533 131.687 215.453 131.606 215.453C130.401 214.249 129.116 213.046 127.83 212.003C127.669 211.843 127.589 211.602 127.75 211.442C127.91 211.281 128.151 211.201 128.312 211.361C129.678 212.484 130.964 213.607 132.169 214.891C132.33 215.051 132.33 215.292 132.169 215.453C132.089 215.533 132.008 215.533 131.928 215.533Z" fill="#3118D3"/>
<path d="M88.9409 194.596C88.7802 194.596 88.6195 194.516 88.5392 194.355C88.5392 194.275 87.9767 192.831 85.2449 192.831C82.1113 192.831 65.1576 193.954 64.9969 193.954C64.8362 193.954 64.6755 193.874 64.6755 193.794C64.5951 193.633 64.5951 193.553 64.6755 193.393C64.7558 193.152 75.2012 172.616 72.9515 167.562C72.8711 167.322 72.9515 167.161 73.1122 167.001C73.2729 166.92 73.5139 167.001 73.6746 167.161C75.844 172.054 67.4877 189.462 65.72 193.072C69.0144 192.831 82.513 192.029 85.3252 192.029C88.6999 192.029 89.423 193.954 89.423 194.034C89.5034 194.275 89.423 194.435 89.182 194.516C89.0213 194.596 89.0213 194.596 88.9409 194.596Z" fill="#3118D3"/>
<path d="M63.872 211.121C58.9707 211.121 54.2301 211.041 52.141 210.88C51.9 210.88 51.7393 210.64 51.7393 210.479C51.7393 210.239 51.9803 210.078 52.141 210.078C56.2388 210.399 71.1838 210.399 76.0047 210.078C80.0222 209.757 84.2003 209.196 84.9235 206.789C85.0038 206.548 85.2449 206.468 85.4055 206.468C85.5662 206.468 85.7269 206.789 85.7269 206.95C84.8431 209.837 80.5846 210.479 76.085 210.8C73.6746 211.041 68.6929 211.121 63.872 211.121Z" fill="#3118D3"/>
<path d="M108.065 202.778C107.824 202.778 107.663 202.618 107.663 202.377C107.663 202.217 108.145 185.612 107.663 180.799C107.663 180.558 107.824 180.397 107.984 180.397C108.226 180.397 108.386 180.558 108.386 180.799C108.868 185.612 108.386 201.736 108.386 202.457C108.467 202.618 108.306 202.778 108.065 202.778Z" fill="#3118D3"/>
<path d="M98.3424 193.152C100.914 191.307 109.27 189.783 114.011 196.521L112.243 198.286C112.243 198.286 109.511 194.355 104.931 194.195C100.351 194.034 92.8787 200.532 93.6822 208.794C94.4053 210.639 96.0927 212.003 98.1014 212.164L95.6909 214.57C95.6909 214.57 89.7451 212.885 90.7093 207.591C91.6735 202.297 95.3695 194.997 95.3695 194.997L98.3424 193.152Z" fill="white"/>
<path d="M95.6905 214.971H95.6101C95.5298 214.971 89.3429 213.126 90.3071 207.591C91.1909 202.297 94.8066 195.237 94.9673 194.917C94.9673 194.836 95.0477 194.756 95.128 194.756L98.1813 192.911C99.7883 191.708 103.163 190.825 106.618 191.387C109.752 191.868 112.564 193.713 114.412 196.361C114.492 196.521 114.492 196.762 114.331 196.842L112.564 198.607C112.483 198.687 112.323 198.767 112.242 198.687C112.162 198.687 112.001 198.607 111.921 198.526C111.921 198.526 109.269 194.756 104.931 194.596C102.842 194.516 100.029 195.959 97.8599 198.286C95.128 201.093 93.7621 204.864 94.0835 208.714C94.7263 210.399 96.3333 211.602 98.1813 211.682C98.342 211.682 98.4224 211.843 98.5027 211.923C98.5831 212.083 98.5027 212.244 98.4223 212.324L96.0119 214.731C95.9315 214.891 95.7708 214.971 95.6905 214.971ZM95.6101 195.318C95.128 196.2 91.9141 202.858 91.0302 207.671C90.3071 212.083 94.4852 213.768 95.5298 214.089L97.2171 212.404C95.3691 212.003 93.8424 210.72 93.1997 208.875C92.8783 204.783 94.3245 200.692 97.1368 197.724C99.4669 195.237 102.44 193.713 104.77 193.794C108.707 193.954 111.278 196.681 112.082 197.724L113.287 196.521C111.6 194.195 109.028 192.59 106.216 192.189C103.083 191.628 99.7883 192.51 98.342 193.553L95.6101 195.318Z" fill="#3118D3"/>
<path d="M87.013 195.639C89.3431 195.077 91.6733 194.355 93.923 193.553C95.53 192.831 97.5387 192.591 98.3422 193.152L96.3335 194.917C96.3335 194.917 100.672 196.281 101.476 197.644C102.279 199.008 100.351 201.495 100.351 201.495C100.351 201.495 101.476 206.147 98.6636 205.746C98.6636 205.746 98.6636 208.313 96.2532 207.912C96.0121 208.795 95.0479 209.356 94.1641 209.035C94.0034 208.955 93.7623 208.875 93.6016 208.795C93.6016 208.795 94.1641 206.789 92.8785 206.308C91.5929 205.827 90.5484 207.591 90.5484 207.591C88.5396 207.431 86.6113 206.468 85.2453 204.864C85.3257 204.944 83.3973 198.687 87.013 195.639Z" fill="white"/>
<path d="M94.8065 209.597C94.3244 209.597 93.9226 209.436 93.5209 209.196C93.3602 209.116 93.2798 208.955 93.3602 208.714C93.3602 208.714 93.8423 207.03 92.8781 206.709C91.9139 206.388 91.1104 207.832 91.1104 207.832C91.0301 207.992 90.8694 208.073 90.7087 208.073C88.5392 207.912 86.5305 206.869 85.1646 205.265C85.0842 205.265 85.0842 205.185 85.0842 205.105C85.0039 204.864 83.1559 198.607 86.8519 195.478C86.9323 195.478 86.9323 195.398 87.0126 195.398C89.3427 194.837 91.6729 194.115 93.8423 193.313C95.5296 192.591 97.6187 192.189 98.6632 192.992C98.8239 193.152 98.8239 193.393 98.7436 193.553L98.6632 193.633L97.1366 194.917C98.4222 195.398 101.154 196.441 101.797 197.644C102.52 199.088 101.234 201.174 100.752 201.735C100.913 202.457 101.234 204.704 100.27 205.746C99.9488 206.067 99.4667 206.308 98.9846 206.308C98.9043 206.95 98.5829 207.511 98.1008 207.992C97.6187 208.394 97.0563 208.554 96.4135 208.474C96.1724 208.955 95.7707 209.356 95.2886 209.597C95.2082 209.517 94.9672 209.517 94.8065 209.597ZM94.1637 208.634C94.4851 208.795 94.8065 208.795 95.1279 208.714C95.5296 208.554 95.7707 208.233 95.9314 207.832C96.0117 207.672 96.1724 207.591 96.3331 207.591C96.8152 207.672 97.2973 207.591 97.6187 207.271C98.0204 206.869 98.1811 206.308 98.2615 205.746C98.2615 205.666 98.3418 205.506 98.4222 205.425C98.5025 205.345 98.6632 205.345 98.7436 205.345C99.065 205.425 99.4667 205.345 99.7078 205.024C100.431 204.222 100.11 202.217 99.9488 201.495C99.9488 201.415 99.9488 201.254 100.029 201.174C100.511 200.532 101.636 198.767 101.074 197.805C100.511 196.842 97.8597 195.799 96.1724 195.238C96.0117 195.158 95.9314 195.077 95.9314 194.917C95.9314 194.756 95.9314 194.596 96.0921 194.516L97.6187 193.232C96.4135 193.072 95.2082 193.313 94.0833 193.874C91.8336 194.756 89.5034 195.478 87.1733 195.96C84.12 198.607 85.486 203.901 85.6467 204.623C86.8519 205.987 88.5392 206.869 90.3873 207.11C90.7087 206.549 91.6729 205.345 93.0388 205.907C94.244 206.388 94.3244 207.752 94.1637 208.634Z" fill="#3118D3"/>
<path d="M100.351 201.896C100.19 201.896 100.03 201.815 100.03 201.655C100.03 201.655 98.503 198.847 96.655 198.206C96.4139 198.125 96.3336 197.885 96.4139 197.724C96.4943 197.484 96.7353 197.403 96.896 197.484C98.9851 198.206 100.592 201.174 100.672 201.334C100.753 201.495 100.672 201.735 100.512 201.896C100.512 201.896 100.431 201.896 100.351 201.896Z" fill="#3118D3"/>
<path d="M98.7443 206.147H98.6639C98.4229 206.067 98.3425 205.826 98.4229 205.666C98.7443 204.463 98.0211 201.735 96.0124 201.013C95.7713 200.933 95.691 200.692 95.7713 200.532C95.8517 200.291 96.0927 200.211 96.2534 200.291C98.5836 201.174 99.6281 204.302 99.146 205.987C98.9853 206.067 98.905 206.147 98.7443 206.147Z" fill="#3118D3"/>
<path d="M96.333 208.313C96.092 208.313 95.9313 208.153 95.9313 207.992C95.7706 206.949 95.2081 203.981 94.0029 203.099C93.8422 202.938 93.7619 202.698 93.9226 202.537C94.0833 202.377 94.3243 202.297 94.485 202.457C96.1723 203.741 96.6544 207.752 96.6544 207.912C96.7348 208.153 96.5741 208.313 96.333 208.313Z" fill="#3118D3"/>
<path d="M121.402 232.539L153.944 218.661C153.944 218.661 151.694 222.271 154.345 223.956C156.997 225.64 168.085 219.544 167.924 216.897C167.764 214.249 163.184 212.886 157.077 213.447C150.971 214.009 127.991 219.062 127.991 219.062L121.402 232.539Z" fill="white"/>
<path d="M121.403 232.94C121.322 232.94 121.162 232.86 121.081 232.86C121.001 232.7 120.921 232.539 121.001 232.379L127.67 218.902C127.75 218.822 127.831 218.742 127.911 218.661C128.875 218.421 150.971 213.527 156.997 213.046C161.497 212.645 165.273 213.287 167.121 214.811C167.764 215.292 168.166 216.094 168.246 216.897C168.407 218.742 164.631 221.068 163.506 221.79C160.211 223.795 155.792 225.4 154.105 224.357C152.177 223.154 152.418 220.988 153.06 219.544L121.563 232.94C121.483 232.94 121.483 232.94 121.403 232.94ZM128.313 219.383L122.206 231.737L153.783 218.26C153.944 218.18 154.105 218.26 154.266 218.34C154.346 218.501 154.346 218.661 154.266 218.822C154.185 218.982 152.257 222.111 154.587 223.555C155.712 224.277 159.488 223.154 163.184 220.988C166.318 219.143 167.604 217.538 167.604 216.816C167.523 216.175 167.202 215.693 166.72 215.292C165.113 213.928 161.497 213.367 157.239 213.688C151.453 214.33 130.563 218.902 128.313 219.383Z" fill="#3118D3"/>
<path d="M157.318 218.18C157.961 217.699 158.604 217.298 159.327 216.977C162.621 215.613 165.835 215.774 166.398 216.736C167.041 217.859 160.934 221.87 157.881 222.592C154.667 223.234 153.14 221.549 157.318 218.18Z" fill="#DDD8FB"/>
<path d="M156.596 223.073C155.792 223.154 154.989 222.833 154.507 222.111C154.185 221.389 154.346 220.025 157.078 217.779C157.721 217.298 158.444 216.816 159.167 216.495C162.461 215.132 165.997 215.132 166.72 216.415C166.88 216.656 166.88 216.977 166.72 217.217C165.997 218.822 160.774 222.191 157.881 222.833C157.48 222.993 156.997 223.073 156.596 223.073ZM157.56 218.501C155.471 220.185 154.989 221.309 155.23 221.79C155.471 222.271 156.274 222.432 157.801 222.111C161.095 221.389 166.157 217.618 166.077 216.897C165.675 216.255 162.863 215.934 159.488 217.298C158.765 217.618 158.122 218.02 157.56 218.501Z" fill="#3118D3"/>
<path d="M153.944 219.063C153.864 219.063 153.864 219.063 153.783 219.063C153.542 218.982 153.462 218.742 153.623 218.501C154.346 216.897 156.917 215.453 156.997 215.453C157.158 215.373 157.399 215.453 157.56 215.613C157.64 215.774 157.56 216.014 157.399 216.175C157.399 216.175 154.989 217.539 154.346 218.902C154.265 218.982 154.105 219.063 153.944 219.063Z" fill="#3118D3"/>
<path d="M85.6472 150.155C85.3258 153.444 84.6027 156.652 83.3975 159.781C83.3975 159.781 89.3433 162.188 91.9145 161.064L92.8787 155.128L85.6472 150.155Z" fill="white"/>
<path d="M90.0661 161.787C87.1736 161.787 83.3971 160.263 83.1561 160.182C83.0757 160.102 82.9954 160.102 82.915 159.942C82.915 159.862 82.915 159.701 82.915 159.621C84.1203 156.573 84.8434 153.364 85.1648 150.075C85.1648 149.914 85.2452 149.834 85.4059 149.754C85.5666 149.674 85.6469 149.674 85.8076 149.754L93.039 154.728C93.1997 154.808 93.1997 154.968 93.1997 155.129L92.2355 161.065C92.2355 161.225 92.1552 161.305 91.9945 161.386C91.432 161.707 90.7893 161.867 90.0661 161.787ZM83.8792 159.621C85.6469 160.343 89.584 161.546 91.4321 160.824L92.3159 155.289L85.888 150.877C85.6469 153.845 84.9238 156.813 83.8792 159.621Z" fill="#3118D3"/>
<path d="M80.4239 148.23C77.7724 138.925 85.727 139.085 85.727 139.085C85.727 139.085 85.0038 135.074 88.3785 133.309C91.7532 131.544 94.7261 133.309 98.3418 131.143C101.957 128.978 108.144 130.261 108.948 137.16C109.751 144.059 106.859 145.583 106.859 145.583L93.6815 150.957L84.361 150.877L80.4239 148.23Z" fill="#DDD8FB"/>
<path d="M93.5209 151.439L84.2004 151.358C84.12 151.358 84.0397 151.358 83.9593 151.278L80.1026 148.551C80.0222 148.47 79.9419 148.39 79.9419 148.31C79.058 145.101 79.2187 142.614 80.5847 140.93C81.7095 139.566 83.3969 138.764 85.1646 138.684C85.0842 137.561 85.1646 134.432 88.0571 132.988C89.5838 132.266 91.1907 131.945 92.7977 132.026C94.5654 132.106 96.3331 131.705 97.9401 130.822C100.109 129.619 102.761 129.459 105.011 130.582C107.341 131.705 108.787 134.111 109.189 137.16C109.992 144.299 107.02 145.903 106.859 145.984L93.6012 151.358C93.6816 151.439 93.6012 151.439 93.5209 151.439ZM84.3611 150.556L93.4405 150.636L106.618 145.262C106.618 145.262 109.189 143.818 108.466 137.24C108.064 133.63 106.216 132.026 104.77 131.304C102.761 130.341 100.431 130.421 98.4222 131.544C96.7348 132.507 94.8065 132.908 92.8781 132.828C91.3514 132.748 89.8248 133.069 88.4589 133.71C85.4056 135.315 85.9681 138.924 86.0484 139.005C86.0484 139.085 86.0484 139.245 85.9681 139.326C85.8877 139.406 85.8074 139.486 85.6467 139.486C85.6467 139.486 82.7541 139.486 81.2275 141.411C80.1026 142.855 79.9419 145.101 80.7454 147.989L84.3611 150.556Z" fill="#3118D3"/>
<path d="M106.216 140.93C106.216 140.93 109.832 158.739 99.5474 159.38C89.2627 160.022 84.1204 151.76 84.1204 151.76C80.585 152.722 78.4156 149.273 80.4243 148.23C82.4331 147.187 83.8793 149.914 83.8793 149.914C83.8793 149.914 87.8968 148.15 87.8164 142.214C87.8164 142.214 92.316 144.299 95.0479 140.85C95.0479 140.85 104.931 143.417 108.225 139.326" fill="white"/>
<path d="M98.5031 159.781C89.8254 159.781 84.9241 153.524 83.9599 152.24C81.7101 152.722 79.9424 151.599 79.38 150.235C78.9782 149.353 79.2996 148.31 80.1835 147.909C80.7459 147.588 81.3887 147.508 81.9512 147.748C82.7547 148.069 83.4778 148.711 83.9599 149.433C84.8437 148.871 87.4149 146.946 87.3346 142.213C87.3346 142.053 87.4149 141.973 87.4952 141.892C87.5756 141.812 87.7363 141.812 87.897 141.892C88.0577 141.973 92.1555 143.818 94.6463 140.609C94.7267 140.448 94.8874 140.448 95.0481 140.448C95.1284 140.448 104.69 142.935 107.824 139.085C107.984 138.924 108.225 138.844 108.386 139.004C108.547 139.165 108.627 139.406 108.466 139.566C108.466 139.566 108.466 139.566 108.386 139.646C107.904 140.208 107.261 140.769 106.618 141.09C106.859 142.374 108.547 152.321 104.77 157.214C103.565 158.818 101.637 159.861 99.5476 159.941C99.2262 159.781 98.8245 159.781 98.5031 159.781ZM84.1206 151.358C84.2813 151.358 84.3616 151.438 84.442 151.518C84.5223 151.599 89.6647 159.54 99.5476 158.899C101.396 158.818 103.083 157.936 104.208 156.492C107.583 152.08 106.217 142.935 105.895 141.17C102.038 142.614 96.414 141.411 95.1284 141.09C92.8786 143.818 89.504 143.015 88.138 142.614C87.9773 148.31 84.2009 150.075 83.9599 150.155C83.7992 150.235 83.5581 150.155 83.4778 149.994C83.076 149.272 82.5136 148.711 81.7905 148.31C81.3887 148.23 80.987 148.23 80.6656 148.47C80.1835 148.711 79.9424 149.353 80.1835 149.834C80.5852 150.797 82.0315 151.839 84.0402 151.278L84.1206 151.358Z" fill="#3118D3"/>
<path d="M83.0762 150.957C82.9155 150.957 82.8351 150.877 82.7548 150.797C82.7548 150.717 82.112 149.273 80.9871 149.594C80.8264 149.674 80.6657 149.513 80.5854 149.433C80.505 149.273 80.6657 149.112 80.7461 149.032C82.112 148.631 82.9958 149.834 83.3172 150.556C83.3976 150.717 83.3172 150.877 83.1565 150.957C83.1565 150.957 83.1565 150.957 83.0762 150.957Z" fill="#3118D3"/>
<path d="M95.1285 145.984C94.5661 145.823 93.9233 145.663 93.2805 145.582C92.9591 145.502 92.6377 145.502 92.3966 145.502C92.0752 145.502 91.7539 145.502 91.4325 145.422C91.2718 145.422 91.1914 145.342 91.1914 145.181C91.1914 145.101 91.2718 145.021 91.3521 145.021C91.6735 144.941 91.9949 144.86 92.3966 144.78C92.718 144.78 93.1198 144.78 93.4412 144.78C94.1643 144.86 94.8071 145.181 95.3696 145.582C95.4499 145.663 95.4499 145.823 95.3696 145.903C95.2892 145.984 95.2089 145.984 95.1285 145.984Z" fill="#3118D3"/>
<path d="M104.85 146.224C104.127 146.144 103.404 146.144 102.681 146.144C101.958 146.144 101.235 146.144 100.512 146.144C100.351 146.144 100.271 146.064 100.271 145.903C100.271 145.823 100.351 145.743 100.431 145.663C100.833 145.582 101.154 145.502 101.556 145.422C101.958 145.342 102.36 145.342 102.681 145.342C103.484 145.342 104.208 145.502 105.011 145.823C105.091 145.903 105.172 145.984 105.091 146.144C105.091 146.144 105.011 146.224 104.85 146.224Z" fill="#3118D3"/>
<path d="M100.191 152.642C100.03 152.642 99.9495 152.642 99.7888 152.561C98.8247 152.321 98.2622 151.438 98.3426 150.476C98.3426 150.235 98.5836 150.075 98.8247 150.155C99.0657 150.155 99.2264 150.396 99.146 150.636C99.146 151.198 99.4674 151.679 100.03 151.759C100.351 151.839 100.753 151.679 100.833 151.358V151.278C100.914 151.118 100.914 150.957 100.833 150.797C100.512 150.476 100.03 150.235 99.5478 150.155C99.3067 150.155 99.2264 149.914 99.2264 149.754C99.3871 148.39 99.6281 147.026 100.03 145.663C100.11 145.422 100.351 145.342 100.512 145.342C100.753 145.422 100.833 145.663 100.833 145.823C100.512 146.946 100.191 148.149 100.03 149.353C100.592 149.513 101.074 149.834 101.476 150.235C101.717 150.556 101.717 151.037 101.557 151.358C101.396 152.16 100.833 152.642 100.191 152.642Z" fill="#3118D3"/>
<path d="M92.6377 148.15C92.6377 148.792 92.9591 149.353 93.4412 149.433C93.9233 149.513 94.325 148.952 94.325 148.23C94.325 148.07 94.325 147.829 94.2447 147.668L93.4412 148.07L93.8429 147.107C93.7626 147.027 93.6019 147.027 93.5215 147.027C93.0394 146.946 92.6377 147.508 92.6377 148.15Z" fill="#3118D3"/>
<path d="M101.797 148.47C101.797 149.112 102.118 149.673 102.6 149.754C103.082 149.834 103.484 149.272 103.484 148.55C103.484 148.39 103.484 148.149 103.404 147.989L102.6 148.39L103.002 147.427C102.922 147.347 102.761 147.347 102.681 147.347C102.279 147.267 101.877 147.748 101.797 148.47Z" fill="#3118D3"/>
<path d="M96.6549 155.449C96.4139 155.449 96.0925 155.369 95.8514 155.289C95.1283 154.968 94.6462 154.326 94.5658 153.524C94.4855 153.283 94.6462 153.123 94.8872 153.043C95.1283 152.963 95.289 153.123 95.3693 153.364C95.4497 153.845 95.6907 154.326 96.1728 154.487C96.8156 154.647 97.4584 154.487 97.9405 154.086C98.1012 153.925 98.3422 154.005 98.5029 154.166C98.6636 154.326 98.5833 154.567 98.4226 154.727C97.8601 155.209 97.2977 155.369 96.6549 155.449Z" fill="#3118D3"/>
<path d="M105.895 131.625C102.761 132.026 100.11 133.149 95.5297 135.235C94.6458 135.475 93.762 135.796 92.8782 136.197L79.8616 143.577C79.7812 140.369 80.1026 137.16 80.9061 134.031C82.1114 129.539 83.4773 127.293 86.7716 125.288C96.3332 120.314 103.565 126.731 105.895 131.625Z" fill="white"/>
<path d="M79.862 143.978C79.7816 143.978 79.7013 143.978 79.7013 143.898C79.5406 143.818 79.5406 143.738 79.4602 143.577C79.3799 140.368 79.7013 137.079 80.5048 133.951C81.7903 129.138 83.2366 126.972 86.5309 125.047C90.3877 123.041 94.1641 122.64 97.6995 123.763C101.476 125.127 104.529 127.854 106.297 131.464C106.377 131.544 106.377 131.705 106.297 131.785C106.216 131.865 106.136 131.945 105.975 132.026C102.842 132.427 100.19 133.55 95.6908 135.555C95.6104 135.555 95.6104 135.555 95.53 135.555C95.289 135.635 94.0034 136.037 93.0392 136.518L80.103 143.978C80.0227 143.978 79.9423 143.978 79.862 143.978ZM93.682 123.924C91.3519 124.004 89.0218 124.565 86.9327 125.769C83.8794 127.614 82.5135 129.619 81.3082 134.192C80.5851 137.079 80.2637 139.967 80.2637 142.935L92.7178 135.876C93.6017 135.475 94.5659 135.154 95.4497 134.833C99.6279 132.908 102.279 131.785 105.333 131.304C103.645 128.175 100.833 125.688 97.4584 124.485C96.2532 124.164 94.9676 123.924 93.682 123.924Z" fill="#3118D3"/>
<path d="M108.868 137.24C103.806 135.234 98.1819 134.833 92.8789 136.197L95.9322 134.673C95.9322 134.673 102.681 130.582 105.815 130.261C107.261 130.261 108.788 130.421 110.234 130.662C116.019 131.624 108.868 137.24 108.868 137.24Z" fill="white"/>
<path d="M108.868 137.641C108.788 137.641 108.788 137.641 108.707 137.641C103.726 135.716 98.1816 135.315 92.9589 136.598C92.7179 136.678 92.5572 136.518 92.4768 136.358C92.3965 136.197 92.4768 135.956 92.6375 135.876L95.6908 134.352C95.9318 134.192 102.52 130.261 105.734 129.86C107.181 129.86 108.707 129.94 110.154 130.261H110.314C111.761 130.502 112.644 131.063 112.805 131.946C113.368 134.111 109.591 137.24 109.109 137.561C109.029 137.641 108.948 137.641 108.868 137.641ZM99.2262 134.994C102.52 134.994 105.734 135.555 108.788 136.759C110.314 135.555 112.323 133.309 112.002 132.106C111.841 131.625 111.198 131.224 110.154 131.063H109.993C108.627 130.822 107.181 130.662 105.815 130.662C102.762 131.063 96.0925 134.994 96.0925 134.994L95.6908 135.154C96.896 135.074 98.0209 134.994 99.2262 134.994Z" fill="#3118D3"/>
<path d="M95.5303 135.636C95.3696 135.636 95.2089 135.475 95.1285 135.315C95.1285 135.235 93.1198 127.213 88.7809 125.689C88.5399 125.608 88.4595 125.368 88.5399 125.207C88.6202 124.967 88.8613 124.886 89.022 124.967C93.7626 126.651 95.7713 134.753 95.8517 135.154C95.932 135.395 95.7713 135.555 95.5303 135.636Z" fill="#3118D3"/>
<path d="M73.434 244.011C73.3536 244.011 73.2733 244.011 73.2733 243.93C73.1126 243.85 73.0322 243.61 73.1126 243.369L78.0942 234.304C78.1746 234.144 78.4156 234.064 78.6567 234.144C78.8174 234.224 78.8977 234.465 78.8174 234.705L73.8357 243.77C73.7554 243.93 73.5947 244.011 73.434 244.011Z" fill="#3118D3"/>
<path d="M79.2993 306.581L77.7727 321.501C77.6923 322.544 78.4155 323.507 79.46 323.587L107.02 326.555C108.064 326.635 109.029 325.913 109.109 324.87C109.109 324.79 109.109 324.71 109.109 324.63V323.988C109.109 323.988 108.948 310.832 95.3691 308.506C95.3691 308.506 88.3788 309.709 79.2993 306.581Z" fill="#DDD8FB"/>
<path d="M108.787 324.068L78.1743 320.779C77.9333 320.779 77.7726 320.539 77.8529 320.378C77.8529 320.138 78.094 319.977 78.335 320.057L108.948 323.346C109.189 323.346 109.35 323.587 109.35 323.748C109.35 323.908 109.028 324.068 108.787 324.068Z" fill="#3118D3"/>
<path d="M85.5663 321.581C85.3253 321.581 85.1646 321.421 85.1646 321.18C85.1646 320.94 85.2449 314.843 78.4956 313.8C78.2546 313.8 78.0939 313.559 78.1742 313.319C78.1742 313.078 78.4153 312.918 78.6563 312.998C82.8345 313.479 86.0484 317.009 85.9681 321.18C85.9681 321.341 85.8074 321.581 85.5663 321.581Z" fill="#3118D3"/>
<path d="M94.5662 313.239C94.4055 313.239 94.3252 313.158 94.2448 313.078C94.0841 312.918 94.1645 312.677 94.3252 312.517L101.316 307.704C101.476 307.543 101.717 307.623 101.878 307.784C102.039 307.944 101.958 308.185 101.798 308.345L94.8073 313.158C94.7269 313.158 94.6466 313.239 94.5662 313.239Z" fill="#3118D3"/>
<path d="M97.5389 314.843C97.3782 314.843 97.2978 314.763 97.2175 314.683C97.0568 314.522 97.1371 314.282 97.2978 314.121L104.288 309.308C104.449 309.148 104.69 309.228 104.851 309.388C105.011 309.549 104.931 309.789 104.77 309.95L97.7799 314.763C97.6996 314.843 97.6192 314.843 97.5389 314.843Z" fill="#3118D3"/>
<path d="M11.083 288.612L1.11973 299.842C0.396584 300.645 0.476931 301.848 1.28042 302.57L21.9302 321.1C22.7336 321.822 23.9389 321.742 24.662 320.94C24.7424 320.86 24.7424 320.779 24.8227 320.699L25.2245 320.138C25.2245 320.138 32.7773 309.388 23.055 299.602C22.9747 299.602 16.6271 296.473 11.083 288.612Z" fill="#DDD8FB"/>
<path d="M25.0638 320.138C24.9835 320.138 24.9031 320.138 24.8228 320.058L1.92326 299.522C1.76256 299.361 1.76256 299.121 1.92326 298.96C2.08396 298.8 2.325 298.8 2.4857 298.96L25.3049 319.416C25.4656 319.576 25.4656 319.817 25.3049 319.977C25.2245 320.058 25.1442 320.138 25.0638 320.138Z" fill="#3118D3"/>
<path d="M7.62806 304.575C7.54771 304.575 7.46736 304.575 7.38701 304.495C7.22631 304.335 7.14597 304.094 7.30666 303.933C7.46736 303.773 11.0831 298.88 6.26213 294.067C6.10143 293.906 6.10143 293.666 6.26213 293.505C6.42282 293.345 6.66387 293.345 6.82457 293.505C9.95819 296.313 10.5206 301.046 8.02981 304.495C7.86911 304.495 7.78876 304.575 7.62806 304.575Z" fill="#3118D3"/>
<path d="M28.2781 303.212L19.7611 303.051C19.5201 303.051 19.3594 302.891 19.3594 302.65C19.3594 302.409 19.5201 302.249 19.7611 302.249L28.2781 302.409C28.5192 302.409 28.6799 302.57 28.6799 302.811C28.6799 302.971 28.4388 303.212 28.2781 303.212Z" fill="#3118D3"/>
<path d="M29.8045 306.179L21.2875 306.019C21.0464 306.019 20.8857 305.859 20.8857 305.618C20.8857 305.377 21.0464 305.217 21.2875 305.217L29.8045 305.377C30.0455 305.377 30.2062 305.538 30.2062 305.778C30.2062 306.019 29.9652 306.179 29.8045 306.179Z" fill="#3118D3"/>
<path d="M165.755 218.421C165.675 218.421 165.594 218.421 165.514 218.34C164.63 217.859 164.148 217.618 164.148 217.538C163.907 217.458 163.827 217.217 163.907 217.057C163.987 216.816 164.228 216.736 164.389 216.816H164.47C164.47 216.816 165.032 217.057 165.916 217.618C166.077 217.699 166.157 217.939 166.077 218.18C165.996 218.34 165.916 218.421 165.755 218.421Z" fill="#3118D3"/>
<path d="M192.672 259.733C192.512 259.733 192.351 259.653 192.271 259.412C191.949 258.369 191.708 257.407 191.387 256.364C191.306 256.123 191.467 255.963 191.628 255.883C191.869 255.802 192.03 255.963 192.11 256.123C192.431 257.086 192.753 258.129 192.994 259.172C193.074 259.412 192.913 259.573 192.753 259.653C192.753 259.733 192.753 259.733 192.672 259.733ZM190.824 253.717C190.664 253.717 190.503 253.637 190.423 253.476C190.101 252.433 189.699 251.471 189.378 250.508C189.298 250.348 189.378 250.107 189.539 249.947C189.699 249.866 189.94 249.947 190.101 250.107V250.187C190.503 251.15 190.824 252.112 191.146 253.155C191.226 253.396 191.146 253.556 190.905 253.637C190.905 253.717 190.905 253.717 190.824 253.717ZM188.575 247.861C188.414 247.861 188.253 247.781 188.173 247.62C187.771 246.658 187.369 245.695 186.887 244.732C186.807 244.492 186.887 244.331 187.048 244.171C187.209 244.091 187.45 244.171 187.61 244.331C188.012 245.294 188.494 246.257 188.896 247.219C188.976 247.46 188.896 247.62 188.655 247.781C188.655 247.781 188.655 247.861 188.575 247.861ZM185.923 242.085C185.762 242.085 185.602 242.005 185.521 241.844C185.039 240.882 184.557 239.999 184.075 239.037C183.995 238.876 184.075 238.636 184.236 238.475C184.396 238.395 184.637 238.475 184.718 238.636C185.2 239.518 185.762 240.481 186.244 241.443C186.325 241.604 186.244 241.845 186.084 242.005C186.084 242.085 186.003 242.085 185.923 242.085ZM182.87 236.63C182.709 236.63 182.629 236.55 182.548 236.47C181.986 235.587 181.423 234.705 180.861 233.823C180.7 233.662 180.781 233.422 180.941 233.261C181.102 233.101 181.343 233.181 181.504 233.341C182.066 234.224 182.629 235.106 183.191 235.989C183.271 236.149 183.271 236.39 183.03 236.55C183.03 236.55 182.95 236.63 182.87 236.63ZM179.334 231.416C179.174 231.416 179.093 231.336 179.013 231.256C178.37 230.373 177.727 229.571 177.085 228.769C176.924 228.608 177.004 228.368 177.165 228.207C177.326 228.047 177.567 228.127 177.727 228.288C178.37 229.09 179.013 229.892 179.656 230.774C179.816 230.935 179.736 231.175 179.575 231.336C179.495 231.416 179.415 231.416 179.334 231.416ZM175.317 226.523C175.237 226.523 175.076 226.443 174.996 226.362C174.272 225.56 173.549 224.838 172.826 224.116C172.665 223.956 172.665 223.715 172.826 223.555C172.987 223.394 173.228 223.394 173.389 223.555C174.112 224.277 174.915 225.079 175.558 225.801C175.719 225.961 175.719 226.202 175.558 226.362C175.558 226.523 175.397 226.523 175.317 226.523ZM170.817 222.191C170.737 222.191 170.657 222.191 170.576 222.111C169.773 221.389 168.969 220.747 168.166 220.186C168.005 220.105 167.925 219.865 168.005 219.624C168.086 219.464 168.327 219.383 168.568 219.464C168.568 219.464 168.648 219.464 168.648 219.544C169.451 220.186 170.335 220.827 171.139 221.549C171.299 221.71 171.299 221.95 171.219 222.111C171.058 222.111 170.898 222.191 170.817 222.191Z" fill="white"/>
<path d="M193.877 264.386C193.716 264.386 193.556 264.225 193.475 264.065C193.395 263.584 193.234 263.022 193.074 262.541C192.993 262.3 193.154 262.14 193.395 262.059C193.636 261.979 193.797 262.14 193.877 262.38C194.038 262.862 194.118 263.423 194.279 263.985C194.359 264.225 194.199 264.386 193.957 264.466L193.877 264.386Z" fill="white"/>
<path d="M185.682 271.606C185.521 271.606 185.361 271.445 185.28 271.285L185.2 270.964C185.2 270.723 185.361 270.563 185.521 270.483C185.762 270.483 185.923 270.563 186.003 270.803V271.044C186.164 271.365 186.003 271.525 185.682 271.606ZM185.2 268.156C185.039 268.156 184.798 267.996 184.798 267.835C184.637 266.793 184.396 265.75 184.236 264.707C184.236 264.466 184.316 264.306 184.557 264.226C184.798 264.145 184.959 264.306 185.039 264.546C185.28 265.589 185.441 266.632 185.602 267.755C185.602 267.916 185.441 268.076 185.2 268.156C185.28 268.156 185.28 268.156 185.2 268.156ZM183.914 261.819C183.754 261.819 183.593 261.659 183.513 261.498C183.272 260.455 183.031 259.412 182.789 258.37C182.709 258.129 182.87 257.888 183.111 257.888C183.352 257.888 183.593 257.969 183.593 258.209C183.834 259.252 184.075 260.295 184.396 261.338C184.477 261.578 184.316 261.739 184.075 261.819H183.914ZM182.307 255.642C182.147 255.642 181.986 255.562 181.906 255.321C181.584 254.279 181.263 253.236 180.941 252.273C180.861 252.032 180.941 251.872 181.182 251.712C181.424 251.631 181.584 251.712 181.745 251.952V252.032C182.066 253.075 182.388 254.038 182.709 255.081C182.789 255.321 182.629 255.482 182.468 255.562L182.307 255.642ZM180.379 249.546C180.218 249.546 180.058 249.465 179.977 249.305C179.576 248.262 179.254 247.3 178.852 246.337C178.772 246.096 178.933 245.936 179.093 245.856C179.254 245.775 179.495 245.856 179.576 246.096C179.977 247.059 180.379 248.102 180.7 249.145C180.781 249.385 180.7 249.546 180.459 249.626C180.459 249.546 180.459 249.546 180.379 249.546ZM178.049 243.529C177.888 243.529 177.727 243.449 177.647 243.289C177.245 242.326 176.763 241.283 176.362 240.401C176.281 240.24 176.362 240 176.522 239.839C176.683 239.759 176.924 239.839 177.085 240C177.567 240.962 177.969 241.925 178.37 242.968C178.451 243.208 178.37 243.369 178.129 243.529H178.049ZM175.317 237.754C175.156 237.754 174.996 237.673 174.915 237.513C174.433 236.55 173.951 235.588 173.389 234.705C173.308 234.545 173.389 234.304 173.549 234.144C173.71 234.064 173.951 234.144 174.112 234.304C174.594 235.267 175.156 236.229 175.638 237.112C175.719 237.272 175.638 237.513 175.478 237.673C175.478 237.754 175.397 237.754 175.317 237.754ZM172.183 232.138C172.023 232.138 171.942 232.058 171.862 231.978C171.3 231.095 170.737 230.133 170.175 229.25C170.014 229.09 170.094 228.849 170.255 228.689C170.416 228.528 170.657 228.609 170.817 228.769C171.38 229.652 172.023 230.534 172.585 231.497C172.665 231.657 172.665 231.898 172.424 232.058C172.344 232.138 172.264 232.138 172.183 232.138ZM168.568 226.764C168.407 226.764 168.327 226.683 168.246 226.603C167.603 225.721 166.961 224.919 166.238 224.116C166.077 223.956 166.077 223.715 166.238 223.555C166.398 223.394 166.639 223.394 166.8 223.555L166.88 223.635C167.523 224.437 168.246 225.239 168.889 226.202C169.05 226.363 168.969 226.603 168.809 226.764C168.809 226.764 168.648 226.764 168.568 226.764ZM164.47 221.87C164.39 221.87 164.229 221.79 164.148 221.79C163.345 220.988 162.622 220.266 161.818 219.624C161.658 219.464 161.577 219.223 161.738 219.063C161.899 218.902 162.14 218.822 162.3 218.982C162.3 218.982 162.381 218.982 162.381 219.063C163.184 219.704 163.988 220.507 164.791 221.309C164.952 221.469 164.952 221.71 164.791 221.87C164.711 221.87 164.55 221.951 164.47 221.87Z" fill="white"/>
<path d="M175.557 275.376C175.316 275.376 175.156 275.215 175.156 274.975V274.734C175.156 274.493 175.316 274.333 175.477 274.333C175.718 274.333 175.879 274.493 175.879 274.654V274.975C175.959 275.135 175.798 275.295 175.557 275.376ZM175.236 271.846C174.995 271.846 174.834 271.686 174.834 271.445C174.754 270.322 174.593 269.279 174.513 268.236C174.513 267.996 174.674 267.835 174.834 267.755C174.995 267.675 175.236 267.915 175.316 268.076C175.397 269.119 175.557 270.161 175.638 271.285C175.718 271.605 175.557 271.846 175.236 271.846C175.316 271.846 175.316 271.846 175.236 271.846ZM174.513 265.509C174.352 265.509 174.111 265.348 174.111 265.188C173.95 264.065 173.79 263.022 173.709 261.979C173.709 261.739 173.79 261.578 174.031 261.498C174.272 261.498 174.433 261.578 174.513 261.819C174.674 262.862 174.834 263.904 174.915 265.027C174.915 265.268 174.834 265.509 174.513 265.509ZM173.549 259.172C173.388 259.172 173.147 259.011 173.147 258.851C172.986 257.808 172.745 256.765 172.585 255.722C172.504 255.481 172.665 255.321 172.906 255.241C173.147 255.161 173.308 255.321 173.388 255.562C173.549 256.605 173.79 257.647 173.95 258.77C173.95 259.011 173.87 259.172 173.629 259.252H173.549V259.172ZM172.343 252.834C172.183 252.834 172.022 252.674 171.942 252.513C171.701 251.471 171.46 250.428 171.219 249.385C171.138 249.144 171.299 248.904 171.54 248.904C171.781 248.823 172.022 248.984 172.022 249.224C172.263 250.267 172.504 251.31 172.745 252.353C172.826 252.594 172.665 252.754 172.424 252.834H172.343ZM170.897 246.577C170.737 246.577 170.576 246.417 170.495 246.256C170.254 245.214 169.933 244.171 169.612 243.208C169.531 242.967 169.692 242.807 169.853 242.727C170.094 242.647 170.254 242.807 170.335 242.967C170.656 243.93 170.897 244.973 171.219 246.096C171.299 246.337 171.138 246.497 170.897 246.577ZM169.13 240.4C168.969 240.4 168.808 240.32 168.728 240.08C168.406 239.037 168.085 237.994 167.683 237.031C167.603 236.791 167.683 236.55 167.924 236.55C168.165 236.47 168.406 236.55 168.406 236.791C168.728 237.753 169.13 238.796 169.451 239.839C169.531 240.08 169.371 240.24 169.21 240.32L169.13 240.4ZM166.96 234.384C166.799 234.384 166.639 234.304 166.558 234.143C166.157 233.181 165.755 232.138 165.353 231.175C165.273 230.935 165.353 230.774 165.594 230.614C165.835 230.453 165.996 230.614 166.157 230.854C166.558 231.817 166.96 232.86 167.362 233.823C167.442 234.063 167.362 234.224 167.121 234.304L166.96 234.384ZM164.469 228.528C164.309 228.528 164.148 228.448 164.068 228.287C163.585 227.325 163.103 226.362 162.621 225.48C162.541 225.239 162.621 225.079 162.862 224.918C163.023 224.838 163.264 224.918 163.344 225.079C163.826 226.041 164.309 227.004 164.791 227.967C164.871 228.127 164.791 228.368 164.63 228.528C164.55 228.528 164.469 228.528 164.469 228.528ZM161.416 222.833C161.255 222.833 161.175 222.752 161.095 222.672C160.532 221.79 159.97 220.907 159.407 219.945C159.327 219.784 159.327 219.544 159.488 219.383C159.648 219.303 159.889 219.303 160.05 219.463C160.693 220.346 161.175 221.228 161.737 222.191C161.818 222.351 161.818 222.592 161.577 222.752C161.577 222.833 161.496 222.833 161.416 222.833Z" fill="white"/>
<path d="M164.39 255.562C164.149 255.562 163.988 255.401 163.988 255.241L163.586 252.032C163.586 251.792 163.747 251.631 163.908 251.551C164.149 251.551 164.309 251.711 164.39 251.872L164.791 255.08C164.791 255.321 164.631 255.482 164.39 255.562C164.47 255.562 164.47 255.562 164.39 255.562ZM163.586 249.144C163.425 249.144 163.184 248.984 163.184 248.823C163.024 247.781 162.863 246.738 162.702 245.615C162.702 245.374 162.783 245.214 163.024 245.133C163.265 245.133 163.425 245.214 163.506 245.454C163.666 246.577 163.827 247.62 163.988 248.663C163.988 248.904 163.827 249.144 163.586 249.144C163.666 249.144 163.666 249.144 163.586 249.144ZM162.622 242.807C162.461 242.807 162.22 242.647 162.22 242.486C162.059 241.443 161.899 240.4 161.658 239.358C161.658 239.117 161.738 238.957 161.979 238.876C162.22 238.876 162.381 238.957 162.461 239.197C162.622 240.24 162.863 241.283 163.024 242.406C163.024 242.566 162.863 242.807 162.622 242.807C162.702 242.807 162.702 242.807 162.622 242.807ZM161.497 236.47C161.336 236.47 161.176 236.309 161.095 236.149C160.935 235.106 160.694 234.063 160.453 233.02C160.372 232.78 160.533 232.619 160.774 232.539C161.015 232.539 161.176 232.619 161.256 232.86C161.497 233.903 161.658 234.946 161.899 235.988C161.899 236.229 161.818 236.39 161.577 236.47H161.497ZM160.131 230.213C159.97 230.213 159.81 230.052 159.729 229.892C159.488 228.769 159.167 227.726 158.926 226.763C158.846 226.523 159.006 226.362 159.247 226.282C159.488 226.202 159.649 226.362 159.729 226.523C159.97 227.485 160.292 228.528 160.533 229.651C160.613 229.892 160.453 230.052 160.211 230.133L160.131 230.213ZM158.363 224.036C158.203 224.036 158.042 223.956 157.962 223.795C157.64 222.833 157.239 221.79 156.837 220.827C156.756 220.587 156.917 220.426 157.078 220.346C157.239 220.266 157.48 220.346 157.56 220.506C158.042 221.469 158.444 222.512 158.765 223.555C158.846 223.795 158.685 223.956 158.524 224.036H158.363Z" fill="#3118D3"/>
</g>
<defs>
<clipPath id="clip0_1060_86290">
<rect width="289" height="327" fill="white"/>
</clipPath>
</defs>
</svg>
