<svg width="171" height="56" viewBox="0 0 171 56" fill="none" xmlns="http://www.w3.org/2000/svg">
<path d="M34.9992 21.3254V30.7334C34.9992 31.5264 34.5699 31.9835 33.9335 31.9835C33.6819 31.9835 33.3859 31.9028 33.0751 31.7415V22.3334C33.0751 21.2178 32.2167 19.8604 31.151 19.3094L15.7734 11.2453C15.7734 10.1298 16.6319 9.68628 17.6975 10.2373L33.0751 18.3013C34.1407 18.8524 34.9992 20.2098 34.9992 21.3254Z" fill="#BFB7F4"/>
<path d="M33.0694 22.3332V31.7413C33.0694 32.5343 32.6402 32.9912 32.0038 32.9912C31.7522 32.9912 31.4562 32.9105 31.1454 32.7492V23.3412C31.1454 22.2256 30.287 20.8682 29.2213 20.3172L13.8438 12.2531C13.8438 11.1376 14.7021 10.6941 15.7678 11.2452L31.1454 19.3092C32.211 19.8602 33.0694 21.2177 33.0694 22.3332Z" fill="#8D7FEF"/>
<path d="M31.1476 23.3407V32.7487C31.1476 33.5417 30.7184 33.9986 30.082 33.9986C29.8304 33.9986 29.5343 33.9179 29.2235 33.7566V24.3487C29.2235 23.2332 28.3651 21.8757 27.2995 21.3247L11.9219 13.2607C11.9219 12.4677 12.3511 12.0107 12.9875 12.0107C13.2539 12.0107 13.5351 12.0914 13.8459 12.2527L29.2235 20.3167C30.2892 20.8678 31.1476 22.2252 31.1476 23.3407Z" fill="#533DE9"/>
<path d="M27.2995 21.3248L20.9797 24.6579C20.8613 24.7117 20.7281 24.752 20.5949 24.7654H20.4173C19.6921 24.7251 18.8337 24.1472 18.2416 23.2198L11.9219 13.2607L27.2995 21.3248Z" fill="#BFB7F4"/>
<path d="M29.2257 24.3475V33.7557C29.2257 34.8711 28.3673 35.3146 27.3016 34.7636L11.9241 26.6995C10.8584 26.1485 10 24.7911 10 23.6755V14.2675C10 13.4745 10.4292 13.0176 11.0656 13.0176C11.332 13.0176 11.6132 13.0982 11.9241 13.2595L18.2438 23.2186C18.8358 24.1459 19.6942 24.7239 20.4195 24.7642H20.5971C20.7303 24.7508 20.8635 24.7104 20.9819 24.6567L27.3016 21.3235C28.3673 21.8746 29.2257 23.232 29.2257 24.3475Z" fill="#2F1DA9"/>
<path d="M80.286 36.4012H76.0155V34.3237C74.7748 35.5932 72.9859 36.4012 70.8218 36.4012C67.215 36.4012 64.9355 34.2948 64.9355 31.3229C64.9355 28.2643 67.417 26.36 71.37 26.36H75.6404V25.6098C75.6404 23.7054 74.544 22.6089 72.4665 22.6089C70.7064 22.6089 69.4657 23.3303 67.9652 24.9461L65.5703 22.0895C67.5324 19.7524 70.0139 18.5693 73.0147 18.5693C77.4583 18.5693 80.3148 21.1374 80.3148 25.8694V36.4012H80.286ZM75.6404 29.4185H72.0048C70.5044 29.4185 69.6388 29.9956 69.6388 31.1498C69.6388 32.3039 70.591 32.9964 72.0914 32.9964C74.1112 32.9964 75.6693 31.5826 75.6693 29.6205V29.4185H75.6404Z" fill="#533DE9"/>
<path d="M136 18.5693H140.732V28.6972C140.732 30.6881 142.117 32.0442 144.05 32.0442C145.868 32.0442 147.282 30.7169 147.282 28.6972V18.5693H152.014V28.2932C152.014 33.1406 148.58 36.3723 144.021 36.3723C139.375 36.3723 135.971 33.1406 135.971 28.2932V18.5693H136Z" fill="#533DE9"/>
<path d="M156.285 10.001H160.931V35.7966H156.285V10.001Z" fill="#533DE9"/>
<path d="M111.651 26.4756V36.1996H106.89V26.1005C106.89 24.1096 105.505 22.7535 103.601 22.7535C101.783 22.7535 100.369 24.0808 100.369 26.1005V36.2285H95.406V26.1005C95.406 24.1096 94.021 22.7535 92.1166 22.7535C90.2988 22.7535 88.885 24.0808 88.885 26.1005V36.2285H84.124V26.4756C84.124 21.6282 87.5577 18.3965 92.1166 18.3965C94.4538 18.3965 96.4736 19.2044 97.9163 20.6471C99.3302 19.2044 101.35 18.3965 103.629 18.3965C108.217 18.3965 111.651 21.6282 111.651 26.4756Z" fill="#533DE9"/>
<path d="M123.598 18.6C118.606 18.4846 114.365 22.6396 114.451 27.4871C114.451 27.5448 114.451 27.6025 114.451 27.6602V45.0015H119.097V35.3065C120.424 36.0279 121.954 36.4318 123.541 36.403C128.532 36.5184 132.832 32.3345 132.745 27.4871C132.86 22.6107 128.59 18.5134 123.598 18.6ZM123.598 32.1326C121.001 32.1326 119.097 30.1417 119.097 27.4871C119.097 24.7748 121.001 22.8416 123.598 22.8416C126.109 22.8416 128.013 24.8614 128.013 27.5159C128.013 30.1705 126.109 32.1326 123.598 32.1326Z" fill="#533DE9"/>
<path d="M48.4904 27.6597C50.1062 29.8815 51.8952 31.2665 54.6075 31.2665C56.8292 31.2665 58.1565 30.1989 58.1565 28.5254C58.1565 27.0538 57.3775 26.5344 54.9826 25.438L52.2991 24.2261C48.4904 22.5237 46.2686 20.3596 46.2686 17.0414C46.2686 12.7998 49.7888 10.001 54.5209 10.001C58.3296 10.001 61.1862 11.8476 62.7443 14.7042L59.2818 17.3876C58.0123 15.4544 56.4253 14.5311 54.5209 14.5311C52.7608 14.5311 51.4335 15.3967 51.4335 16.9548C51.4335 18.2821 52.2126 18.8881 54.3478 19.8114L57.1755 21.0521C61.3593 22.8988 63.3214 24.9763 63.3214 28.3234C63.3214 32.8823 59.5992 35.7966 54.6075 35.7966C50.3948 35.7966 46.9034 33.6325 44.999 30.2855L48.4904 27.6597Z" fill="#533DE9"/>
</svg>
