<svg width="150" height="150" viewBox="0 0 150 150" fill="none" xmlns="http://www.w3.org/2000/svg">
<rect width="150" height="150" rx="75" fill="white"/>
<g clip-path="url(#clip0_748_39962)">
<path d="M77.2604 46.0596L94.9304 28.3896V24.6396L75.4404 44.1296L76.0904 44.7796C76.5004 45.1896 76.8904 45.6196 77.2704 46.0596" fill="#746E72"/>
<path d="M82.8905 61.6599C86.1405 58.4099 90.3305 56.4499 94.8405 56.0399C94.9005 55.4399 94.9305 54.8399 94.9305 54.2199V53.3799C90.3305 53.7399 86.0105 55.4999 82.4805 58.4599C82.5405 59.1199 82.5705 59.7799 82.5705 60.4499C82.5705 60.9899 82.5405 61.5299 82.5005 62.0699C82.6305 61.9399 82.7505 61.7999 82.8905 61.6699" fill="#746E72"/>
<path d="M128.89 97.58V53.31L97.5803 22V25.74L125.14 53.3H97.5803V54.22C97.5803 54.8 97.5503 55.38 97.5103 55.95H122.5L104.83 73.62C101.33 70.62 97.0203 68.81 92.4303 68.4C91.7803 68.35 91.1203 68.31 90.4603 68.31C89.9103 68.31 89.3703 68.34 88.8203 68.38C85.6603 68.61 82.6403 69.49 79.9003 70.98C79.4303 71.85 78.8903 72.69 78.3003 73.49C78.0203 73.87 77.7203 74.25 77.4103 74.62C77.8903 74.66 78.3603 74.72 78.8303 74.79C79.8203 74.94 80.7903 75.16 81.7403 75.44C84.7203 74.56 87.4903 73.05 89.8803 70.98C90.0703 70.98 90.2503 70.97 90.4403 70.97C95.0303 70.97 99.3803 72.55 102.87 75.45C99.3903 78.34 95.0303 79.93 90.4303 79.93C90.2503 79.93 90.0703 79.93 89.8903 79.92C90.3003 80.28 90.7003 80.64 91.0903 81.03C91.5603 81.5 92.0003 81.99 92.4203 82.49C97.0103 82.08 101.31 80.28 104.82 77.27L122.49 94.94H97.5003C97.1403 90.35 95.3803 86.02 92.4203 82.48C91.7603 82.54 91.1103 82.57 90.4403 82.57C89.9003 82.57 89.3603 82.54 88.8203 82.51C88.9503 82.64 89.0903 82.76 89.2203 82.89C92.4703 86.15 94.4203 90.34 94.8403 94.85C90.3303 94.43 86.1403 92.47 82.8803 89.22C82.7503 89.09 82.6303 88.96 82.5003 88.83C82.2703 85.67 81.3903 82.64 79.9003 79.91C79.0303 79.44 78.1903 78.9 77.3903 78.31C77.0103 78.03 76.6303 77.73 76.2603 77.43C76.2203 77.9 76.1603 78.38 76.0903 78.85C75.9403 79.84 75.7203 80.81 75.4403 81.76C76.3203 84.75 77.8403 87.51 79.9003 89.9C80.2603 90.31 80.6203 90.71 81.0003 91.1C81.4703 91.57 81.9603 92.01 82.4703 92.44C86.0003 95.4 90.3203 97.16 94.9203 97.52V122.5L77.2503 104.84L76.6503 104.24C76.2203 103.81 75.8103 103.36 75.4203 102.9C72.5303 99.41 70.9503 95.06 70.9403 90.46C70.9403 90.28 70.9403 90.09 70.9503 89.91C70.5903 90.32 70.2303 90.73 69.8403 91.12C69.3703 91.59 68.8903 92.03 68.3903 92.45C68.8003 97.04 70.6003 101.34 73.6003 104.84C73.9803 105.28 74.3603 105.71 74.7803 106.12L75.4203 106.76L94.9103 126.25H55.9303V96.67C55.9303 96.06 55.9603 95.45 56.0103 94.85C56.4303 90.34 58.3903 86.14 61.6403 82.88C61.7703 82.75 61.9003 82.63 62.0303 82.51C65.1903 82.28 68.2103 81.39 70.9503 79.91C71.4303 79.03 71.9603 78.2 72.5503 77.39C72.8303 77.01 73.1303 76.63 73.4303 76.27C72.9503 76.23 72.4803 76.17 72.0103 76.1C71.0203 75.95 70.0503 75.73 69.1003 75.45C66.1203 76.33 63.3503 77.84 60.9603 79.92C60.5603 80.27 60.1603 80.63 59.7703 81.02C59.3003 81.49 58.8503 81.98 58.4303 82.49C55.4703 86.03 53.7103 90.35 53.3503 94.95C53.3103 95.53 53.2803 96.1 53.2803 96.68V128.9H97.5503L128.86 97.59L128.89 97.58ZM97.5803 125.14V97.58H125.14L97.5803 125.14ZM126.24 94.93L106.75 75.44L126.24 55.95V94.93Z" fill="#746E72"/>
<path d="M70.9801 70.9796C71.8501 71.4496 72.6901 71.9796 73.5001 72.5796C73.8801 72.8596 74.2601 73.1596 74.6301 73.4596C74.6701 72.9796 74.7301 72.5096 74.8001 72.0396C74.9501 71.0496 75.1701 70.0796 75.4401 69.1296C74.5601 66.1496 73.0501 63.3796 70.9801 60.9896C70.9801 60.7996 70.9701 60.6196 70.9701 60.4296C70.9701 55.8396 72.5501 51.4896 75.4501 47.9996C75.0601 47.5396 74.6601 47.0896 74.2301 46.6496L73.6401 46.0596C70.6401 49.5596 68.8301 53.8696 68.4201 58.4596C68.3601 59.1096 68.3301 59.7696 68.3301 60.4296C68.3301 60.9796 68.3601 61.5196 68.3901 62.0696C68.6201 65.2296 69.5101 68.2496 70.9901 70.9796" fill="#746E72"/>
<path d="M73.6202 104.83L55.9502 122.5V126.25L75.4402 106.76L74.8002 106.12C74.3902 105.71 74.0002 105.28 73.6202 104.84" fill="#D0043C"/>
<path d="M79.9104 89.8899C79.9104 90.0799 79.9204 90.2699 79.9204 90.4499C79.9204 95.0399 78.3404 99.3899 75.4404 102.88C75.8304 103.34 76.2304 103.79 76.6704 104.22L77.2704 104.82C80.2704 101.32 82.0804 97.0099 82.4804 92.4199C81.9704 91.9899 81.4804 91.5499 81.0104 91.0799C80.6304 90.6999 80.2604 90.2899 79.9104 89.8799" fill="#D0043C"/>
<path d="M53.31 22L22 53.31V97.59L53.31 128.89V125.15L25.74 97.58H53.3V96.67C53.3 96.09 53.33 95.52 53.37 94.94H28.39L46.05 77.27C49.56 80.27 53.86 82.09 58.45 82.49C58.87 81.98 59.31 81.49 59.78 81.02C60.17 80.63 60.57 80.27 60.97 79.92C60.79 79.92 60.6 79.93 60.42 79.93C55.83 79.93 51.48 78.35 47.99 75.45C51.48 72.55 55.83 70.98 60.43 70.97C60.61 70.97 60.79 70.97 60.97 70.97C63.36 73.04 66.13 74.55 69.11 75.44C70.06 75.72 71.03 75.94 72.02 76.09C72.49 76.16 72.97 76.22 73.44 76.26C73.13 76.63 72.84 77 72.55 77.38C71.96 78.19 71.42 79.03 70.95 79.9C69.47 82.64 68.58 85.66 68.35 88.82C68.22 88.95 68.1 89.09 67.96 89.23C64.71 92.48 60.52 94.43 56 94.85C55.94 95.45 55.92 96.05 55.92 96.67V97.51C60.52 97.16 64.84 95.39 68.38 92.44C68.88 92.02 69.37 91.58 69.84 91.11C70.23 90.72 70.6 90.32 70.95 89.9C73.02 87.51 74.53 84.74 75.41 81.76C75.69 80.81 75.91 79.84 76.06 78.85C76.13 78.38 76.19 77.9 76.23 77.43C76.6 77.74 76.97 78.03 77.36 78.32C78.16 78.91 79.01 79.44 79.87 79.92C82.6 81.41 85.63 82.3 88.79 82.52C89.33 82.56 89.87 82.59 90.41 82.59C91.08 82.59 91.74 82.55 92.39 82.5C91.97 82 91.53 81.51 91.06 81.04C90.67 80.65 90.27 80.28 89.86 79.93C87.47 77.86 84.7 76.34 81.72 75.47C80.77 75.19 79.8 74.97 78.81 74.82C78.34 74.75 77.87 74.69 77.39 74.65C77.69 74.28 77.99 73.91 78.28 73.52C78.87 72.72 79.4 71.88 79.88 71.01C81.36 68.27 82.25 65.25 82.48 62.1C82.52 61.56 82.54 61.02 82.54 60.48C82.54 59.81 82.51 59.15 82.45 58.49C82.04 53.9 80.24 49.6 77.24 46.1C76.87 45.66 76.48 45.24 76.06 44.82L75.42 44.17L55.95 24.64H94.93V54.21C94.93 54.83 94.9 55.43 94.84 56.03C94.43 60.54 92.47 64.74 89.21 67.99C89.08 68.12 88.95 68.24 88.82 68.36C89.36 68.32 89.91 68.3 90.46 68.3C91.12 68.3 91.78 68.33 92.43 68.39C95.39 64.86 97.16 60.54 97.51 55.94C97.56 55.37 97.58 54.79 97.58 54.21V22H53.31ZM53.31 25.74V53.3H25.74L53.31 25.74ZM24.65 94.94V55.96L44.13 75.45L24.65 94.94ZM46.06 73.62L28.39 55.95H53.37C53.72 60.55 55.48 64.87 58.45 68.41C53.86 68.82 49.56 70.62 46.05 73.62M73.62 46.07L74.21 46.66C74.65 47.09 75.05 47.54 75.43 48.01C78.33 51.5 79.9 55.85 79.91 60.45C79.91 60.63 79.91 60.81 79.89 60.99C77.82 63.38 76.31 66.15 75.43 69.13C75.15 70.08 74.94 71.05 74.79 72.04C74.72 72.51 74.66 72.98 74.62 73.46C74.25 73.15 73.88 72.85 73.49 72.57C72.69 71.98 71.84 71.45 70.97 70.97C68.24 69.48 65.21 68.6 62.05 68.37C61.92 68.24 61.78 68.12 61.65 67.99C58.4 64.74 56.45 60.54 56.03 56.03C60.54 56.44 64.73 58.41 67.99 61.66C68.12 61.79 68.24 61.92 68.36 62.05C68.32 61.51 68.3 60.96 68.3 60.41C68.3 59.75 68.33 59.09 68.39 58.44C64.85 55.48 60.53 53.72 55.94 53.36V28.39L73.61 46.06L73.62 46.07Z" fill="#D0043C"/>
</g>
<defs>
<clipPath id="clip0_748_39962">
<rect width="106.89" height="106.89" fill="white" transform="translate(22 22)"/>
</clipPath>
</defs>
</svg>
