<svg width="159" height="33" viewBox="0 0 159 33" fill="none" xmlns="http://www.w3.org/2000/svg">
<path opacity="0.25" d="M32.3902 14.9243V26.97C32.3902 27.9883 31.8373 28.5702 31.0227 28.5702C30.7026 28.5702 30.3244 28.4684 29.9243 28.2574V16.2118C29.9243 14.7861 28.8259 13.0476 27.4584 12.342L7.76782 2.02028C7.76782 0.594588 8.86619 0.0272198 10.2337 0.732794L29.9243 11.0545C31.2918 11.7601 32.3902 13.4986 32.3902 14.9243Z" fill="white"/>
<path opacity="0.5" d="M29.9243 16.2118V28.2574C29.9243 29.2758 29.3715 29.8577 28.5568 29.8577C28.2367 29.8577 27.8585 29.7559 27.4584 29.5449V17.4992C27.4584 16.0736 26.3601 14.3351 24.9926 13.6295L5.30923 3.30776C5.30923 1.88206 6.4076 1.3147 7.77511 2.02027L27.4657 12.342C28.8332 13.0476 29.9316 14.7861 29.9316 16.2118H29.9243Z" fill="white"/>
<path opacity="0.75" d="M27.4657 17.5065V29.5522C27.4657 30.5706 26.9129 31.1525 26.0982 31.1525C25.7781 31.1525 25.3999 31.0506 24.9998 30.8397V18.794C24.9998 17.3683 23.9015 15.6298 22.534 14.9243L2.84335 4.60253C2.84335 3.58417 3.39617 3.00226 4.21086 3.00226C4.55273 3.00226 4.90916 3.10409 5.30922 3.31504L24.9998 13.6368C26.3673 14.3424 27.4657 16.0808 27.4657 17.5065Z" fill="white"/>
<path d="M24.9998 18.794V30.8397C24.9998 32.2654 23.9014 32.8327 22.5339 32.1272L2.84334 21.8054C1.47584 21.0998 0.377472 19.3614 0.377472 17.9357V5.89C0.377472 4.87165 0.930291 4.28973 1.74497 4.28973C2.08685 4.28973 2.44328 4.39157 2.84334 4.60251L10.932 17.3538C11.6885 18.5394 12.7868 19.2814 13.7179 19.3323H13.9434C14.1107 19.3177 14.2853 19.2668 14.438 19.1941L22.5267 14.9243C23.8942 15.6298 24.9925 17.3683 24.9925 18.794H24.9998Z" fill="white"/>
<path d="M84.5619 24.5682H80.6565V22.67C79.5219 23.8337 77.8856 24.5682 75.9074 24.5682C72.6129 24.5682 70.5256 22.6409 70.5256 19.9282C70.5256 17.2155 72.7947 15.39 76.4092 15.39H80.3147V14.7064C80.3147 12.9682 79.311 11.9646 77.4128 11.9646C75.8056 11.9646 74.671 12.6264 73.2965 14.1027L71.1074 11.4918C72.9038 9.35366 75.1728 8.27002 77.9147 8.27002C81.9801 8.27002 84.591 10.6191 84.591 14.9464V24.5755H84.5619V24.5682ZM80.3147 18.1827H76.991C75.6165 18.1827 74.831 18.7137 74.831 19.7682C74.831 20.8227 75.7038 21.4555 77.071 21.4555C78.9183 21.4555 80.3438 20.1609 80.3438 18.3718V18.19H80.3147V18.1827Z" fill="white"/>
<path d="M135.5 8.26276H139.827V17.5209C139.827 19.3391 141.093 20.5828 142.86 20.5828C144.526 20.5828 145.813 19.3682 145.813 17.5209V8.26276H150.14V17.15C150.14 21.5791 146.998 24.5391 142.831 24.5391C138.664 24.5391 135.471 21.5864 135.471 17.15V8.26276H135.5Z" fill="white"/>
<path d="M154.046 0.429993H158.293V24.0154H154.046V0.429993Z" fill="white"/>
<path d="M113.238 15.4918V24.3791H108.882V15.1427C108.882 13.3245 107.617 12.0809 105.878 12.0809C104.14 12.0809 102.926 13.2955 102.926 15.1427V24.4009H98.3875V15.1427C98.3875 13.3245 97.122 12.0809 95.3766 12.0809C93.6311 12.0809 92.4239 13.2955 92.4239 15.1427V24.4009H88.0748V15.4846C88.0748 11.0555 91.2166 8.09546 95.3839 8.09546C97.522 8.09546 99.3693 8.83728 100.686 10.1536C101.98 8.83728 103.827 8.09546 105.907 8.09546C110.104 8.09546 113.238 11.0482 113.238 15.4846V15.4918Z" fill="white"/>
<path d="M124.162 8.29184C119.595 8.18275 115.718 11.9864 115.798 16.4155V32.43H120.046V23.5646C121.26 24.2264 122.657 24.59 124.111 24.5682C128.678 24.6773 132.606 20.8518 132.526 16.4155C132.635 11.9573 128.729 8.21184 124.162 8.29184ZM124.162 20.6627C121.784 20.6627 120.046 18.8446 120.046 16.4155C120.046 13.9864 121.784 12.1682 124.162 12.1682C126.54 12.1682 128.198 14.0155 128.198 16.4446C128.198 18.8737 126.46 20.6627 124.162 20.6627Z" fill="white"/>
<path d="M55.4929 16.5754C56.9693 18.6045 58.6056 19.87 61.0856 19.87C63.1147 19.87 64.3293 18.8954 64.3293 17.3609C64.3293 16.0154 63.6165 15.5427 61.4274 14.5391L58.9765 13.4336C55.4929 11.8773 53.4638 9.89908 53.4638 6.86636C53.4638 2.98999 56.6856 0.429993 61.0056 0.429993C64.4893 0.429993 67.1002 2.11727 68.5256 4.72817L65.362 7.17908C64.1984 5.41181 62.7511 4.56817 61.0056 4.56817C59.3984 4.56817 58.1838 5.3609 58.1838 6.78636C58.1838 8.0009 58.8965 8.55363 60.8456 9.39727L63.4274 10.5318C67.2529 12.2191 69.0493 14.1173 69.0493 17.1791C69.0493 21.3464 65.6456 24.0082 61.0856 24.0082C57.2311 24.0082 54.0456 22.03 52.3002 18.9682L55.4929 16.5682V16.5754Z" fill="white"/>
</svg>
