<svg width="38" height="38" viewBox="0 0 38 38" fill="none" xmlns="http://www.w3.org/2000/svg">
<g filter="url(#filter0_dd_1083_50505)">
<path d="M35 16.4885V28.5294C35 29.5474 34.4474 30.1291 33.6331 30.1291C33.3131 30.1291 32.935 30.0273 32.5351 29.8164V17.7755C32.5351 16.3504 31.4372 14.6126 30.0702 13.9073L10.3874 3.58966C10.3874 2.16453 11.4854 1.59739 12.8523 2.30268L32.5351 12.6203C33.9021 13.3256 35 15.0634 35 16.4885Z" fill="#BFB7F4"/>
<path d="M32.5351 17.7755V29.8164C32.5351 30.8344 31.9825 31.4161 31.1682 31.4161C30.8482 31.4161 30.4701 31.3143 30.0702 31.1034V19.0625C30.0702 17.6374 28.9723 15.8996 27.6053 15.1943L7.92981 4.87665C7.92981 3.45152 9.02774 2.88437 10.3947 3.58967L30.0775 13.9073C31.4445 14.6126 32.5424 16.3504 32.5424 17.7755H32.5351Z" fill="#8D7FEF"/>
<path d="M30.0775 19.0697V31.1107C30.0775 32.1286 29.5249 32.7103 28.7105 32.7103C28.3906 32.7103 28.0125 32.6085 27.6126 32.3976V20.3567C27.6126 18.9316 26.5147 17.1938 25.1477 16.4885L5.4649 6.17086C5.4649 5.15291 6.0175 4.57123 6.83186 4.57123C7.17361 4.57123 7.52989 4.67302 7.9298 4.88388L27.6126 15.2015C28.9796 15.9068 30.0775 17.6446 30.0775 19.0697Z" fill="#533DE9"/>
<path d="M25.1477 16.4886L17.0623 20.7567C16.9096 20.8222 16.7424 20.8803 16.5678 20.8949H16.3424C15.4117 20.844 14.3138 20.1023 13.5576 18.9172L5.47218 6.17096L25.155 16.4886H25.1477Z" fill="#BFB7F4"/>
<path d="M27.6126 20.3567V32.3976C27.6126 33.8228 26.5147 34.3899 25.1477 33.6846L5.46489 23.367C4.09793 22.6617 3 20.9239 3 19.4988V7.45785C3 6.4399 3.5526 5.85822 4.36696 5.85822C4.7087 5.85822 5.06498 5.96001 5.46489 6.17087L13.5503 18.9171C14.3065 20.1023 15.4045 20.8439 16.3352 20.8948H16.5606C16.7278 20.8803 16.9023 20.8294 17.055 20.7566L25.1404 16.4885C26.5074 17.1938 27.6053 18.9316 27.6053 20.3567H27.6126Z" fill="#2F1DA9"/>
</g>
<defs>
<filter id="filter0_dd_1083_50505" x="0" y="0" width="38" height="37.9873" filterUnits="userSpaceOnUse" color-interpolation-filters="sRGB">
<feFlood flood-opacity="0" result="BackgroundImageFix"/>
<feColorMatrix in="SourceAlpha" type="matrix" values="0 0 0 0 0 0 0 0 0 0 0 0 0 0 0 0 0 0 127 0" result="hardAlpha"/>
<feOffset dy="1"/>
<feGaussianBlur stdDeviation="1"/>
<feColorMatrix type="matrix" values="0 0 0 0 0.0627451 0 0 0 0 0.0941176 0 0 0 0 0.156863 0 0 0 0.06 0"/>
<feBlend mode="normal" in2="BackgroundImageFix" result="effect1_dropShadow_1083_50505"/>
<feColorMatrix in="SourceAlpha" type="matrix" values="0 0 0 0 0 0 0 0 0 0 0 0 0 0 0 0 0 0 127 0" result="hardAlpha"/>
<feOffset dy="1"/>
<feGaussianBlur stdDeviation="1.5"/>
<feColorMatrix type="matrix" values="0 0 0 0 0.0627451 0 0 0 0 0.0941176 0 0 0 0 0.156863 0 0 0 0.1 0"/>
<feBlend mode="normal" in2="effect1_dropShadow_1083_50505" result="effect2_dropShadow_1083_50505"/>
<feBlend mode="normal" in="SourceGraphic" in2="effect2_dropShadow_1083_50505" result="shape"/>
</filter>
</defs>
</svg>
