<svg width="20" height="20" viewBox="0 0 20 20" fill="none" xmlns="http://www.w3.org/2000/svg">
<path d="M6.98065 13.0143L2.2666 17.7283M9.74539 5.53556L8.44465 6.8363C8.33854 6.9424 8.28549 6.99545 8.22505 7.03761C8.1714 7.07502 8.11353 7.10599 8.05264 7.12988C7.98404 7.15679 7.91047 7.1715 7.76333 7.20093L4.70961 7.81167C3.91602 7.97039 3.51923 8.04975 3.33359 8.25896C3.17187 8.44122 3.09802 8.68513 3.13148 8.92648C3.16989 9.20353 3.45602 9.48966 4.02829 10.0619L9.93307 15.9667C10.5053 16.539 10.7915 16.8251 11.0685 16.8635C11.3099 16.897 11.5538 16.8231 11.736 16.6614C11.9452 16.4758 12.0246 16.079 12.1833 15.2854L12.7941 12.2317C12.8235 12.0845 12.8382 12.011 12.8651 11.9424C12.889 11.8815 12.92 11.8236 12.9574 11.7699C12.9995 11.7095 13.0526 11.6564 13.1587 11.5503L14.4594 10.2496C14.5273 10.1818 14.5612 10.1478 14.5985 10.1182C14.6316 10.0919 14.6667 10.0682 14.7034 10.0472C14.7447 10.0236 14.7888 10.0047 14.877 9.96689L16.9556 9.07604C17.5621 8.81615 17.8653 8.6862 18.003 8.47622C18.1234 8.29259 18.1665 8.06884 18.1229 7.85361C18.073 7.60749 17.8398 7.37423 17.3732 6.90771L13.0873 2.62176C12.6208 2.15524 12.3875 1.92198 12.1414 1.87208C11.9262 1.82845 11.7024 1.87154 11.5188 1.99199C11.3088 2.12972 11.1788 2.43293 10.9189 3.03934L10.0281 5.11797C9.99031 5.20615 9.97142 5.25024 9.9478 5.29159C9.92682 5.32832 9.90307 5.36339 9.87676 5.39652C9.84714 5.4338 9.81322 5.46772 9.74539 5.53556Z" stroke="#2F1DA9" stroke-width="1.66667" stroke-linecap="round" stroke-linejoin="round"/>
</svg>
