<?xml version="1.0" encoding="UTF-8"?>
<svg id="Layer_1" data-name="Layer 1" xmlns="http://www.w3.org/2000/svg" viewBox="0 0 1000 1000">
  <defs>
    <style>
      .cls-1 {
        fill: #2f1da9;
      }

      .cls-2 {
        opacity: .2;
      }

      .cls-2, .cls-3, .cls-4, .cls-5, .cls-6, .cls-7, .cls-8 {
        isolation: isolate;
      }

      .cls-2, .cls-4, .cls-5, .cls-6 {
        fill: #bfb7f4;
      }

      .cls-3 {
        opacity: .11;
      }

      .cls-4 {
        opacity: .8;
      }

      .cls-5 {
        opacity: .6;
      }

      .cls-6 {
        opacity: .4;
      }

      .cls-7 {
        opacity: .29;
      }

      .cls-8 {
        opacity: .5;
      }
    </style>
  </defs>
  <g id="i24">
    <g>
      <path class="cls-1" d="m326.16,230.91v525l175,87.5,175-87.5V230.91l-175-87.5-175,87.5Z"/>
      <path class="cls-3" d="m501.16,843.41l-175-87.5V230.91l175,87.5v525Z"/>
      <path class="cls-7" d="m501.16,843.41l175-87.5V230.91l-175,87.5v525Z"/>
      <path class="cls-4" d="m326.16,257.16v8.75l175,87.5v-8.75l-175-87.5Z"/>
      <path class="cls-8" d="m326.16,265.91v4.38l175,87.5v-4.38l-175-87.5Z"/>
      <g>
        <path class="cls-4" d="m352.41,252.79l-8.75-4.38v8.75l8.75,4.38v-8.75Z"/>
        <path class="cls-5" d="m369.91,261.54l-8.75-4.38v8.75l8.75,4.38v-8.75Z"/>
        <path class="cls-6" d="m387.41,270.29l-8.75-4.38v8.75l8.75,4.38v-8.75Z"/>
        <path class="cls-2" d="m404.91,279.04l-8.75-4.38v8.75l8.75,4.38v-8.75Z"/>
      </g>
      <path class="cls-4" d="m326.16,300.91v8.75l175,87.5v-8.75l-175-87.5Z"/>
      <path class="cls-8" d="m326.16,309.66v4.38l175,87.5v-4.38l-175-87.5Z"/>
      <path class="cls-4" d="m352.41,296.54l-8.75-4.38v8.75l8.75,4.38v-8.75Z"/>
      <path class="cls-5" d="m369.91,305.29l-8.75-4.38v8.75l8.75,4.38v-8.75Z"/>
      <path class="cls-6" d="m387.41,314.04l-8.75-4.38v8.75l8.75,4.38v-8.75Z"/>
      <path class="cls-2" d="m404.91,322.79l-8.75-4.38v8.75l8.75,4.38v-8.75Z"/>
      <path class="cls-4" d="m326.16,344.66v8.75l175,87.5v-8.75l-175-87.5Z"/>
      <path class="cls-8" d="m326.16,353.41v4.38l175,87.5v-4.38l-175-87.5Z"/>
      <path class="cls-4" d="m352.41,340.29l-8.75-4.38v8.75l8.75,4.38v-8.75Z"/>
      <path class="cls-5" d="m369.91,349.04l-8.75-4.38v8.75l8.75,4.38v-8.75Z"/>
      <path class="cls-6" d="m387.41,357.79l-8.75-4.38v8.75l8.75,4.38v-8.75Z"/>
      <path class="cls-2" d="m404.91,366.54l-8.75-4.38v8.75l8.75,4.38v-8.75Z"/>
      <path class="cls-4" d="m326.16,388.41v8.75l175,87.5v-8.75l-175-87.5Z"/>
      <path class="cls-8" d="m326.16,397.16v4.38l175,87.5v-4.38l-175-87.5Z"/>
      <path class="cls-4" d="m352.41,384.04l-8.75-4.38v8.75l8.75,4.38v-8.75Z"/>
      <path class="cls-5" d="m369.91,392.79l-8.75-4.38v8.75l8.75,4.38v-8.75Z"/>
      <path class="cls-6" d="m387.41,401.54l-8.75-4.38v8.75l8.75,4.38v-8.75Z"/>
      <path class="cls-2" d="m404.91,410.29l-8.75-4.38v8.75l8.75,4.38v-8.75Z"/>
      <path class="cls-4" d="m326.16,432.16v8.75l175,87.5v-8.75l-175-87.5Z"/>
      <path class="cls-8" d="m326.16,440.91v4.38l175,87.5v-4.38l-175-87.5Z"/>
      <path class="cls-4" d="m352.41,427.79l-8.75-4.38v8.75l8.75,4.38v-8.75Z"/>
      <path class="cls-5" d="m369.91,436.54l-8.75-4.38v8.75l8.75,4.38v-8.75Z"/>
      <path class="cls-6" d="m387.41,445.29l-8.75-4.38v8.75l8.75,4.38v-8.75Z"/>
      <path class="cls-2" d="m404.91,454.04l-8.75-4.38v8.75l8.75,4.38v-8.75Z"/>
      <path class="cls-4" d="m326.16,475.91v8.75l175,87.5v-8.75l-175-87.5Z"/>
      <path class="cls-8" d="m326.16,484.66v4.38l175,87.5v-4.38l-175-87.5Z"/>
      <path class="cls-4" d="m352.41,471.54l-8.75-4.38v8.75l8.75,4.38v-8.75Z"/>
      <path class="cls-5" d="m369.91,480.29l-8.75-4.38v8.75l8.75,4.38v-8.75Z"/>
      <path class="cls-6" d="m387.41,489.04l-8.75-4.38v8.75l8.75,4.38v-8.75Z"/>
      <path class="cls-2" d="m404.91,497.79l-8.75-4.38v8.75l8.75,4.38v-8.75Z"/>
      <path class="cls-4" d="m326.16,519.66v8.75l175,87.5v-8.75l-175-87.5Z"/>
      <path class="cls-8" d="m326.16,528.41v4.38l175,87.5v-4.38l-175-87.5Z"/>
      <path class="cls-4" d="m352.41,515.29l-8.75-4.38v8.75l8.75,4.38v-8.75Z"/>
      <path class="cls-5" d="m369.91,524.04l-8.75-4.38v8.75l8.75,4.38v-8.75Z"/>
      <path class="cls-6" d="m387.41,532.79l-8.75-4.38v8.75l8.75,4.38v-8.75Z"/>
      <path class="cls-2" d="m404.91,541.54l-8.75-4.38v8.75l8.75,4.38v-8.75Z"/>
      <path class="cls-4" d="m326.16,563.41v8.75l175,87.5v-8.75l-175-87.5Z"/>
      <path class="cls-8" d="m326.16,572.16v4.38l175,87.5v-4.38l-175-87.5Z"/>
      <path class="cls-4" d="m352.41,559.04l-8.75-4.38v8.75l8.75,4.38v-8.75Z"/>
      <path class="cls-5" d="m369.91,567.79l-8.75-4.38v8.75l8.75,4.38v-8.75Z"/>
      <path class="cls-6" d="m387.41,576.54l-8.75-4.38v8.75l8.75,4.38v-8.75Z"/>
      <path class="cls-2" d="m404.91,585.29l-8.75-4.38v8.75l8.75,4.38v-8.75Z"/>
      <path class="cls-4" d="m326.16,607.16v8.75l175,87.5v-8.75l-175-87.5Z"/>
      <path class="cls-8" d="m326.16,615.91v4.38l175,87.5v-4.38l-175-87.5Z"/>
      <path class="cls-4" d="m352.41,602.79l-8.75-4.38v8.75l8.75,4.38v-8.75Z"/>
      <path class="cls-5" d="m369.91,611.54l-8.75-4.38v8.75l8.75,4.38v-8.75Z"/>
      <path class="cls-6" d="m387.41,620.29l-8.75-4.38v8.75l8.75,4.38v-8.75Z"/>
      <path class="cls-2" d="m404.91,629.04l-8.75-4.38v8.75l8.75,4.38v-8.75Z"/>
      <path class="cls-4" d="m326.16,650.91v8.75l175,87.5v-8.75l-175-87.5Z"/>
      <path class="cls-8" d="m326.16,659.66v4.38l175,87.5v-4.38l-175-87.5Z"/>
      <path class="cls-4" d="m352.41,646.54l-8.75-4.38v8.75l8.75,4.38v-8.75Z"/>
      <path class="cls-5" d="m369.91,655.29l-8.75-4.38v8.75l8.75,4.38v-8.75Z"/>
      <path class="cls-6" d="m387.41,664.04l-8.75-4.38v8.75l8.75,4.38v-8.75Z"/>
      <path class="cls-2" d="m404.91,672.79l-8.75-4.38v8.75l8.75,4.38v-8.75Z"/>
      <path class="cls-4" d="m326.16,694.66v8.75l175,87.5v-8.75l-175-87.5Z"/>
      <path class="cls-8" d="m326.16,703.41v4.38l175,87.5v-4.38l-175-87.5Z"/>
      <path class="cls-4" d="m352.41,690.29l-8.75-4.38v8.75l8.75,4.38v-8.75Z"/>
      <path class="cls-5" d="m369.91,699.04l-8.75-4.38v8.75l8.75,4.38v-8.75Z"/>
      <path class="cls-6" d="m387.41,707.79l-8.75-4.38v8.75l8.75,4.38v-8.75Z"/>
      <path class="cls-2" d="m404.91,716.54l-8.75-4.38v8.75l8.75,4.38v-8.75Z"/>
      <path class="cls-4" d="m326.16,738.41v8.75l175,87.5v-8.75l-175-87.5Z"/>
      <path class="cls-8" d="m326.16,747.16v4.38l175,87.5v-4.38l-175-87.5Z"/>
      <path class="cls-4" d="m352.41,734.04l-8.75-4.38v8.75l8.75,4.38v-8.75Z"/>
      <path class="cls-5" d="m369.91,742.79l-8.75-4.38v8.75l8.75,4.38v-8.75Z"/>
      <path class="cls-6" d="m387.41,751.54l-8.75-4.38v8.75l8.75,4.38v-8.75Z"/>
      <path class="cls-2" d="m404.91,760.29l-8.75-4.38v8.75l8.75,4.38v-8.75Z"/>
      <path class="cls-8" d="m356.78,224.35l-4.38,2.19,157.5,78.75,4.38-2.19-157.5-78.75Z"/>
      <path class="cls-8" d="m374.28,215.6l-4.38,2.19,157.5,78.75,4.38-2.19-157.5-78.75Z"/>
      <path class="cls-8" d="m391.78,206.85l-4.38,2.19,157.5,78.75,4.38-2.19-157.5-78.75Z"/>
      <path class="cls-8" d="m409.28,198.1l-4.38,2.19,157.5,78.75,4.38-2.19-157.5-78.75Z"/>
      <path class="cls-8" d="m426.78,189.35l-4.38,2.19,157.5,78.75,4.38-2.19-157.5-78.75Z"/>
      <path class="cls-8" d="m444.28,180.6l-4.38,2.19,157.5,78.75,4.38-2.19-157.5-78.75Z"/>
      <path class="cls-8" d="m461.78,171.85l-4.38,2.19,157.5,78.75,4.38-2.19-157.5-78.75Z"/>
      <path class="cls-8" d="m479.28,163.1l-4.38,2.19,157.5,78.75,4.38-2.19-157.5-78.75Z"/>
      <path class="cls-8" d="m496.78,154.35l-4.38,2.19,157.5,78.75,4.38-2.19-157.5-78.75Z"/>
    </g>
  </g>
</svg>