<svg width="150" height="150" viewBox="0 0 150 150" fill="none" xmlns="http://www.w3.org/2000/svg">
<rect width="150" height="150" rx="75" fill="white"/>
<path d="M109.703 43.1491C109.631 42.629 109.176 42.3412 108.799 42.3095C108.423 42.2781 100.469 41.6885 100.469 41.6885C100.469 41.6885 94.9452 36.2043 94.3389 35.5972C93.7322 34.9906 92.5473 35.1751 92.0874 35.3105C92.0198 35.3304 90.8805 35.682 88.996 36.2652C87.1507 30.9551 83.894 26.0754 78.1646 26.0754C78.0065 26.0754 77.8437 26.0818 77.6809 26.0911C76.0514 23.9362 74.033 23 72.2896 23C58.9432 23 52.5669 39.6844 50.5677 48.1628C45.3816 49.7698 41.6974 50.9122 41.2268 51.0601C38.332 51.9681 38.2405 52.0593 37.8604 54.787C37.5743 56.8521 30 115.428 30 115.428L89.0206 126.486L121 119.568C121 119.568 109.774 43.6692 109.703 43.1491H109.703ZM85.734 37.2741L80.7399 38.8198C80.7417 38.4678 80.7434 38.1215 80.7434 37.7429C80.7434 34.4427 80.2853 31.7855 79.5504 29.6791C82.5025 30.0496 84.4686 33.4085 85.734 37.2741ZM75.8883 30.3335C76.7091 32.39 77.2427 35.3415 77.2427 39.3242C77.2427 39.528 77.2409 39.7143 77.2391 39.9027C73.9913 40.9087 70.4621 42.001 66.925 43.0967C68.911 35.432 72.6337 31.7299 75.8883 30.3335ZM71.923 26.5798C72.499 26.5798 73.0794 26.7754 73.6347 27.1576C69.3574 29.1704 64.7726 34.2396 62.8365 44.3628L54.6836 46.8878C56.9515 39.1664 62.3363 26.5798 71.9227 26.5798H71.923Z" fill="#95BF46"/>
<path d="M108.799 42.3088C108.423 42.2774 100.469 41.6879 100.469 41.6879C100.469 41.6879 94.9452 36.2036 94.3388 35.5966C94.1119 35.3707 93.8059 35.255 93.486 35.2051L89.0234 126.485L121 119.567C121 119.567 109.774 43.6686 109.703 43.1484C109.631 42.6283 109.176 42.3405 108.799 42.3088Z" fill="#5E8E3E"/>
<path d="M78.1642 59.9809L74.221 71.7104C74.221 71.7104 70.7663 69.8665 66.5313 69.8665C60.3228 69.8665 60.0104 73.7626 60.0104 74.7444C60.0104 80.1015 73.9749 82.1542 73.9749 94.7022C73.9749 104.575 67.7133 110.932 59.2705 110.932C49.1391 110.932 43.958 104.626 43.958 104.626L46.6708 95.6634C46.6708 95.6634 51.9965 100.236 56.4904 100.236C59.4269 100.236 60.6213 97.9237 60.6213 96.2344C60.6213 89.2465 49.1648 88.9348 49.1648 77.4522C49.1648 67.7878 56.1014 58.4355 70.1036 58.4355C75.4989 58.4355 78.1642 59.9809 78.1642 59.9809Z" fill="white"/>
</svg>
