<svg width="36" height="36" viewBox="0 0 36 36" fill="none" xmlns="http://www.w3.org/2000/svg">
<path d="M18 32.1872C26.0541 32.1872 32.5833 25.658 32.5833 17.6038C32.5833 9.54969 26.0541 3.02051 18 3.02051C9.94581 3.02051 3.41663 9.54969 3.41663 17.6038C3.41663 25.658 9.94581 32.1872 18 32.1872Z" stroke="#2F1DA9" stroke-width="1.66667" stroke-linecap="round" stroke-linejoin="round"/>
<path d="M18 26.3538C22.8324 26.3538 26.75 22.4363 26.75 17.6038C26.75 12.7713 22.8324 8.85384 18 8.85384C13.1675 8.85384 9.24996 12.7713 9.24996 17.6038C9.24996 22.4363 13.1675 26.3538 18 26.3538Z" stroke="#2F1DA9" stroke-width="1.66667" stroke-linecap="round" stroke-linejoin="round"/>
<path d="M18 20.5205C19.6108 20.5205 20.9166 19.2147 20.9166 17.6038C20.9166 15.993 19.6108 14.6872 18 14.6872C16.3891 14.6872 15.0833 15.993 15.0833 17.6038C15.0833 19.2147 16.3891 20.5205 18 20.5205Z" stroke="#2F1DA9" stroke-width="1.66667" stroke-linecap="round" stroke-linejoin="round"/>
</svg>
