<svg width="21" height="20" viewBox="0 0 21 20" fill="none" xmlns="http://www.w3.org/2000/svg">
<g clip-path="url(#clip0_5081_533240)">
<path d="M10.5001 10.833C10.9603 10.833 11.3334 10.4599 11.3334 9.99967C11.3334 9.53944 10.9603 9.16634 10.5001 9.16634C10.0398 9.16634 9.66675 9.53944 9.66675 9.99967C9.66675 10.4599 10.0398 10.833 10.5001 10.833Z" stroke="#98A2B3" stroke-width="1.66667" stroke-linecap="round" stroke-linejoin="round"/>
<path d="M10.5001 4.99967C10.9603 4.99967 11.3334 4.62658 11.3334 4.16634C11.3334 3.7061 10.9603 3.33301 10.5001 3.33301C10.0398 3.33301 9.66675 3.7061 9.66675 4.16634C9.66675 4.62658 10.0398 4.99967 10.5001 4.99967Z" stroke="#98A2B3" stroke-width="1.66667" stroke-linecap="round" stroke-linejoin="round"/>
<path d="M10.5001 16.6663C10.9603 16.6663 11.3334 16.2932 11.3334 15.833C11.3334 15.3728 10.9603 14.9997 10.5001 14.9997C10.0398 14.9997 9.66675 15.3728 9.66675 15.833C9.66675 16.2932 10.0398 16.6663 10.5001 16.6663Z" stroke="#98A2B3" stroke-width="1.66667" stroke-linecap="round" stroke-linejoin="round"/>
</g>
<defs>
<clipPath id="clip0_5081_533240">
<rect width="20" height="20" fill="white" transform="translate(0.5)"/>
</clipPath>
</defs>
</svg>
