<svg xmlns="http://www.w3.org/2000/svg" width="842" height="1304" viewBox="0 0 842 1304">
  <metadata><?xpacket begin="﻿" id="W5M0MpCehiHzreSzNTczkc9d"?>
<x:xmpmeta xmlns:x="adobe:ns:meta/" x:xmptk="Adobe XMP Core 5.6-c142 79.160924, 2017/07/13-01:06:39        ">
   <rdf:RDF xmlns:rdf="http://www.w3.org/1999/02/22-rdf-syntax-ns#">
      <rdf:Description rdf:about=""/>
   </rdf:RDF>
</x:xmpmeta>
                                                                                                    
                                                                                                    
                                                                                                    
                                                                                                    
                                                                                                    
                                                                                                    
                                                                                                    
                                                                                                    
                                                                                                    
                                                                                                    
                                                                                                    
                                                                                                    
                                                                                                    
                                                                                                    
                                                                                                    
                                                                                                    
                                                                                                    
                                                                                                    
                                                                                                    
                                                                                                    
                           
<?xpacket end="w"?></metadata>
<defs>
    <style>
      .cls-1 {
        fill: #6d76da;
        fill-rule: evenodd;
      }
    </style>
  </defs>
  <path class="cls-1" d="M73.059,1302.43l0.906,1.57H30.131l0.906-1.57-15.758-27.27H0v-6.06H15.279l15.758-27.27-15.758-27.27H0v-6.06H15.279l15.758-27.26-15.758-27.27H0v-6.06H15.279l15.758-27.27-15.758-27.27H0v-6.06H15.279l15.758-27.27-15.758-27.27H0v-6.06H15.279l15.758-27.27L15.279,972.171H0v-6.06H15.279l15.758-27.269L15.279,911.573H0v-6.06H15.279l15.758-27.27L15.279,850.974H0v-6.059H15.279l15.758-27.27L15.279,790.376H0v-6.06H15.279l15.758-27.269L15.279,729.778H0v-6.06H15.279l15.758-27.27L15.279,669.179H0v-6.06H15.279L31.037,635.85,15.279,608.581H0v-6.06H15.279l15.758-27.269L15.279,547.983H0v-6.06H15.279l15.758-27.269-15.758-27.27H0v-6.06H15.279l15.758-27.269L15.279,426.786H0v-6.06H15.279l15.758-27.269L15.279,366.188H0v-6.06H15.279l15.758-27.269-15.758-27.27H0V299.53H15.279l15.758-27.27L15.279,244.991H0v-6.06H15.279l15.758-27.269L15.279,184.393H0v-6.06H15.279l15.758-27.27L15.279,123.794H0v-6.059H15.279l15.758-27.27L15.279,63.2H0V57.14H15.279L31.037,29.867,15.279,2.6H0V0H20.782L36.29,26.837H67.806L83.315,0h42.521l15.508,26.837H172.86L188.369,0H230.89L246.4,26.837h31.516L293.423,0h42.521l15.509,26.837h31.516L398.477,0H441l15.508,26.837h31.516L503.532,0h42.521l15.508,26.837h31.516L608.586,0h42.521l15.509,26.837h31.516L713.64,0h42.521L771.67,26.837h31.516L818.694,0H842V2.6H824.2L808.439,29.867,824.2,57.136H842V63.2H824.2L808.439,90.465l15.758,27.27H842v6.059H824.2l-15.758,27.269,15.758,27.27H842v6.06H824.2l-15.758,27.269L824.2,238.931H842v6.06H824.2L808.439,272.26,824.2,299.53H842v6.059H824.2l-15.758,27.27L824.2,360.128H842v6.06H824.2l-15.758,27.269L824.2,420.726H842v6.06H824.2l-15.758,27.269L824.2,481.324H842v6.06H824.2l-15.758,27.27L824.2,541.923H842v6.06H824.2l-15.758,27.269L824.2,602.521H842v6.06H824.2L808.439,635.85,824.2,663.119H842v6.06H824.2l-15.758,27.269,15.758,27.27H842v6.06H824.2l-15.758,27.269L824.2,784.316H842v6.06H824.2l-15.758,27.269,15.758,27.27H842v6.059H824.2l-15.758,27.269,15.758,27.27H842v6.06H824.2l-15.758,27.269L824.2,966.111H842v6.06H824.2L808.439,999.44l15.758,27.27H842v6.06H824.2l-15.758,27.27,15.758,27.27H842v6.06H824.2l-15.758,27.27,15.758,27.27H842v6.06H824.2l-15.758,27.27L824.2,1208.5H842v6.06H824.2l-15.758,27.27L824.2,1269.1H842v6.06H824.2l-15.758,27.27,0.906,1.57H765.511l0.906-1.57-15.758-27.27H719.143l-15.758,27.27,0.906,1.57H660.457l0.906-1.57-15.758-27.27H614.088l-15.758,27.27,0.906,1.57H555.4l0.906-1.57-15.758-27.27H509.034l-15.758,27.27,0.906,1.57H450.348l0.906-1.57L435.5,1275.16H403.98l-15.758,27.27,0.906,1.57H345.294l0.906-1.57-15.758-27.27H298.926l-15.758,27.27,0.906,1.57H240.24l0.906-1.57-15.758-27.27H193.871l-15.758,27.27,0.906,1.57H135.185l0.906-1.57-15.758-27.27H88.817Zm15.758-33.33h31.516l15.758-27.27-15.758-27.27H88.817l-15.758,27.27ZM456.507,148.034h31.516l15.758-27.27L488.023,93.5H456.507l-15.758,27.269ZM382.969,93.5H351.453L335.7,120.764l15.758,27.27h31.516l15.758-27.27ZM435.5,123.8H403.98l-15.758,27.269,15.758,27.27H435.5l15.758-27.27Zm-52.527,30.3H351.453L335.7,181.363l15.758,27.269h31.516l15.758-27.269Zm73.538,0-15.758,27.27,15.758,27.269h31.516l15.758-27.269L488.023,154.1H456.507ZM435.5,184.4H403.98l-15.758,27.269,15.758,27.269H435.5l15.758-27.269Zm-52.527,30.3H351.453L335.7,241.961l15.758,27.269h31.516l15.758-27.269Zm73.538,0-15.758,27.269,15.758,27.269h31.516l15.758-27.269L488.023,214.7H456.507ZM435.5,245H403.98l-15.758,27.26,15.758,27.27H435.5l15.758-27.27Zm-52.527,30.3H351.453L335.7,302.56l15.758,27.269h31.516l15.758-27.269Zm73.538,0-15.758,27.27,15.758,27.269h31.516l15.758-27.269L488.023,275.3H456.507ZM435.5,305.6H403.98l-15.758,27.27,15.758,27.269H435.5l15.758-27.269Zm-52.527,30.3H351.453L335.7,363.158l15.758,27.269h31.516l15.758-27.269Zm73.538,0-15.758,27.27,15.758,27.269h31.516l15.758-27.269L488.023,335.9H456.507ZM435.5,366.2H403.98l-15.758,27.269,15.758,27.269H435.5l15.758-27.269Zm-52.527,30.3H351.453L335.7,423.756l15.758,27.269h31.516l15.758-27.269Zm73.538,0-15.758,27.269,15.758,27.269h31.516l15.758-27.269L488.023,396.5H456.507ZM435.5,426.8H403.98l-15.758,27.269,15.758,27.269H435.5l15.758-27.269Zm-52.527,30.3H351.453L335.7,484.354l15.758,27.27h31.516l15.758-27.27Zm73.538,0-15.758,27.269,15.758,27.27h31.516l15.758-27.27L488.023,457.1H456.507ZM435.5,487.4H403.98l-15.758,27.27,15.758,27.269H435.5l15.758-27.269Zm-52.527,30.3H351.453L335.7,544.953l15.758,27.269h31.516l15.758-27.269Zm73.538,0-15.758,27.269,15.758,27.269h31.516l15.758-27.269L488.023,517.7H456.507ZM435.5,548H403.98l-15.758,27.269,15.758,27.269H435.5l15.758-27.269Zm-52.527,30.3H351.453L335.7,605.551l15.758,27.269h31.516l15.758-27.269Zm73.538,0-15.758,27.269,15.758,27.269h31.516l15.758-27.269L488.023,578.3H456.507ZM435.5,608.6H403.98l-15.758,27.25,15.758,27.269H435.5l15.758-27.269Zm-52.527,30.3H351.453L335.7,666.149l15.758,27.269h31.516l15.758-27.269Zm73.538,0-15.758,27.269,15.758,27.269h31.516l15.758-27.269L488.023,638.88H456.507v0.02ZM435.5,669.2H403.98l-15.758,27.269,15.758,27.27H435.5l15.758-27.27Zm-52.527,30.3H351.453L335.7,726.748l15.758,27.269h31.516l15.758-27.269Zm73.538,0-15.758,27.27,15.758,27.269h31.516l15.758-27.269L488.023,699.5H456.507ZM435.5,729.8H403.98l-15.758,27.269,15.758,27.269H435.5l15.758-27.269Zm-52.527,30.3H351.453L335.7,787.346l15.758,27.269h31.516l15.758-27.269Zm73.538,0-15.758,27.269,15.758,27.269h31.516l15.758-27.269L488.023,760.1H456.507ZM435.5,790.4H403.98l-15.758,27.269,15.758,27.27H435.5l15.758-27.27Zm-52.527,30.3H351.453L335.7,847.944l15.758,27.27h31.516l15.758-27.27Zm73.538,0-15.758,27.269,15.758,27.27h31.516l15.758-27.27L488.023,820.7H456.507ZM435.5,851H403.98l-15.758,27.269,15.758,27.27H435.5l15.758-27.27Zm-52.527,30.3H351.453L335.7,908.543l15.758,27.269h31.516l15.758-27.269Zm73.538,0-15.758,27.27,15.758,27.269h31.516l15.758-27.269L488.023,881.3H456.507ZM435.5,911.6H403.98l-15.758,27.269,15.758,27.269H435.5l15.758-27.269Zm-52.527,30.3H351.453L335.7,969.141l15.758,27.269h31.516l15.758-27.269Zm73.538,0-15.758,27.269,15.758,27.269h31.516l15.758-27.269L488.023,941.9H456.507ZM435.5,972.2H403.98l-15.758,27.24,15.758,27.27H435.5l15.758-27.27Zm-52.527,30.3H351.453L335.7,1029.74l15.758,27.27h31.516l15.758-27.27Zm73.538,0-15.758,27.27,15.758,27.27h31.516l15.758-27.27-15.758-27.27H456.507ZM435.5,1032.8H403.98l-15.758,27.27,15.758,27.27H435.5l15.758-27.27Zm-52.527,30.3H351.453L335.7,1090.34l15.758,27.27h31.516l15.758-27.27Zm73.538,0-15.758,27.27,15.758,27.27h31.516l15.758-27.27-15.758-27.27H456.507ZM435.5,1093.4H403.98l-15.758,27.27,15.758,27.27H435.5l15.758-27.27Zm-52.527,30.3H351.453L335.7,1150.94l15.758,27.27h31.516l15.758-27.27Zm73.538,0-15.758,27.27,15.758,27.27h31.516l15.758-27.27-15.758-27.27H456.507ZM435.5,1154H403.98l-15.758,27.27,15.758,27.26H435.5l15.758-27.26Zm-105.054,0H298.926l-15.758,27.27,15.758,27.26h31.516l15.758-27.26Zm-52.527,24.24,15.758-27.27-15.758-27.27H246.4l-15.759,27.27,15.759,27.27h31.515Zm21.011-30.3h31.516l15.758-27.27-15.758-27.27H298.926l-15.758,27.27Zm-21.011-30.3,15.758-27.27-15.758-27.27H246.4l-15.759,27.27,15.759,27.27h31.515Zm21.011-30.3h31.516l15.758-27.27-15.758-27.27H298.926l-15.758,27.27Zm-21.011-30.3,15.758-27.27-15.758-27.27H246.4l-15.759,27.27,15.759,27.27h31.515Zm21.011-30.3h31.516l15.758-27.3-15.758-27.269H298.926L283.168,999.44Zm-21.011-30.3,15.758-27.269L277.915,941.9H246.4l-15.76,27.239L246.4,996.41h31.516v0.03Zm21.011-30.3h31.516l15.758-27.3-15.758-27.269H298.926l-15.758,27.269Zm-21.011-30.3,15.758-27.269L277.915,881.3H246.4l-15.759,27.27L246.4,935.812h31.516v0.028Zm21.011-30.3h31.516L346.2,878.27,330.442,851H298.926L283.168,878.27Zm-21.011-30.3,15.758-27.27L277.915,820.7H246.4l-15.76,27.243,15.759,27.27h31.516v0.026Zm21.011-30.3h31.516L346.2,817.67,330.442,790.4H298.926L283.168,817.67Zm-21.011-30.3,15.758-27.269L277.915,760.1H246.4l-15.76,27.244,15.76,27.269h31.516v0.025Zm21.011-30.3h31.516L346.2,757.047l-15.758-27.269H298.926l-15.758,27.269Zm-21.011-30.3,15.758-27.269L277.915,699.5H246.4l-15.759,27.27L246.4,754.017h31.516v0.023Zm21.011-30.3h31.516L346.2,696.47,330.442,669.2H298.926L283.168,696.47Zm-21.011-30.3,15.758-27.269L277.915,638.88H246.4l-15.76,27.269,15.76,27.269h31.516v0.022Zm21.011-30.3h31.516L346.2,635.85l-15.758-27.269H298.926L283.168,635.85Zm-21.011-30.3,15.758-27.269L277.915,578.3H246.4l-15.76,27.249L246.4,632.82h31.516v0.02Zm21.011-30.3h31.516L346.2,575.252l-15.758-27.269H298.926l-15.758,27.269Zm-21.011-30.3,15.758-27.269L277.915,517.7H246.4l-15.76,27.251,15.76,27.269h31.516v0.018Zm21.011-30.3h31.516L346.2,514.654l-15.758-27.27H298.926l-15.758,27.27Zm-21.011-30.3,15.758-27.27L277.915,457.1H246.4l-15.76,27.253,15.759,27.27h31.516v0.016Zm21.011-30.3h31.516L346.2,454.055l-15.758-27.269H298.926l-15.758,27.269Zm-21.011-30.3,15.758-27.269L277.915,396.5H246.4l-15.76,27.254,15.76,27.269h31.516v0.015Zm21.011-30.3h31.516L346.2,393.457l-15.758-27.269H298.926l-15.758,27.269Zm-21.011-30.3,15.758-27.269L277.915,335.9H246.4l-15.759,27.27L246.4,390.427h31.516v0.013Zm21.011-30.3h31.516L346.2,332.859l-15.758-27.27H298.926l-15.758,27.27Zm-21.011-30.3,15.758-27.269L277.915,275.3H246.4L230.64,302.56l15.76,27.269h31.516v0.011Zm21.011-30.3h31.516L346.2,272.26l-15.758-27.269H298.926L283.168,272.26Zm-21.011-30.3,15.758-27.269L277.915,214.7H246.4l-15.76,27.259L246.4,269.23h31.516v0.01Zm21.011-30.3h31.516L346.2,211.662l-15.758-27.269H298.926l-15.758,27.269Zm-21.011-30.3,15.758-27.269L277.915,154.1H246.4l-15.759,27.27L246.4,208.632h31.516v0.008Zm21.011-30.3h31.516L346.2,151.07,330.442,123.8H298.926L283.168,151.07Zm-21.011-30.3,15.758-27.27L277.915,93.5H246.4l-15.76,27.264,15.759,27.27h31.516v0.006Zm21.011-30.3h31.516L346.2,90.465,330.442,63.2H298.926L283.168,90.465Zm105.054,0H435.5l15.758-27.27L435.5,63.2H403.98L388.222,90.465Zm105.054,0H540.55l15.758-27.27L540.55,63.2H509.034L493.276,90.465ZM561.561,93.5L545.8,120.764l15.758,27.27h31.516l15.758-27.27L593.077,93.5H561.561ZM540.55,123.8H509.034l-15.758,27.269,15.758,27.27H540.55l15.758-27.27Zm21.011,30.3L545.8,181.363l15.758,27.269h31.516l15.758-27.269-15.758-27.27H561.561V154.1ZM540.55,184.4H509.034l-15.758,27.269,15.758,27.269H540.55l15.758-27.269Zm21.011,30.3L545.8,241.961l15.758,27.269h31.516l15.758-27.269-15.758-27.269H561.561V214.7ZM540.55,245H509.034l-15.758,27.26,15.758,27.27H540.55l15.758-27.27Zm21.011,30.3L545.8,302.56l15.758,27.269h31.516l15.758-27.269-15.758-27.27H561.561v0.01ZM540.55,305.6H509.034l-15.758,27.27,15.758,27.269H540.55l15.758-27.269Zm21.011,30.3L545.8,363.158l15.758,27.269h31.516l15.758-27.269-15.758-27.27H561.561V335.9ZM540.55,366.2H509.034l-15.758,27.269,15.758,27.269H540.55l15.758-27.269Zm21.011,30.3L545.8,423.756l15.758,27.269h31.516l15.758-27.269-15.758-27.269H561.561V396.5ZM540.55,426.8H509.034l-15.758,27.269,15.758,27.269H540.55l15.758-27.269Zm21.011,30.3L545.8,484.354l15.758,27.27h31.516l15.758-27.27-15.758-27.269H561.561V457.1ZM540.55,487.4H509.034l-15.758,27.27,15.758,27.269H540.55l15.758-27.269Zm21.011,30.3L545.8,544.953l15.758,27.269h31.516l15.758-27.269-15.758-27.269H561.561V517.7ZM540.55,548H509.034l-15.758,27.269,15.758,27.269H540.55l15.758-27.269Zm21.011,30.3L545.8,605.551l15.758,27.269h31.516l15.758-27.269-15.758-27.269H561.561V578.3ZM540.55,608.6H509.034l-15.758,27.25,15.758,27.269H540.55l15.758-27.269Zm21.011,30.3L545.8,666.149l15.758,27.269h31.516l15.758-27.269L593.077,638.88H561.561v0.02ZM540.55,669.2H509.034l-15.758,27.269,15.758,27.27H540.55l15.758-27.27Zm21.011,30.3L545.8,726.748l15.758,27.269h31.516l15.758-27.269-15.758-27.27H561.561V699.5ZM540.55,729.8H509.034l-15.758,27.269,15.758,27.269H540.55l15.758-27.269Zm21.011,30.3L545.8,787.346l15.758,27.269h31.516l15.758-27.269-15.758-27.269H561.561V760.1ZM540.55,790.4H509.034l-15.758,27.269,15.758,27.27H540.55l15.758-27.27Zm21.011,30.3L545.8,847.944l15.758,27.27h31.516l15.758-27.27-15.758-27.269H561.561V820.7ZM540.55,851H509.034l-15.758,27.269,15.758,27.27H540.55l15.758-27.27Zm21.011,30.3L545.8,908.543l15.758,27.269h31.516l15.758-27.269-15.758-27.27H561.561V881.3ZM540.55,911.6H509.034l-15.758,27.269,15.758,27.269H540.55l15.758-27.269Zm21.011,30.3L545.8,969.141l15.758,27.269h31.516l15.758-27.269-15.758-27.269H561.561V941.9ZM540.55,972.2H509.034l-15.758,27.24,15.758,27.27H540.55l15.758-27.27Zm21.011,30.3L545.8,1029.74l15.758,27.27h31.516l15.758-27.27-15.758-27.27H561.561v0.03Zm-21.011,30.3H509.034l-15.758,27.27,15.758,27.27H540.55l15.758-27.27Zm21.011,30.3L545.8,1090.34l15.758,27.27h31.516l15.758-27.27-15.758-27.27H561.561v0.03Zm-21.011,30.3H509.034l-15.758,27.27,15.758,27.27H540.55l15.758-27.27Zm21.011,30.3L545.8,1150.94l15.758,27.27h31.516l15.758-27.27-15.758-27.27H561.561v0.03ZM540.55,1154H509.034l-15.758,27.27,15.758,27.26H540.55l15.758-27.26Zm21.011,30.3L545.8,1211.53l15.758,27.27h31.516l15.758-27.27-15.758-27.26H561.561v0.03Zm-73.538,0H456.507l-15.758,27.26,15.758,27.27h31.516l15.758-27.27Zm-105.054,0H351.453L335.7,1211.53l15.758,27.27h31.516l15.758-27.27Zm-105.054,0H246.4l-15.759,27.26L246.4,1238.8h31.516l15.758-27.27Zm-105.055,0H141.344l-15.758,27.26,15.758,27.27H172.86l15.758-27.27Zm21.011,24.23h31.517l15.758-27.26L225.388,1154H193.871l-15.758,27.27Zm-21.011-30.29,15.758-27.27L172.86,1123.7H141.344l-15.758,27.27,15.758,27.27H172.86Zm21.011-30.3h31.517l15.758-27.27-15.758-27.27H193.871l-15.758,27.27Zm-21.011-30.3,15.758-27.27L172.86,1063.1H141.344l-15.758,27.27,15.758,27.27H172.86Zm21.011-30.3h31.517l15.758-27.27-15.758-27.27H193.871l-15.758,27.27Zm-21.011-30.3,15.758-27.27L172.86,1002.5H141.344l-15.758,27.27,15.758,27.27H172.86Zm21.011-30.3h31.517l15.758-27.27L225.388,972.2H193.871L178.113,999.44Zm-21.011-30.3,15.758-27.269-15.758-27.3H141.344l-15.758,27.269,15.758,27.269H172.86v0.03Zm21.011-30.3h31.517l15.758-27.269L225.388,911.6H193.871l-15.758,27.269Zm-21.011-30.3,15.758-27.269L172.86,881.3H141.344l-15.758,27.27,15.758,27.269H172.86Zm21.011-30.3h31.517l15.758-27.27L225.388,851H193.871L178.113,878.27Zm-21.011-30.3,15.758-27.27-15.758-27.3H141.344l-15.758,27.269,15.758,27.27H172.86v0.026Zm21.011-30.3h31.517l15.758-27.27L225.388,790.4H193.871L178.113,817.67Zm-21.011-30.3,15.758-27.269L172.86,760.077H141.344l-15.758,27.269,15.758,27.269H172.86v0.025Zm21.011-30.3h31.517l15.758-27.269L225.388,729.8H193.871l-15.758,27.269Zm-21.011-30.3,15.758-27.269L172.86,699.5H141.344l-15.758,27.27,15.758,27.269H172.86Zm21.011-30.3h31.517l15.758-27.27L225.388,669.2H193.871L178.113,696.47Zm-21.011-30.3,15.758-27.269L172.86,638.88H141.344l-15.758,27.269,15.758,27.269H172.86v0.022Zm21.011-30.3h31.517l15.758-27.269L225.388,608.6H193.871L178.113,635.85Zm-21.011-30.3,15.758-27.269L172.86,578.282H141.344l-15.758,27.269,15.758,27.269H172.86v0.02Zm21.011-30.3h31.517l15.758-27.269L225.388,548H193.871l-15.758,27.269Zm-21.011-30.3,15.758-27.269L172.86,517.684H141.344l-15.758,27.269,15.758,27.269H172.86v0.018Zm21.011-30.3h31.517l15.758-27.269L225.388,487.4H193.871l-15.758,27.27Zm-21.011-30.3,15.758-27.27L172.86,457.085H141.344l-15.758,27.269,15.758,27.27H172.86v0.016Zm21.011-30.3h31.517l15.758-27.269L225.388,426.8H193.871l-15.758,27.269Zm-21.011-30.3,15.758-27.269L172.86,396.487H141.344l-15.758,27.269,15.758,27.269H172.86v0.015Zm21.011-30.3h31.517l15.758-27.269L225.388,366.2H193.871l-15.758,27.269Zm-21.011-30.3,15.758-27.269L172.86,335.9H141.344l-15.758,27.27,15.758,27.269H172.86Zm21.011-30.3h31.517l15.758-27.269L225.388,305.6H193.871l-15.758,27.27Zm-21.011-30.3,15.758-27.269L172.86,275.29H141.344l-15.758,27.27,15.758,27.269H172.86v0.011Zm21.011-30.3h31.517l15.758-27.27L225.388,245H193.871L178.113,272.26Zm-21.011-30.3,15.758-27.269L172.86,214.692H141.344l-15.758,27.269,15.758,27.269H172.86v0.01Zm21.011-30.3h31.517l15.758-27.269L225.388,184.4H193.871l-15.758,27.269Zm-21.011-30.3,15.758-27.269L172.86,154.1H141.344l-15.758,27.27,15.758,27.269H172.86Zm21.011-30.3h31.517l15.758-27.27L225.388,123.8H193.871L178.113,151.07Zm-21.011-30.3,15.758-27.27L172.86,93.5H141.344l-15.758,27.269,15.758,27.27H172.86Zm21.011-30.3h31.517l15.758-27.27L225.388,63.2H193.871L178.113,90.465ZM172.86,87.44l15.758-27.269L172.86,32.9H141.344L125.586,60.166l15.758,27.269H172.86v0Zm73.539,0h31.516l15.758-27.269L277.915,32.9H246.4L230.64,60.166Zm105.054,0h31.516l15.758-27.269L382.969,32.9H351.453L335.7,60.166Zm105.054,0h31.516l15.758-27.269L488.023,32.9H456.507L440.749,60.166Zm105.054,0h31.516l15.758-27.269L593.077,32.9H561.561L545.8,60.166Zm105.055,0h31.516L713.89,60.166,698.132,32.9H666.616L650.857,60.166ZM645.605,63.2H614.088L598.33,90.465l15.758,27.27h31.517l15.758-27.27Zm21.011,30.3-15.759,27.269,15.759,27.27h31.516l15.758-27.27L698.132,93.5H666.616Zm-21.011,30.3H614.088L598.33,151.063l15.758,27.27h31.517l15.758-27.27Zm21.011,30.3-15.759,27.27,15.759,27.269h31.516L713.89,181.37,698.132,154.1H666.616Zm-21.011,30.3H614.088L598.33,211.662l15.758,27.269h31.517l15.758-27.269Zm21.011,30.3-15.759,27.269,15.759,27.269h31.516l15.758-27.269L698.132,214.7H666.616ZM645.605,245H614.088L598.33,272.26l15.758,27.27h31.517l15.758-27.27Zm21.011,30.3-15.759,27.27,15.759,27.269h31.516L713.89,302.56l-15.758-27.27H666.616v0.01Zm-21.011,30.3H614.088L598.33,332.87l15.758,27.269h31.517l15.758-27.269Zm21.011,30.3-15.759,27.27,15.759,27.269h31.516L713.89,363.17,698.132,335.9H666.616Zm-21.011,30.3H614.088L598.33,393.457l15.758,27.269h31.517l15.758-27.269Zm21.011,30.3-15.759,27.269,15.759,27.269h31.516l15.758-27.269L698.132,396.5H666.616Zm-21.011,30.3H614.088L598.33,454.055l15.758,27.269h31.517l15.758-27.269Zm21.011,30.3-15.759,27.269,15.759,27.27h31.516l15.758-27.27L698.132,457.1H666.616Zm-21.011,30.3H614.088L598.33,514.67l15.758,27.269h31.517l15.758-27.269Zm21.011,30.3-15.759,27.269,15.759,27.269h31.516l15.758-27.269L698.132,517.7H666.616ZM645.605,548H614.088L598.33,575.252l15.758,27.269h31.517l15.758-27.269Zm21.011,30.3-15.759,27.269,15.759,27.269h31.516l15.758-27.269L698.132,578.3H666.616Zm-21.011,30.3H614.088L598.33,635.85l15.758,27.269h31.517l15.758-27.269Zm21.011,30.3-15.759,27.269,15.759,27.269h31.516l15.758-27.269L698.132,638.88H666.616v0.02Zm-21.011,30.3H614.088L598.33,696.448l15.758,27.27h31.517l15.758-27.27Zm21.011,30.3-15.759,27.27,15.759,27.269h31.516L713.89,726.77,698.132,699.5H666.616Zm-21.011,30.3H614.088L598.33,757.047l15.758,27.269h31.517l15.758-27.269Zm21.011,30.3-15.759,27.269,15.759,27.269h31.516l15.758-27.269L698.132,760.1H666.616Zm-21.011,30.3H614.088L598.33,817.645l15.758,27.27h31.517l15.758-27.27Zm21.011,30.3-15.759,27.269,15.759,27.27h31.516l15.758-27.27L698.132,820.7H666.616ZM645.605,851H614.088L598.33,878.243l15.758,27.27h31.517l15.758-27.27Zm21.011,30.3-15.759,27.27,15.759,27.269h31.516L713.89,908.57,698.132,881.3H666.616Zm-21.011,30.3H614.088L598.33,938.842l15.758,27.269h31.517l15.758-27.269Zm21.011,30.3-15.759,27.269,15.759,27.269h31.516l15.758-27.269L698.132,941.9H666.616Zm-21.011,30.3H614.088L598.33,999.44l15.758,27.27h31.517l15.758-27.27Zm21.011,30.3-15.759,27.27,15.759,27.27h31.516l15.758-27.27-15.758-27.27H666.616Zm-21.011,30.3H614.088l-15.758,27.27,15.758,27.27h31.517l15.758-27.27Zm21.011,30.3-15.759,27.27,15.759,27.27h31.516l15.758-27.27-15.758-27.27H666.616Zm-21.011,30.3H614.088l-15.758,27.27,15.758,27.27h31.517l15.758-27.27Zm21.011,30.3-15.759,27.27,15.759,27.27h31.516l15.758-27.27-15.758-27.27H666.616ZM645.605,1154H614.088l-15.758,27.27,15.758,27.26h31.517l15.758-27.26Zm21.011,30.3-15.759,27.26,15.759,27.27h31.516l15.758-27.27-15.758-27.26H666.616Zm-21.011,30.29H614.088l-15.758,27.27,15.758,27.27h31.517l15.758-27.27Zm-105.055,0H509.034l-15.758,27.27,15.758,27.27H540.55l15.758-27.27Zm-105.054,0H403.98l-15.758,27.27,15.758,27.27H435.5l15.758-27.27Zm-105.054,0H298.926l-15.758,27.27,15.758,27.27h31.516l15.758-27.27Zm-105.054,0H193.871l-15.758,27.27,15.758,27.27h31.517l15.758-27.27Zm-189.1-30.29L20.53,1211.56l15.76,27.24H67.806l15.758-27.27-15.758-27.26H36.29Zm52.527,24.23h31.516l15.758-27.26L120.331,1154H88.817l-15.758,27.27ZM36.29,1123.67l-15.758,27.27,15.758,27.27H67.806l15.758-27.27-15.758-27.27H36.29Zm52.527,24.24h31.516l15.758-27.27-15.758-27.27H88.817l-15.758,27.27ZM36.29,1063.07l-15.758,27.27,15.758,27.27H67.806l15.758-27.27-15.758-27.27H36.29Zm52.527,24.24h31.516l15.758-27.27-15.758-27.27H88.817l-15.758,27.27ZM36.29,1002.47l-15.758,27.27,15.758,27.27H67.806l15.758-27.27-15.758-27.27H36.29Zm52.527,24.24h31.516l15.758-27.27-15.758-27.269H88.817L73.059,999.44ZM36.29,941.872L20.532,969.141,36.29,996.41H67.806l15.758-27.269L67.806,941.872H36.29Zm52.527,24.239h31.516l15.758-27.269-15.758-27.269H88.817L73.059,938.842ZM36.29,881.273l-15.758,27.27L36.29,935.812H67.806l15.758-27.269-15.758-27.27H36.29Zm52.527,24.24h31.516l15.758-27.27-15.758-27.269H88.817L73.059,878.243ZM36.29,820.675L20.532,847.944l15.758,27.27H67.806l15.758-27.27L67.806,820.675H36.29Zm52.527,24.24h31.516l15.758-27.27-15.758-27.269H88.817L73.059,817.645ZM36.29,760.077L20.532,787.346,36.29,814.615H67.806l15.758-27.269L67.806,760.077H36.29Zm52.527,24.239h31.516l15.758-27.269-15.758-27.269H88.817L73.059,757.047ZM36.29,699.478l-15.758,27.27L36.29,754.017H67.806l15.758-27.269-15.758-27.27H36.29Zm52.527,24.24h31.516l15.758-27.27-15.758-27.269H88.817L73.059,696.448ZM36.29,638.88L20.532,666.149,36.29,693.418H67.806l15.758-27.269L67.806,638.88H36.29Zm52.527,24.239h31.516l15.758-27.269-15.758-27.269H88.817L73.059,635.85ZM36.29,578.282L20.532,605.551,36.29,632.82H67.806l15.758-27.269L67.806,578.282H36.29Zm52.527,24.239h31.516l15.758-27.269-15.758-27.269H88.817L73.059,575.252ZM36.29,517.684L20.532,544.953,36.29,572.222H67.806l15.758-27.269L67.806,517.684H36.29Zm52.527,24.239h31.516l15.758-27.269-15.758-27.27H88.817l-15.758,27.27ZM36.29,457.085L20.532,484.354l15.758,27.27H67.806l15.758-27.27L67.806,457.085H36.29Zm52.527,24.239h31.516l15.758-27.269-15.758-27.269H88.817L73.059,454.055ZM36.29,396.487L20.532,423.756,36.29,451.025H67.806l15.758-27.269L67.806,396.487H36.29Zm52.527,24.239h31.516l15.758-27.269-15.758-27.269H88.817L73.059,393.457ZM36.29,335.888l-15.758,27.27L36.29,390.427H67.806l15.758-27.269-15.758-27.27H36.29Zm52.527,24.24h31.516l15.758-27.269-15.758-27.27H88.817l-15.758,27.27ZM36.29,275.29L20.532,302.56,36.29,329.829H67.806L83.565,302.56,67.806,275.29H36.29Zm52.527,24.24h31.516l15.758-27.27-15.758-27.269H88.817L73.059,272.26ZM36.29,214.692L20.532,241.961,36.29,269.23H67.806l15.758-27.269L67.806,214.692H36.29Zm52.527,24.239h31.516l15.758-27.269-15.758-27.269H88.817L73.059,211.662ZM36.29,154.093l-15.758,27.27L36.29,208.632H67.806l15.758-27.269-15.758-27.27H36.29Zm52.527,24.24h31.516l15.758-27.27-15.758-27.269H88.817L73.059,151.063ZM36.29,93.5L20.532,120.764l15.758,27.27H67.806l15.758-27.27L67.806,93.5H36.29Zm52.527,24.24h31.516l15.758-27.27L120.333,63.2H88.817L73.059,90.465ZM36.29,32.9L20.532,60.166,36.29,87.435H67.806L83.565,60.166,67.806,32.9H36.29ZM120.333,2.6H88.817L73.059,29.867,88.817,57.136h31.516l15.758-27.269Zm105.055,0H193.871L178.113,29.867l15.758,27.269h31.517l15.758-27.269Zm105.054,0H298.926L283.168,29.867l15.758,27.269h31.516L346.2,29.867ZM435.5,2.6H403.98L388.222,29.867,403.98,57.136H435.5l15.758-27.269Zm105.054,0h-31.52L493.276,29.867l15.758,27.269H540.55l15.758-27.269Zm105.055,0H614.088L598.33,29.867l15.758,27.269h31.517l15.758-27.269Zm105.054,0h-31.52L703.385,29.867l15.758,27.269h31.516l15.758-27.269ZM803.19,87.437l15.758-27.269L803.186,32.9H771.67L755.912,60.166,771.67,87.435h31.516ZM750.659,63.2H719.143L703.385,90.465l15.758,27.27h31.516l15.758-27.27Zm52.527,84.838,15.758-27.27L803.186,93.5H771.67l-15.758,27.269,15.758,27.27h31.516ZM750.659,123.8H719.143l-15.758,27.269,15.758,27.27h31.516l15.758-27.27Zm52.527,84.838,15.758-27.269L803.186,154.1H771.67l-15.758,27.27,15.758,27.269h31.516ZM750.659,184.4H719.143l-15.758,27.269,15.758,27.269h31.516l15.758-27.269Zm52.527,84.837,15.758-27.269L803.186,214.7H771.67l-15.758,27.269L771.67,269.23h31.516v0ZM750.659,245H719.143L703.385,272.26l15.758,27.27h31.516l15.758-27.27Zm52.527,84.838,15.758-27.269-15.758-27.27H771.67l-15.758,27.27,15.758,27.269h31.516Zm-52.527-24.24H719.143l-15.758,27.27,15.758,27.269h31.516l15.758-27.269Zm52.527,84.838,15.758-27.269-15.758-27.27H771.67l-15.758,27.27,15.758,27.269h31.516Zm-52.527-24.239H719.143l-15.758,27.269,15.758,27.269h31.516l15.758-27.269Zm52.527,84.837,15.758-27.269-15.758-27.269H771.67L755.912,423.76l15.758,27.269h31.516ZM750.659,426.79H719.143l-15.758,27.269,15.758,27.269h31.516l15.758-27.269Zm52.527,84.838,15.758-27.27-15.758-27.269H771.67l-15.758,27.269,15.758,27.27h31.516Zm-52.527-24.24H719.143l-15.758,27.27,15.758,27.269h31.516l15.758-27.269Zm52.527,84.838,15.758-27.269-15.758-27.269H771.67l-15.758,27.269,15.758,27.269h31.516Zm-52.527-24.239H719.143l-15.758,27.269,15.758,27.269h31.516l15.758-27.269Zm52.527,84.837,15.758-27.269-15.758-27.269H771.67l-15.758,27.269L771.67,632.82h31.516v0Zm-52.527-24.239H719.143L703.385,635.85l15.758,27.269h31.516l15.758-27.269Zm52.527,84.837,15.758-27.269L803.186,638.88H771.67l-15.758,27.269,15.758,27.269h31.516v0Zm-52.527-24.239H719.143l-15.758,27.269,15.758,27.27h31.516l15.758-27.27Zm52.527,84.838,15.758-27.269-15.758-27.27H771.67l-15.758,27.27,15.758,27.269h31.516Zm-52.527-24.239H719.143l-15.758,27.269,15.758,27.269h31.516l15.758-27.269Zm52.527,84.837,15.758-27.269-15.758-27.269H771.67L755.912,787.35l15.758,27.269h31.516ZM750.659,790.38H719.143l-15.758,27.269,15.758,27.27h31.516l15.758-27.27Zm52.527,84.838,15.758-27.27-15.758-27.269H771.67l-15.758,27.269,15.758,27.27h31.516Zm-52.527-24.24H719.143l-15.758,27.269,15.758,27.27h31.516l15.758-27.27Zm52.527,84.838,15.758-27.269-15.758-27.27H771.67l-15.758,27.27,15.758,27.269h31.516Zm-52.527-24.239H719.143l-15.758,27.269,15.758,27.269h31.516l15.758-27.269Zm52.527,84.837,15.758-27.269-15.758-27.269H771.67l-15.758,27.269L771.67,996.41h31.516v0Zm-52.527-24.239H719.143L703.385,999.44l15.758,27.27h31.516l15.758-27.27Zm52.527,84.835,15.758-27.27-15.758-27.27H771.67l-15.758,27.27,15.758,27.27h31.516Zm-52.527-24.24H719.143l-15.758,27.27,15.758,27.27h31.516l15.758-27.27Zm52.527,84.84,15.758-27.27-15.758-27.27H771.67l-15.758,27.27,15.758,27.27h31.516Zm-52.527-24.24H719.143l-15.758,27.27,15.758,27.27h31.516l15.758-27.27Zm52.527,84.84,15.758-27.27-15.758-27.27H771.67l-15.758,27.27,15.758,27.27h31.516Zm-52.527-24.24H719.143l-15.758,27.27,15.758,27.26h31.516l15.758-27.26Zm52.527,84.83,15.758-27.27-15.758-27.26H771.67l-15.758,27.26,15.758,27.27h31.516Zm-52.527-24.24H719.143l-15.758,27.27,15.758,27.27h31.516l15.758-27.27Zm21.011,84.84h31.516l15.758-27.27-15.758-27.27H771.67l-15.758,27.27Zm-105.054,0h31.516l15.758-27.27-15.758-27.27H666.616l-15.759,27.27Zm-105.055,0h31.516l15.758-27.27-15.758-27.27H561.561L545.8,1272.13Zm-105.054,0h31.516l15.758-27.27-15.758-27.27H456.507l-15.758,27.27Zm-105.054,0h31.516l15.758-27.27-15.758-27.27H351.453L335.7,1272.13Zm-105.054,0h31.516l15.758-27.27-15.758-27.27H246.4l-15.759,27.27Zm-105.055,0H172.86l15.758-27.27-15.758-27.27H141.344l-15.758,27.27Zm-57.779-27.27-15.758-27.27H36.29l-15.758,27.27L36.29,1299.4H67.806Z"/>
</svg>
