<svg width="164" height="48" viewBox="0 0 164 48" fill="none" xmlns="http://www.w3.org/2000/svg">
<g clip-path="url(#clip0_17_8510)">
<path d="M45.8503 14.0136H53.4724C58.3317 14.0136 62.346 16.8252 62.346 23.2447V24.5936C62.346 31.0618 58.5918 33.9709 53.6187 33.9709H45.8503V14.0136ZM50.1083 17.6378V30.3305H53.3749C56.1377 30.3305 57.9905 28.5265 57.9905 24.5123V23.4559C57.9905 19.4417 56.0402 17.6378 53.2286 17.6378H50.1083ZM64.605 17.8328H68.0179L68.5704 21.587C69.2205 19.0354 70.8782 17.6703 73.8848 17.6703H74.9412V21.977H73.186C69.7243 21.977 68.8792 23.1797 68.8792 26.5926V34.0197H64.67V17.8328H64.605ZM75.7863 26.2513V25.7962C75.7863 20.3843 79.2479 17.4265 83.961 17.4265C88.7716 17.4265 92.1357 20.3843 92.1357 25.7962V26.2513C92.1357 31.5656 88.8691 34.426 83.961 34.426C78.7441 34.3772 75.7863 31.5819 75.7863 26.2513ZM87.8289 26.2025V25.7962C87.8289 22.7896 86.3175 20.9857 83.9122 20.9857C81.5557 20.9857 79.9955 22.6433 79.9955 25.7962V26.2025C79.9955 29.1116 81.507 30.7693 83.9122 30.7693C86.3175 30.7205 87.8289 29.1116 87.8289 26.2025ZM94.346 17.8328H97.8564L98.2627 20.8881C99.1078 18.8404 100.912 17.4265 103.577 17.4265C107.689 17.4265 110.403 20.3843 110.403 25.8612V26.3163C110.403 31.6306 107.396 34.4422 103.577 34.4422C101.026 34.4422 99.2703 33.2883 98.4089 31.4356V39.6103H94.2972L94.346 17.8328ZM106.129 26.2025V25.845C106.129 22.6271 104.471 21.0344 102.261 21.0344C99.9041 21.0344 98.3439 22.8384 98.3439 25.845V26.1538C98.3439 29.0141 99.8554 30.8181 102.212 30.8181C104.633 30.7693 106.129 29.2254 106.129 26.2025ZM116.627 31.0293L116.27 33.9872H112.662V12.4209H116.774V20.6931C117.684 18.5804 119.488 17.4265 122.039 17.4265C125.907 17.4752 128.768 20.1406 128.768 25.5037V26.0075C128.768 31.3706 126.053 34.4422 121.942 34.4422C119.228 34.3772 117.472 33.1258 116.627 31.0293ZM124.444 26.0075V25.6012C124.444 22.6433 122.836 20.9857 120.577 20.9857C118.269 20.9857 116.66 22.8384 116.66 25.6499V26.0075C116.66 29.0141 118.22 30.7693 120.528 30.7693C122.998 30.7693 124.444 29.2254 124.444 26.0075ZM130.571 26.2513V25.7962C130.571 20.3843 134.033 17.4265 138.746 17.4265C143.557 17.4265 146.921 20.3843 146.921 25.7962V26.2513C146.921 31.5656 143.605 34.426 138.746 34.426C133.529 34.3772 130.571 31.5819 130.571 26.2513ZM142.647 26.2025V25.7962C142.647 22.7896 141.135 20.9857 138.73 20.9857C136.373 20.9857 134.813 22.6433 134.813 25.7962V26.2025C134.813 29.1116 136.325 30.7693 138.73 30.7693C141.151 30.7205 142.647 29.1116 142.647 26.2025ZM152.43 25.6012L146.758 17.8328H151.618L154.884 22.6921L158.2 17.8328H163.01L157.257 25.5524L163.319 33.9872H158.557L154.852 28.624L151.244 33.9872H146.271L152.43 25.6012Z" fill="black"/>
<path d="M19.6522 14.0132L10.2261 20.0264L19.6522 26.0396L10.2261 32.0528L0.799988 26.0071L10.2261 19.9939L0.799988 14.0132L10.2261 8L19.6522 14.0132ZM10.1773 33.9868L19.6034 27.9736L29.0295 33.9868L19.6034 40L10.1773 33.9868ZM19.6522 26.0071L29.0783 19.9939L19.6522 14.0132L29.0295 8L38.4557 14.0132L29.0295 20.0264L38.4557 26.0396L29.0295 32.0528L19.6522 26.0071Z" fill="#0061FF"/>
</g>
<defs>
<clipPath id="clip0_17_8510">
<rect width="163" height="48" fill="white" transform="translate(0.799988)"/>
</clipPath>
</defs>
</svg>
