<svg width="32" height="32" viewBox="0 0 32 32" fill="none" xmlns="http://www.w3.org/2000/svg">
<path d="M31.9993 14.4885V26.5294C31.9993 27.5474 31.4467 28.1291 30.6323 28.1291C30.3124 28.1291 29.9343 28.0273 29.5344 27.8164V15.7755C29.5344 14.3504 28.4365 12.6126 27.0695 11.9073L7.38672 1.58966C7.38672 0.164531 8.48465 -0.402613 9.85161 0.302681L29.5344 10.6203C30.9014 11.3256 31.9993 13.0634 31.9993 14.4885Z" fill="#BFB7F4"/>
<path d="M29.535 15.7757V27.8166C29.535 28.8345 28.9824 29.4162 28.168 29.4162C27.8481 29.4162 27.47 29.3144 27.0701 29.1035V17.0626C27.0701 15.6375 25.9722 13.8997 24.6052 13.1944L4.92969 2.87677C4.92969 1.45164 6.02762 0.884496 7.39458 1.58979L27.0774 11.9074C28.4443 12.6127 29.5423 14.3505 29.5423 15.7757H29.535Z" fill="#8D7FEF"/>
<path d="M27.0774 17.0698V29.1107C27.0774 30.1287 26.5248 30.7103 25.7105 30.7103C25.3905 30.7103 25.0124 30.6086 24.6125 30.3977V18.3568C24.6125 16.9317 23.5146 15.1939 22.1476 14.4886L2.46484 4.17093C2.46484 3.15297 3.01744 2.57129 3.8318 2.57129C4.17354 2.57129 4.52983 2.67308 4.92974 2.88395L24.6125 13.2016C25.9795 13.9069 27.0774 15.6447 27.0774 17.0698Z" fill="#533DE9"/>
<path d="M22.1482 14.4886L14.0628 18.7567C13.9101 18.8221 13.7428 18.8803 13.5683 18.8948H13.3429C12.4122 18.8439 11.3143 18.1023 10.5581 16.9171L2.47266 4.1709L22.1555 14.4886H22.1482Z" fill="#BFB7F4"/>
<path d="M24.6126 18.3569V30.3978C24.6126 31.823 23.5147 32.3901 22.1477 31.6848L2.46489 21.3671C1.09793 20.6619 0 18.9241 0 17.4989V5.45804C0 4.44008 0.5526 3.8584 1.36696 3.8584C1.7087 3.8584 2.06498 3.96019 2.46489 4.17105L10.5503 16.9172C11.3065 18.1024 12.4045 18.8441 13.3352 18.895H13.5606C13.7278 18.8804 13.9023 18.8295 14.055 18.7568L22.1404 14.4887C23.5074 15.194 24.6053 16.9318 24.6053 18.3569H24.6126Z" fill="#2F1DA9"/>
</svg>
