<svg width="20" height="20" viewBox="0 0 20 20" fill="none" xmlns="http://www.w3.org/2000/svg">
<path d="M16.6668 8.33335V5.66669C16.6668 4.26656 16.6668 3.56649 16.3943 3.03171C16.1547 2.56131 15.7722 2.17885 15.3018 1.93917C14.767 1.66669 14.067 1.66669 12.6668 1.66669H7.3335C5.93336 1.66669 5.2333 1.66669 4.69852 1.93917C4.22811 2.17885 3.84566 2.56131 3.60598 3.03171C3.3335 3.56649 3.3335 4.26656 3.3335 5.66669V14.3334C3.3335 15.7335 3.3335 16.4336 3.60598 16.9683C3.84566 17.4387 4.22811 17.8212 4.69852 18.0609C5.2333 18.3334 5.93336 18.3334 7.3335 18.3334H10.0002M10.4168 9.16669H6.66683M7.50016 12.5H6.66683M13.3335 5.83335H6.66683M14.1645 12.3589C13.4981 11.6014 12.3867 11.3976 11.5517 12.0912C10.7167 12.7849 10.5992 13.9446 11.2549 14.765C11.9106 15.5853 14.1645 17.5 14.1645 17.5C14.1645 17.5 16.4185 15.5853 17.0742 14.765C17.7299 13.9446 17.6267 12.7776 16.7774 12.0912C15.928 11.4049 14.831 11.6014 14.1645 12.3589Z" stroke="#7A5AF8" stroke-width="1.5" stroke-linecap="round" stroke-linejoin="round"/>
</svg>
