<svg width="20" height="20" viewBox="0 0 20 20" fill="none" xmlns="http://www.w3.org/2000/svg">
<g clip-path="url(#clip0_310_6997)">
<path d="M12.9545 8.27121C13.2661 7.71755 13.5259 7.21795 13.6861 6.8377C14.4643 4.99124 13.6948 2.86733 11.814 2.00096C9.93306 1.13459 8.04434 2.03293 7.21543 3.76746C5.63031 2.67977 3.51582 2.83951 2.34974 4.53688C1.18366 6.23425 1.54963 8.45171 3.14674 9.66172C3.87159 10.2109 5.30514 11.0202 6.6548 11.7404M13.5808 9.79164C13.2291 7.90168 11.621 6.51947 9.5962 6.89515C7.57144 7.27083 6.26223 9.09759 6.53596 11.0825C6.75588 12.6773 7.96977 16.419 8.43851 17.8283C8.50247 18.0207 8.53445 18.1168 8.59778 18.1839C8.65294 18.2423 8.72628 18.2847 8.80445 18.3032C8.89419 18.3245 8.99346 18.3041 9.192 18.2634C10.6469 17.9646 14.4943 17.145 15.9853 16.5381C17.8412 15.7827 18.799 13.7368 18.0816 11.7942C17.3642 9.85157 15.3935 9.15128 13.5808 9.79164Z" stroke="#7A5AF8" stroke-width="1.5" stroke-linecap="round" stroke-linejoin="round"/>
</g>
<defs>
<clipPath id="clip0_310_6997">
<rect width="20" height="20" fill="white"/>
</clipPath>
</defs>
</svg>
