<svg width="16" height="16" viewBox="0 0 16 16" fill="none" xmlns="http://www.w3.org/2000/svg">
<g clip-path="url(#clip0_4468_11184)">
<path d="M16 8C16 12.4183 12.4183 16 8 16C3.58175 16 0 12.4183 0 8C0 8.00187 8 0.00090625 8 0C12.4183 0 16 3.58175 16 8Z" fill="#0052B4"/>
<path d="M7.97852 8.00045H7.99996C7.99996 7.99318 7.99996 7.98624 7.99996 7.979C7.99283 7.98617 7.98569 7.99331 7.97852 8.00045Z" fill="#F0F0F0"/>
<path d="M8 4.17488C8 2.76723 8 1.84482 8 0.000976562H7.99865C3.581 0.00169531 0 3.5831 0 8.00094H4.1739V5.65057L6.52428 8.00094H7.97862C7.98578 7.99382 7.9929 7.98669 8.00003 7.97954C8.00003 7.44057 8.00003 6.95966 8.00003 6.52529L5.64962 4.17488H8Z" fill="#F0F0F0"/>
<path d="M4.04782 1.04395C2.7966 1.75641 1.75641 2.7966 1.04395 4.04782V8.00048H3.13091V3.13095V3.13091H8.00048C8.00048 2.4727 8.00048 1.84563 8.00048 1.04395H4.04782Z" fill="#D80027"/>
<path d="M8.00086 7.01658L5.15858 4.17433H4.1748C4.1748 4.1743 4.1748 4.17433 4.1748 4.17433L8.00083 8.00036H8.00086C8.00086 8.00036 8.00086 7.32208 8.00086 7.01658Z" fill="#D80027"/>
<path d="M4.82486 9.39111L5.26392 10.3092L6.25539 10.08L5.81139 10.9957L6.6087 11.628L5.61598 11.8517L5.61877 12.8694L4.82486 12.2327L4.03098 12.8694L4.03377 11.8517L3.04102 11.628L3.83836 10.9957L3.3943 10.08L4.38583 10.3092L4.82486 9.39111Z" fill="#F0F0F0"/>
<path d="M11.9778 11.1304L12.1974 11.5894L12.6931 11.4748L12.4711 11.9327L12.8698 12.2488L12.3734 12.3607L12.3748 12.8695L11.9778 12.5512L11.5809 12.8695L11.5823 12.3607L11.0859 12.2488L11.4846 11.9327L11.2626 11.4748L11.7583 11.5894L11.9778 11.1304Z" fill="#F0F0F0"/>
<path d="M9.93588 6.26123L10.1554 6.72029L10.6511 6.60567L10.4291 7.06351L10.8278 7.37967L10.3314 7.49154L10.3328 8.00036L9.93588 7.68201L9.53894 8.00036L9.54029 7.49154L9.04395 7.37967L9.4426 7.06351L9.2206 6.60567L9.71635 6.72029L9.93588 6.26123Z" fill="#F0F0F0"/>
<path d="M11.9778 3.47852L12.1974 3.93758L12.6931 3.82298L12.4711 4.28083L12.8697 4.59695L12.3734 4.70886L12.3748 5.21767L11.9778 4.89933L11.5809 5.21767L11.5823 4.70886L11.0859 4.59695L11.4846 4.28083L11.2626 3.82298L11.7583 3.93758L11.9778 3.47852Z" fill="#F0F0F0"/>
<path d="M13.7611 5.56543L13.9806 6.02449L14.4763 5.90987L14.2543 6.36771L14.653 6.68387L14.1566 6.79577L14.158 7.30455L13.7611 6.98624L13.3641 7.30455L13.3655 6.79577L12.8691 6.68387L13.2678 6.36771L13.0458 5.90987L13.5415 6.02449L13.7611 5.56543Z" fill="#F0F0F0"/>
<path d="M12.4864 8.00049L12.659 8.53193H13.2178L12.7657 8.86039L12.9384 9.3918L12.4864 9.06336L12.0343 9.3918L12.2069 8.86039L11.7549 8.53193H12.3137L12.4864 8.00049Z" fill="#F0F0F0"/>
</g>
<defs>
<clipPath id="clip0_4468_11184">
<rect width="16" height="16" fill="white"/>
</clipPath>
</defs>
</svg>
