<svg width="25" height="25" viewBox="0 0 25 25" fill="none" xmlns="http://www.w3.org/2000/svg">
<path d="M24.9992 11.3244V20.7324C24.9992 21.5254 24.5699 21.9825 23.9335 21.9825C23.6819 21.9825 23.3859 21.9018 23.0751 21.7405V12.3324C23.0751 11.2169 22.2167 9.85943 21.151 9.30839L5.77344 1.24436C5.77344 0.128827 6.63186 -0.314694 7.69749 0.236344L23.0751 8.30037C24.1407 8.85141 24.9992 10.2089 24.9992 11.3244Z" fill="#BFB7F4"/>
<path d="M23.0694 12.3322V21.7403C23.0694 22.5333 22.6402 22.9902 22.0038 22.9902C21.7522 22.9902 21.4562 22.9095 21.1454 22.7482V13.3402C21.1454 12.2247 20.287 10.8672 19.2213 10.3162L3.84375 2.25216C3.84375 1.13663 4.70214 0.693108 5.7678 1.24418L21.1454 9.3082C22.211 9.85924 23.0694 11.2167 23.0694 12.3322Z" fill="#8D7FEF"/>
<path d="M21.1476 13.3397V22.7477C21.1476 23.5407 20.7184 23.9976 20.082 23.9976C19.8304 23.9976 19.5343 23.917 19.2235 23.7556V14.3477C19.2235 13.2322 18.3651 11.8748 17.2995 11.3237L1.92188 3.25969C1.92188 2.46674 2.35109 2.00977 2.9875 2.00977C3.25393 2.00977 3.53511 2.0904 3.84593 2.25168L19.2235 10.3157C20.2892 10.8668 21.1476 12.2242 21.1476 13.3397Z" fill="#533DE9"/>
<path d="M17.2995 11.3238L10.9797 14.6569C10.8613 14.7107 10.7281 14.751 10.5949 14.7645H10.4173C9.6921 14.7241 8.83367 14.1462 8.24164 13.2189L1.92188 3.25977L17.2995 11.3238Z" fill="#BFB7F4"/>
<path d="M19.2257 14.3466V23.7547C19.2257 24.8701 18.3673 25.3136 17.3016 24.7626L1.92405 16.6986C0.858426 16.1475 0 14.7901 0 13.6745V4.26653C0 3.47355 0.429213 3.0166 1.06563 3.0166C1.33202 3.0166 1.61324 3.09724 1.92405 3.25852L8.24382 13.2176C8.83585 14.1449 9.69424 14.7229 10.4195 14.7632H10.5971C10.7303 14.7498 10.8635 14.7094 10.9819 14.6557L17.3016 11.3225C18.3673 11.8736 19.2257 13.231 19.2257 14.3466Z" fill="#2F1DA9"/>
</svg>
