<svg width="150" height="150" viewBox="0 0 150 150" fill="none" xmlns="http://www.w3.org/2000/svg">
<rect width="150" height="150" rx="75" fill="white"/>
<path fill-rule="evenodd" clip-rule="evenodd" d="M66.6193 47.8922H97.6451C114.303 47.8922 120.574 56.3254 119.605 68.7149C118.003 89.1692 105.638 100.486 89.236 100.486H80.9549C78.7045 100.486 77.1908 101.975 76.5821 106.012L73.0663 129.477C72.8341 130.999 72.0332 131.88 70.8319 132H51.3386C49.5046 132 48.8559 130.598 49.3364 127.563L61.2214 52.3371C61.6859 49.3258 63.3357 47.8922 66.6193 47.8922Z" fill="#009EE3"/>
<path fill-rule="evenodd" clip-rule="evenodd" d="M47.2127 22H78.2706C87.0161 22 97.3955 22.2803 104.331 28.407C108.968 32.4995 111.403 39.0106 110.842 46.0262C108.936 69.7401 94.7526 83.0266 75.7238 83.0266H60.4111C57.8003 83.0266 56.0784 84.7565 55.3416 89.4336L51.0649 116.663C50.7846 118.425 50.0238 119.466 48.6623 119.594H29.4974C27.3751 119.594 26.6222 117.993 27.1748 114.453L40.9499 27.1736C41.5025 23.6658 43.4326 22 47.2127 22Z" fill="#113984"/>
<path fill-rule="evenodd" clip-rule="evenodd" d="M55.7891 86.6705L61.211 52.337C61.6835 49.3258 63.3333 47.8842 66.6169 47.8842H97.6427C102.776 47.8842 106.933 48.685 110.184 50.1667C107.069 71.2777 93.4141 83.0025 75.5386 83.0025H60.2499C58.1997 83.0105 56.694 84.0356 55.7891 86.6705Z" fill="#172C70"/>
</svg>
