<svg width="20" height="20" viewBox="0 0 20 20" fill="none" xmlns="http://www.w3.org/2000/svg">
<g clip-path="url(#clip0_310_6991)">
<path d="M7.49984 7.50002H7.50817M12.4998 12.5H12.5082M13.3332 6.66669L6.6665 13.3334M6.11131 3.18227C6.78117 3.12881 7.4171 2.8654 7.92856 2.42954C9.12211 1.4124 10.8776 1.4124 12.0711 2.42954C12.5826 2.8654 13.2185 3.12881 13.8884 3.18227C15.4516 3.30701 16.6928 4.54831 16.8176 6.11149C16.871 6.78136 17.1345 7.41728 17.5703 7.92874C18.5875 9.12229 18.5875 10.8778 17.5703 12.0713C17.1345 12.5828 16.871 13.2187 16.8176 13.8885C16.6928 15.4517 15.4516 16.693 13.8884 16.8178C13.2185 16.8712 12.5826 17.1346 12.0711 17.5705C10.8776 18.5876 9.12211 18.5876 7.92856 17.5705C7.4171 17.1346 6.78117 16.8712 6.11131 16.8178C4.54812 16.693 3.30683 15.4517 3.18208 13.8885C3.12863 13.2187 2.86522 12.5828 2.42935 12.0713C1.41222 10.8778 1.41222 9.12229 2.42935 7.92874C2.86522 7.41728 3.12863 6.78136 3.18208 6.11149C3.30683 4.54831 4.54812 3.30701 6.11131 3.18227ZM7.9165 7.50002C7.9165 7.73014 7.72996 7.91669 7.49984 7.91669C7.26972 7.91669 7.08317 7.73014 7.08317 7.50002C7.08317 7.2699 7.26972 7.08335 7.49984 7.08335C7.72996 7.08335 7.9165 7.2699 7.9165 7.50002ZM12.9165 12.5C12.9165 12.7301 12.73 12.9167 12.4998 12.9167C12.2697 12.9167 12.0832 12.7301 12.0832 12.5C12.0832 12.2699 12.2697 12.0834 12.4998 12.0834C12.73 12.0834 12.9165 12.2699 12.9165 12.5Z" stroke="#7A5AF8" stroke-width="1.5" stroke-linecap="round" stroke-linejoin="round"/>
</g>
<defs>
<clipPath id="clip0_310_6991">
<rect width="20" height="20" fill="white"/>
</clipPath>
</defs>
</svg>
