<svg width="20" height="20" viewBox="0 0 20 20" fill="none" xmlns="http://www.w3.org/2000/svg">
<g clip-path="url(#clip0_4954_452071)">
<path d="M1.66602 5.83301L8.47012 10.5959C9.02109 10.9816 9.29658 11.1744 9.59624 11.2491C9.86093 11.3151 10.1378 11.3151 10.4025 11.2491C10.7021 11.1744 10.9776 10.9816 11.5286 10.5959L18.3327 5.83301M5.66602 16.6663H14.3327C15.7328 16.6663 16.4329 16.6663 16.9677 16.3939C17.4381 16.1542 17.8205 15.7717 18.0602 15.3013C18.3327 14.7665 18.3327 14.0665 18.3327 12.6663V7.33301C18.3327 5.93288 18.3327 5.23281 18.0602 4.69803C17.8205 4.22763 17.4381 3.84517 16.9677 3.60549C16.4329 3.33301 15.7328 3.33301 14.3327 3.33301H5.66602C4.26588 3.33301 3.56582 3.33301 3.03104 3.60549C2.56063 3.84517 2.17818 4.22763 1.9385 4.69803C1.66602 5.23281 1.66602 5.93288 1.66602 7.33301V12.6663C1.66602 14.0665 1.66602 14.7665 1.9385 15.3013C2.17818 15.7717 2.56063 16.1542 3.03104 16.3939C3.56582 16.6663 4.26588 16.6663 5.66602 16.6663Z" stroke="#667085" stroke-width="1.66667" stroke-linecap="round" stroke-linejoin="round"/>
</g>
<defs>
<clipPath id="clip0_4954_452071">
<rect width="20" height="20" fill="white"/>
</clipPath>
</defs>
</svg>
