<svg width="256" height="256" viewBox="0 0 256 256" fill="none" xmlns="http://www.w3.org/2000/svg">
<path d="M255.994 115.908V212.236C255.994 220.379 251.574 225.033 245.059 225.033C242.499 225.033 239.475 224.218 236.275 222.531V126.204C236.275 114.803 227.492 100.901 216.556 95.2585L59.0938 12.7173C59.0938 1.31624 67.8772 -3.22091 78.8129 2.42145L236.275 84.9627C247.211 90.605 255.994 104.507 255.994 115.908Z" fill="#BFB7F4"/>
<path d="M236.28 126.205V222.532C236.28 230.676 231.859 235.33 225.344 235.33C222.785 235.33 219.76 234.515 216.561 232.828V136.501C216.561 125.1 207.777 111.198 196.842 105.555L39.4375 23.0142C39.4375 11.6131 48.221 7.07597 59.1567 12.7183L216.619 95.2596C227.555 100.902 236.338 114.804 236.338 126.205H236.28Z" fill="#8D7FEF"/>
<path d="M216.619 136.558V232.886C216.619 241.029 212.199 245.683 205.684 245.683C203.124 245.683 200.1 244.868 196.9 243.182V146.854C196.9 135.453 188.117 121.551 177.181 115.909L19.7188 33.3674C19.7188 25.2238 24.1395 20.5703 30.6544 20.5703C33.3884 20.5703 36.2386 21.3847 39.4379 23.0716L196.9 105.613C207.836 111.255 216.619 125.157 216.619 136.558Z" fill="#533DE9"/>
<path d="M177.185 115.908L112.502 150.053C111.28 150.577 109.943 151.042 108.547 151.159H106.743C99.2977 150.751 90.5143 144.818 84.4648 135.337L19.7812 33.3672L177.244 115.908H177.185Z" fill="#BFB7F4"/>
<path d="M196.901 146.855V243.183C196.901 254.584 188.117 259.121 177.182 253.478L19.7192 170.937C8.78345 165.295 0 151.393 0 139.991V43.6643C0 35.5207 4.4208 30.8672 10.9357 30.8672C13.6696 30.8672 16.5199 31.6815 19.7192 33.3684L84.4026 135.338C90.4522 144.819 99.2356 150.753 106.681 151.16H108.484C109.822 151.044 111.218 150.636 112.44 150.055L177.123 115.91C188.059 121.552 196.843 135.454 196.843 146.855H196.901Z" fill="#2F1DA9"/>
</svg>
