<svg width="569" height="151" viewBox="0 0 569 151" fill="none" xmlns="http://www.w3.org/2000/svg">
<g clip-path="url(#clip0_2_10320)">
<path d="M62.6761 0.220703H0V150.112L62.6761 0.220703Z" fill="#FA0C00"/>
<path d="M106.773 0.220581H169.368V150.112L106.773 0.220581Z" fill="#FA0C00"/>
<path d="M84.725 55.4655L124.617 150.112H98.4443L86.5215 119.979H57.3271L84.725 55.4655Z" fill="#FA0C00"/>
<path d="M271.619 95.5422L279.01 116.734C279.255 117.264 279.622 117.51 280.276 117.51H294.485C295.261 117.51 295.383 117.142 295.261 116.366L265.903 34.8261C265.78 34.1728 265.658 34.0503 265.005 34.0503H247.365C246.876 34.0503 246.59 34.4178 246.59 34.9486C246.345 39.2359 245.977 40.5425 245.446 41.8082L219.274 116.244C219.151 117.142 219.437 117.51 220.172 117.51H232.87C233.646 117.51 234.014 117.264 234.299 116.489L241.282 95.5422H271.619ZM245.324 81.7004C249.162 70.1043 254.225 55.2417 256.267 46.7488H256.389C258.921 55.6501 264.882 73.2892 267.577 81.7004H245.324Z" fill="#FA0C00"/>
<path d="M333.002 118.775C340.637 118.775 348.763 117.387 357.011 113.835C357.664 113.59 357.786 113.304 357.786 112.691C357.541 110.405 357.256 107.097 357.256 104.566V27.8031C357.256 27.3131 357.256 27.0681 356.643 27.0681H342.801C342.271 27.0681 342.025 27.3131 342.025 27.9664V53.976C339.861 53.731 338.351 53.6085 336.554 53.6085C314.219 53.6085 300.5 68.3486 300.5 86.7635C300.5 108.118 314.587 118.775 333.002 118.775ZM342.025 104.566C339.739 105.301 337.207 105.587 334.635 105.587C324.509 105.587 316.22 99.8704 316.22 85.9877C316.22 73.6975 324.754 66.4295 336.064 66.4295C338.351 66.4295 340.351 66.6745 342.025 67.3278V104.566Z" fill="#FA0C00"/>
<path d="M401.945 53.6085C382.876 53.6085 371.076 68.2261 371.076 86.2736C371.076 102.402 380.467 118.775 401.659 118.775C419.584 118.775 432.16 105.587 432.16 85.8652C432.16 68.4711 421.503 53.6085 401.945 53.6085ZM401.169 66.4295C411.948 66.4295 416.521 75.6983 416.521 86.2736C416.521 99.3396 409.784 105.832 401.945 105.832C392.268 105.832 386.551 97.7063 386.551 85.9877C386.551 73.9425 392.635 66.4295 401.169 66.4295Z" fill="#FA0C00"/>
<path d="M446.471 27.0681C445.94 27.0681 445.572 27.3131 445.572 27.9664V114.855C445.572 115.223 445.94 115.876 446.471 115.999C452.554 117.877 458.924 118.775 465.498 118.775C484.321 118.775 502.614 107.097 502.614 83.5787C502.614 66.552 490.936 53.6085 472.643 53.6085C468.438 53.6085 464.518 54.2618 461.088 55.4051L460.925 28.0889C460.925 27.1906 460.68 27.0681 459.782 27.0681H446.471ZM486.975 85.1302C486.975 99.217 477.339 105.832 466.927 105.832C464.763 105.832 462.844 105.709 461.088 105.178V68.1036C463.089 67.3278 465.498 66.6745 469.949 66.6745C479.993 66.6745 486.975 73.0442 486.975 85.1302Z" fill="#FA0C00"/>
<path d="M554.271 89.7034C560.477 89.7034 565.581 89.5809 567.337 89.1726C567.99 89.0501 568.235 88.8051 568.357 88.2743C568.725 86.886 568.888 83.987 568.888 80.4347C568.888 68.3486 561.62 53.6085 542.838 53.6085C523.647 53.6085 512.99 69.2469 512.99 86.886C512.99 102.524 521.238 118.775 544.349 118.775C553.005 118.775 558.599 117.387 563.417 115.1C563.907 114.855 564.152 114.447 564.152 113.712V103.137C564.152 102.524 563.784 102.402 563.417 102.647C558.599 104.688 553.372 105.709 547.656 105.709C534.712 105.709 528.833 98.5638 528.465 89.7034H554.271ZM528.465 78.7606C529.486 72.5542 533.406 65.8171 542.185 65.8171C551.862 65.8171 554.393 73.9425 554.393 77.6173C554.393 77.7398 554.393 78.2706 554.393 78.6381C553.862 78.7606 552.229 78.7606 547.411 78.7606H528.465Z" fill="#FA0C00"/>
</g>
<defs>
<clipPath id="clip0_2_10320">
<rect width="568.889" height="150" fill="white" transform="translate(0 0.166504)"/>
</clipPath>
</defs>
</svg>
