<?xml version="1.0" encoding="UTF-8"?>
<svg id="Layer_1" data-name="Layer 1" xmlns="http://www.w3.org/2000/svg" viewBox="0 0 1000 1000">
  <defs>
    <style>
      .cls-1 {
        fill: #8d7fef;
      }

      .cls-2 {
        opacity: .11;
      }

      .cls-2, .cls-3 {
        isolation: isolate;
      }

      .cls-3 {
        opacity: .29;
      }
    </style>
  </defs>
  <g id="i27">
    <g>
      <path class="cls-1" d="m709.12,334.92v88.05l44.03,22.01,44.03-22.01v-88.05l-44.03-22.01-44.03,22.01Z"/>
      <path class="cls-2" d="m753.14,444.98l-44.03-22.01v-88.05l44.03,22.01v88.05Z"/>
      <path class="cls-3" d="m753.14,444.98l44.03-22.01v-88.05l-44.03,22.01v88.05Z"/>
      <path class="cls-1" d="m621.07,400.96v88.05l44.03,22.01,44.03-22.01v-88.05l-44.03-22.01-44.03,22.01Z"/>
      <path class="cls-2" d="m665.09,511.02l-44.03-22.01v-88.05l44.03,22.01v88.05Z"/>
      <path class="cls-3" d="m665.09,511.02l44.03-22.01v-88.05l-44.03,22.01v88.05Z"/>
      <path class="cls-1" d="m814.78,286.49c-8.81-4.4-17.61-4.4-22.01,0l-378.62,198.11c-8.81,0-13.21,8.81-13.21,17.61,0,17.61,13.21,39.62,30.82,48.43,8.81,4.4,17.61,4.4,22.01,0,0,0,378.62-198.11,383.02-198.11,4.4-4.4,8.81-8.81,8.81-17.61,0-17.61-13.21-39.62-30.82-48.43h0Z"/>
      <path class="cls-3" d="m458.18,550.64c4.4,0,378.62-198.11,383.02-198.11,4.4-4.4,8.81-8.81,8.81-17.61s-4.4-13.21-4.4-22.01l-387.42,198.11c4.4,8.81,4.4,13.21,4.4,22.01,4.4,8.81,0,13.21-4.4,17.61Z"/>
      <path class="cls-2" d="m466.98,533.03c0,17.61-13.21,26.42-30.82,17.61-17.61-13.21-35.22-35.22-35.22-48.43,0-17.61,13.21-26.42,30.82-17.61,17.61,8.81,35.22,30.82,35.22,48.43Z"/>
      <path class="cls-1" d="m440.57,436.18l-74.84-35.22c-22.01-8.81-52.83-8.81-88.05,8.81-70.44,35.22-127.67,118.87-127.67,189.31,0,30.82,13.21,57.23,30.82,70.44,4.4,4.4,79.25,39.62,79.25,39.62,22.01,13.21,52.83,8.81,88.05-8.81,70.44-35.22,127.67-118.87,127.67-189.31,4.4-39.62-13.21-66.04-35.22-74.84Zm-176.1,180.5v-8.81c0-26.42,22.01-61.64,48.43-74.84v8.81c0,30.82-22.01,61.64-48.43,74.84Z"/>
      <path class="cls-2" d="m260.06,704.73c-8.81-4.4-74.84-35.22-79.25-39.62-22.01-13.21-30.82-35.22-30.82-70.44,0-26.42,8.81-57.23,26.42-88.05l74.84,35.22c-17.61,30.82-26.42,57.23-26.42,88.05,0,39.62,13.21,61.64,35.22,74.84h0Z"/>
      <path class="cls-3" d="m352.52,444.98c-70.44,30.82-127.67,118.87-127.67,189.31s57.23,96.86,127.67,61.64c70.44-35.22,127.67-118.87,127.67-189.31s-57.23-96.86-127.67-61.64Zm-39.62,189.31c-26.42,13.21-48.43,4.4-48.43-26.42,0-26.42,22.01-61.64,48.43-74.84,26.42-13.21,48.43-4.4,48.43,26.42,0,26.42-22.01,61.64-48.43,74.84Z"/>
      <path class="cls-2" d="m312.89,537.43v8.81c0,26.42-22.01,61.64-48.43,74.84,4.4,17.61,26.42,26.42,48.43,13.21,26.42-13.21,48.43-48.43,48.43-74.84s-22.01-39.62-48.43-22.01h0Z"/>
    </g>
  </g>
</svg>