<?xml version="1.0" encoding="UTF-8"?>
<svg id="Layer_1" data-name="Layer 1" xmlns="http://www.w3.org/2000/svg" viewBox="0 0 1000 1000">
  <defs>
    <style>
      .cls-1 {
        fill: #8d7fef;
      }

      .cls-2 {
        fill: #bfb7f4;
      }

      .cls-3 {
        opacity: .2;
      }

      .cls-3, .cls-4 {
        isolation: isolate;
      }

      .cls-4 {
        opacity: .5;
      }
    </style>
  </defs>
  <g id="i9">
    <g>
      <path class="cls-1" d="m716,487.01c0-15.71-7.85-35.35-27.49-43.2l-235.64-117.82c-43.2-23.56-98.18-23.56-141.38,0-19.64,7.85-27.49,27.49-27.49,43.2v294.55c0,15.71,7.85,35.35,27.49,43.2l235.64,117.82c43.2,23.56,98.18,23.56,141.38,0,15.71-7.85,27.49-27.49,27.49-43.2v-294.55Z"/>
      <path class="cls-2" d="m554.98,208.18l-74.62-39.27c-35.35-15.71-74.62-15.71-106.04,3.93-31.42,19.64-51.05,54.98-51.05,94.25v82.47c0,11.78,15.71,19.64,39.27,19.64s39.27-7.85,39.27-19.64v-82.47c0-15.71,11.78-23.56,15.71-27.49s15.71-7.85,31.42,0l74.62,39.27c47.13,19.64,74.62,70.69,74.62,121.75v86.4c0,11.78,15.71,19.64,39.27,19.64s39.27-7.85,39.27-19.64v-86.4c0-82.47-47.13-157.09-121.75-192.44Z"/>
      <path class="cls-3" d="m716,487.01c0,15.71-7.85,35.35-27.49,43.2-43.2,23.56-98.18,23.56-141.38,0l-235.64-117.82c-19.64-7.85-27.49-27.49-27.49-43.2v294.55c0,15.71,7.85,35.35,27.49,43.2l235.64,117.82c43.2,23.56,98.18,23.56,141.38,0,15.71-7.85,27.49-27.49,27.49-43.2v-294.55Z"/>
      <path class="cls-4" d="m500,608.76c0-23.56-15.71-47.13-39.27-58.91-23.56-11.78-39.27-3.93-39.27,19.64,0,15.71,7.85,31.42,19.64,43.2v70.69l39.27,19.64v-70.69c11.78,0,19.64-7.85,19.64-23.56Z"/>
    </g>
  </g>
</svg>