<svg width="161" height="38" viewBox="0 0 161 38" fill="none" xmlns="http://www.w3.org/2000/svg">
<g filter="url(#filter0_dd_1019_33137)">
<path d="M35 16.4885V28.5294C35 29.5474 34.4474 30.1291 33.6331 30.1291C33.3131 30.1291 32.935 30.0273 32.5351 29.8164V17.7755C32.5351 16.3504 31.4372 14.6126 30.0702 13.9073L10.3874 3.58966C10.3874 2.16453 11.4854 1.59739 12.8523 2.30268L32.5351 12.6203C33.9021 13.3256 35 15.0634 35 16.4885Z" fill="#BFB7F4"/>
<path d="M32.5351 17.7755V29.8164C32.5351 30.8344 31.9825 31.4161 31.1682 31.4161C30.8482 31.4161 30.4701 31.3143 30.0702 31.1034V19.0625C30.0702 17.6374 28.9723 15.8996 27.6053 15.1943L7.92981 4.87665C7.92981 3.45152 9.02774 2.88437 10.3947 3.58967L30.0775 13.9073C31.4445 14.6126 32.5424 16.3504 32.5424 17.7755H32.5351Z" fill="#8D7FEF"/>
<path d="M30.0775 19.0697V31.1107C30.0775 32.1286 29.5249 32.7103 28.7105 32.7103C28.3906 32.7103 28.0125 32.6085 27.6126 32.3976V20.3567C27.6126 18.9316 26.5147 17.1938 25.1477 16.4885L5.4649 6.17086C5.4649 5.15291 6.0175 4.57123 6.83186 4.57123C7.17361 4.57123 7.52989 4.67302 7.9298 4.88388L27.6126 15.2015C28.9796 15.9068 30.0775 17.6446 30.0775 19.0697Z" fill="#533DE9"/>
<path d="M25.1477 16.4886L17.0623 20.7567C16.9096 20.8222 16.7424 20.8803 16.5678 20.8949H16.3424C15.4117 20.844 14.3138 20.1023 13.5576 18.9172L5.47218 6.17096L25.155 16.4886H25.1477Z" fill="#BFB7F4"/>
<path d="M27.6126 20.3567V32.3976C27.6126 33.8228 26.5147 34.3899 25.1477 33.6846L5.46489 23.367C4.09793 22.6617 3 20.9239 3 19.4988V7.45785C3 6.4399 3.5526 5.85822 4.36696 5.85822C4.7087 5.85822 5.06498 5.96001 5.46489 6.17087L13.5503 18.9171C14.3065 20.1023 15.4045 20.8439 16.3352 20.8948H16.5606C16.7278 20.8803 16.9023 20.8294 17.055 20.7566L25.1404 16.4885C26.5074 17.1938 27.6053 18.9316 27.6053 20.3567H27.6126Z" fill="#2F1DA9"/>
</g>
<path d="M87.2618 26.5682H83.3563V24.67C82.2218 25.8337 80.5854 26.5682 78.6072 26.5682C75.3127 26.5682 73.2254 24.6409 73.2254 21.9282C73.2254 19.2155 75.4945 17.39 79.109 17.39H83.0145V16.7064C83.0145 14.9682 82.0109 13.9646 80.1127 13.9646C78.5054 13.9646 77.3709 14.6264 75.9963 16.1027L73.8072 13.4918C75.6036 11.3537 77.8727 10.27 80.6145 10.27C84.68 10.27 87.2909 12.6191 87.2909 16.9464V26.5755H87.2618V26.5682ZM83.0145 20.1827H79.6909C78.3163 20.1827 77.5309 20.7137 77.5309 21.7682C77.5309 22.8227 78.4036 23.4555 79.7709 23.4555C81.6181 23.4555 83.0436 22.1609 83.0436 20.3718V20.19H83.0145V20.1827Z" fill="#533DE9"/>
<path d="M138.2 10.2628H142.527V19.5209C142.527 21.3391 143.793 22.5828 145.56 22.5828C147.225 22.5828 148.513 21.3682 148.513 19.5209V10.2628H152.84V19.15C152.84 23.5791 149.698 26.5391 145.531 26.5391C141.364 26.5391 138.171 23.5864 138.171 19.15V10.2628H138.2Z" fill="#533DE9"/>
<path d="M156.745 2.42999H160.993V26.0154H156.745V2.42999Z" fill="#533DE9"/>
<path d="M115.938 17.4918V26.3791H111.582V17.1427C111.582 15.3245 110.316 14.0809 108.578 14.0809C106.84 14.0809 105.626 15.2955 105.626 17.1427V26.4009H101.087V17.1427C101.087 15.3245 99.8219 14.0809 98.0764 14.0809C96.331 14.0809 95.1237 15.2955 95.1237 17.1427V26.4009H90.7746V17.4846C90.7746 13.0555 93.9164 10.0955 98.0837 10.0955C100.222 10.0955 102.069 10.8373 103.386 12.1536C104.68 10.8373 106.527 10.0955 108.607 10.0955C112.804 10.0955 115.938 13.0482 115.938 17.4846V17.4918Z" fill="#533DE9"/>
<path d="M126.862 10.2918C122.295 10.1828 118.418 13.9864 118.498 18.4155V34.43H122.745V25.5646C123.96 26.2264 125.356 26.59 126.811 26.5682C131.378 26.6773 135.305 22.8518 135.225 18.4155C135.335 13.9573 131.429 10.2118 126.862 10.2918ZM126.862 22.6627C124.484 22.6627 122.745 20.8446 122.745 18.4155C122.745 15.9864 124.484 14.1682 126.862 14.1682C129.24 14.1682 130.898 16.0155 130.898 18.4446C130.898 20.8737 129.16 22.6627 126.862 22.6627Z" fill="#533DE9"/>
<path d="M58.1927 18.5754C59.6691 20.6045 61.3055 21.87 63.7855 21.87C65.8145 21.87 67.0291 20.8954 67.0291 19.3609C67.0291 18.0154 66.3164 17.5427 64.1273 16.5391L61.6764 15.4336C58.1927 13.8773 56.1636 11.8991 56.1636 8.86636C56.1636 4.98999 59.3855 2.42999 63.7055 2.42999C67.1891 2.42999 69.8 4.11727 71.2255 6.72817L68.0618 9.17908C66.8982 7.41181 65.4509 6.56817 63.7055 6.56817C62.0982 6.56817 60.8836 7.3609 60.8836 8.78636C60.8836 10.0009 61.5964 10.5536 63.5455 11.3973L66.1273 12.5318C69.9527 14.2191 71.7491 16.1173 71.7491 19.1791C71.7491 23.3464 68.3455 26.0082 63.7855 26.0082C59.9309 26.0082 56.7455 24.03 55 20.9682L58.1927 18.5682V18.5754Z" fill="#533DE9"/>
<defs>
<filter id="filter0_dd_1019_33137" x="0" y="0" width="38" height="38" filterUnits="userSpaceOnUse" color-interpolation-filters="sRGB">
<feFlood flood-opacity="0" result="BackgroundImageFix"/>
<feColorMatrix in="SourceAlpha" type="matrix" values="0 0 0 0 0 0 0 0 0 0 0 0 0 0 0 0 0 0 127 0" result="hardAlpha"/>
<feOffset dy="1"/>
<feGaussianBlur stdDeviation="1"/>
<feColorMatrix type="matrix" values="0 0 0 0 0.0627451 0 0 0 0 0.0941176 0 0 0 0 0.156863 0 0 0 0.06 0"/>
<feBlend mode="normal" in2="BackgroundImageFix" result="effect1_dropShadow_1019_33137"/>
<feColorMatrix in="SourceAlpha" type="matrix" values="0 0 0 0 0 0 0 0 0 0 0 0 0 0 0 0 0 0 127 0" result="hardAlpha"/>
<feOffset dy="1"/>
<feGaussianBlur stdDeviation="1.5"/>
<feColorMatrix type="matrix" values="0 0 0 0 0.0627451 0 0 0 0 0.0941176 0 0 0 0 0.156863 0 0 0 0.1 0"/>
<feBlend mode="normal" in2="effect1_dropShadow_1019_33137" result="effect2_dropShadow_1019_33137"/>
<feBlend mode="normal" in="SourceGraphic" in2="effect2_dropShadow_1019_33137" result="shape"/>
</filter>
</defs>
</svg>
