<svg width="16" height="16" viewBox="0 0 16 16" fill="none" xmlns="http://www.w3.org/2000/svg">
<g clip-path="url(#clip0_4954_435104)">
<path d="M1.33301 4.6665L6.77629 8.4768C7.21707 8.78535 7.43746 8.93962 7.67718 8.99938C7.88894 9.05216 8.11041 9.05216 8.32217 8.99938C8.56189 8.93962 8.78228 8.78535 9.22306 8.4768L14.6663 4.6665M4.53301 13.3332H11.4663C12.5864 13.3332 13.1465 13.3332 13.5743 13.1152C13.9506 12.9234 14.2566 12.6175 14.4484 12.2412C14.6663 11.8133 14.6663 11.2533 14.6663 10.1332V5.8665C14.6663 4.7464 14.6663 4.18635 14.4484 3.75852C14.2566 3.3822 13.9506 3.07624 13.5743 2.88449C13.1465 2.6665 12.5864 2.6665 11.4663 2.6665H4.53301C3.4129 2.6665 2.85285 2.6665 2.42503 2.88449C2.0487 3.07624 1.74274 3.3822 1.55099 3.75852C1.33301 4.18635 1.33301 4.7464 1.33301 5.8665V10.1332C1.33301 11.2533 1.33301 11.8133 1.55099 12.2412C1.74274 12.6175 2.0487 12.9234 2.42503 13.1152C2.85285 13.3332 3.4129 13.3332 4.53301 13.3332Z" stroke="#667085" stroke-width="1.33333" stroke-linecap="round" stroke-linejoin="round"/>
</g>
<defs>
<clipPath id="clip0_4954_435104">
<rect width="16" height="16" fill="white"/>
</clipPath>
</defs>
</svg>
